<svg xmlns="http://www.w3.org/2000/svg" viewBox="0 0 32 32" width="128" height="128" style="image-rendering: pixelated;">
  <!-- Bird Sad Frame 2 - 更难过 -->
  
  <!-- 头顶羽毛（更耷拉） -->
  <rect x="13" y="6" width="1" height="1" fill="#FFD040"/>
  <rect x="12" y="7" width="2" height="1" fill="#FFE060"/>
  
  <!-- 头部（更低） -->
  <rect x="10" y="8" width="8" height="1" fill="#FFD040"/>
  <rect x="9" y="9" width="10" height="1" fill="#FFE060"/>
  <rect x="13" y="9" width="2" height="1" fill="#FFFFFF"/>
  <rect x="8" y="10" width="12" height="1" fill="#FFE060"/>
  <rect x="12" y="10" width="4" height="1" fill="#FFFFFF"/>
  
  <!-- 眼睛 -->
  <rect x="8" y="11" width="12" height="1" fill="#FFE060"/>
  <rect x="11" y="11" width="1" height="1" fill="#2A2A2A"/>
  <rect x="16" y="11" width="1" height="1" fill="#2A2A2A"/>
  <rect x="10" y="12" width="1" height="1" fill="#2A2A2A"/>
  <rect x="17" y="12" width="1" height="1" fill="#2A2A2A"/>
  
  <!-- 眼泪（更多） -->
  <rect x="9" y="12" width="1" height="1" fill="#87CEEB"/>
  <rect x="9" y="13" width="1" height="1" fill="#87CEEB"/>
  <rect x="18" y="12" width="1" height="1" fill="#87CEEB"/>
  <rect x="18" y="13" width="1" height="1" fill="#87CEEB"/>
  
  <rect x="8" y="12" width="12" height="1" fill="#FFE060"/>
  
  <!-- 嘴喙 -->
  <rect x="9" y="13" width="10" height="1" fill="#FFE060"/>
  <rect x="12" y="13" width="4" height="1" fill="#FF8030"/>
  <rect x="10" y="14" width="8" height="1" fill="#FFE060"/>
  <rect x="13" y="14" width="2" height="1" fill="#E06020"/>
  
  <!-- 身体 -->
  <rect x="10" y="15" width="8" height="1" fill="#FFE060"/>
  <rect x="12" y="15" width="4" height="1" fill="#FFFFFF"/>
  <rect x="10" y="16" width="8" height="1" fill="#FFE060"/>
  <rect x="13" y="16" width="2" height="1" fill="#FFFFFF"/>
  <rect x="11" y="17" width="6" height="1" fill="#FFE060"/>
  <rect x="12" y="18" width="4" height="1" fill="#FFD040"/>
  
  <!-- 翅膀（更下垂） -->
  <rect x="6" y="15" width="3" height="1" fill="#FFD040"/>
  <rect x="5" y="16" width="4" height="1" fill="#FFE060"/>
  <rect x="4" y="17" width="3" height="1" fill="#FFD040"/>
  <rect x="19" y="15" width="3" height="1" fill="#FFD040"/>
  <rect x="19" y="16" width="4" height="1" fill="#FFE060"/>
  <rect x="21" y="17" width="3" height="1" fill="#FFD040"/>
  
  <!-- 尾羽（更下垂） -->
  <rect x="12" y="19" width="4" height="1" fill="#E0B030"/>
  <rect x="11" y="20" width="6" height="1" fill="#FFD040"/>
  
  <!-- 脚 -->
  <rect x="13" y="21" width="2" height="1" fill="#FF8030"/>
  <rect x="15" y="21" width="2" height="1" fill="#FF8030"/>
</svg>
