<svg xmlns="http://www.w3.org/2000/svg" viewBox="0 0 80 56" width="160" height="112" style="image-rendering: pixelated;">
  <!-- Library Reading Desk - 阅读桌 80x56px -->
  
  <!-- 桌子阴影 -->
  <rect x="8" y="48" width="64" height="8" fill="#2A1A10"/>
  
  <!-- 桌腿 -->
  <rect x="12" y="32" width="8" height="20" fill="#5C4033"/>
  <rect x="60" y="32" width="8" height="20" fill="#5C4033"/>
  
  <!-- 桌面 -->
  <rect x="0" y="20" width="80" height="16" fill="#4A3728"/>
  <rect x="4" y="24" width="72" height="8" fill="#5C4033"/>
  <rect x="0" y="20" width="80" height="4" fill="#6A5040"/>
  
  <!-- 桌上物品 -->
  <!-- 打开的书 -->
  <rect x="20" y="12" width="20" height="12" fill="#F5F5DC"/>
  <rect x="29" y="12" width="2" height="12" fill="#4A3728"/>
  <rect x="22" y="14" width="6" height="2" fill="#2F4F4F"/>
  <rect x="22" y="18" width="8" height="1" fill="#4A4A4A"/>
  <rect x="22" y="20" width="6" height="1" fill="#4A4A4A"/>
  <rect x="32" y="14" width="6" height="2" fill="#2F4F4F"/>
  <rect x="32" y="18" width="8" height="1" fill="#4A4A4A"/>
  <rect x="32" y="20" width="6" height="1" fill="#4A4A4A"/>
  
  <!-- 书堆 -->
  <rect x="48" y="14" width="12" height="8" fill="#C04040"/>
  <rect x="50" y="10" width="10" height="6" fill="#4060A0"/>
  <rect x="52" y="6" width="8" height="6" fill="#40A060"/>
  
  <!-- 羽毛笔+墨水 -->
  <rect x="66" y="16" width="6" height="6" fill="#2A2A2A"/>
  <rect x="68" y="10" width="2" height="8" fill="#D2691E"/>
  <rect x="67" y="8" width="4" height="4" fill="#F5F5DC"/>
</svg>
