<svg xmlns="http://www.w3.org/2000/svg" viewBox="0 0 32 32" width="128" height="128" style="image-rendering: pixelated;">
  <!-- Energy Happy Frame 2 - 极度开心 -->
  
  <!-- 顶部光晕（最亮+跳跃） -->
  <rect x="10" y="0" width="12" height="1" fill="#FFFFFF"/>
  <rect x="9" y="1" width="14" height="1" fill="#FFFFFF"/>
  <rect x="10" y="2" width="12" height="1" fill="#F0C0FF"/>
  
  <!-- 头部 -->
  <rect x="8" y="3" width="16" height="1" fill="#F0B0FF"/>
  <rect x="7" y="4" width="18" height="2" fill="#E0A0FF"/>
  <rect x="15" y="4" width="2" height="1" fill="#FFFFFF"/>
  
  <!-- 眼睛 -->
  <rect x="7" y="6" width="18" height="2" fill="#F0C0FF"/>
  <rect x="9" y="6" width="5" height="1" fill="#FFFFFF"/>
  <rect x="18" y="6" width="5" height="1" fill="#FFFFFF"/>
  <rect x="10" y="7" width="3" height="1" fill="#FFFFFF"/>
  <rect x="19" y="7" width="3" height="1" fill="#FFFFFF"/>
  
  <!-- 嘴 -->
  <rect x="7" y="8" width="18" height="1" fill="#FFFFFF"/>
  <rect x="12" y="8" width="8" height="1" fill="#FFD0E8"/>
  
  <!-- 身体 -->
  <rect x="8" y="9" width="16" height="1" fill="#F0C0FF"/>
  <rect x="9" y="10" width="14" height="1" fill="#E0B0FF"/>
  <rect x="11" y="10" width="3" height="1" fill="#FFFFFF"/>
  <rect x="18" y="10" width="3" height="1" fill="#FFFFFF"/>
  <rect x="9" y="11" width="14" height="1" fill="#C090FF"/>
  <rect x="10" y="12" width="12" height="1" fill="#B080F0"/>
  <rect x="10" y="13" width="12" height="1" fill="#A070E0"/>
  
  <!-- 底部波纹 -->
  <rect x="8" y="14" width="16" height="1" fill="#9060D0"/>
  <rect x="7" y="15" width="18" height="1" fill="#8050C0"/>
  
  <!-- 能量散射粒子（大爆发） -->
  <rect x="2" y="3" width="1" height="1" fill="#FFFFFF"/>
  <rect x="29" y="3" width="1" height="1" fill="#FFFFFF"/>
  <rect x="1" y="7" width="1" height="1" fill="#F0C0FF"/>
  <rect x="30" y="7" width="1" height="1" fill="#F0C0FF"/>
  <rect x="3" y="11" width="1" height="1" fill="#E0A0FF"/>
  <rect x="28" y="11" width="1" height="1" fill="#E0A0FF"/>
  <rect x="5" y="14" width="1" height="1" fill="#D080FF"/>
  <rect x="26" y="14" width="1" height="1" fill="#D080FF"/>
</svg>
