<svg xmlns="http://www.w3.org/2000/svg" viewBox="0 0 32 32" width="128" height="128" style="image-rendering: pixelated;">
  <!-- Energy Idle Frame 2 - 脉动扩大 -->
  
  <!-- 顶部光晕（更亮） -->
  <rect x="12" y="2" width="8" height="1" fill="#E0A0FF"/>
  <rect x="11" y="3" width="10" height="1" fill="#F0B0FF"/>
  
  <!-- 头部 -->
  <rect x="9" y="4" width="14" height="1" fill="#D090FF"/>
  <rect x="8" y="5" width="16" height="2" fill="#C090FF"/>
  <rect x="15" y="5" width="2" height="1" fill="#FFFFFF"/>
  
  <!-- 眼睛（更亮） -->
  <rect x="8" y="7" width="16" height="2" fill="#D0A0FF"/>
  <rect x="11" y="7" width="2" height="2" fill="#FFFFFF"/>
  <rect x="19" y="7" width="2" height="2" fill="#FFFFFF"/>
  
  <!-- 嘴（更大） -->
  <rect x="8" y="9" width="16" height="1" fill="#E0B0FF"/>
  <rect x="14" y="9" width="4" height="1" fill="#FFA0D0"/>
  
  <!-- 身体 -->
  <rect x="9" y="10" width="14" height="1" fill="#D0A0FF"/>
  <rect x="10" y="11" width="12" height="1" fill="#C090FF"/>
  <rect x="13" y="11" width="2" height="1" fill="#FFFFFF"/>
  <rect x="17" y="11" width="2" height="1" fill="#FFFFFF"/>
  <rect x="10" y="12" width="12" height="1" fill="#A070E0"/>
  <rect x="11" y="13" width="10" height="1" fill="#9060D0"/>
  <rect x="11" y="14" width="10" height="1" fill="#8050C0"/>
  
  <!-- 底部波纹（扩大） -->
  <rect x="9" y="15" width="14" height="1" fill="#7040B0"/>
  <rect x="8" y="16" width="16" height="1" fill="#6030A0"/>
  
  <!-- 能量散射粒子（更多） -->
  <rect x="5" y="8" width="1" height="1" fill="#E0A0FF"/>
  <rect x="26" y="8" width="1" height="1" fill="#E0A0FF"/>
  <rect x="6" y="12" width="1" height="1" fill="#C080FF"/>
  <rect x="25" y="12" width="1" height="1" fill="#C080FF"/>
  <rect x="7" y="15" width="1" height="1" fill="#A060E0"/>
  <rect x="24" y="15" width="1" height="1" fill="#A060E0"/>
</svg>
