<svg xmlns="http://www.w3.org/2000/svg" viewBox="0 0 32 32" width="128" height="128" style="image-rendering: pixelated;">
  <!-- Energy Sad Frame 1 - 暗淡 -->
  
  <!-- 顶部光晕（暗淡） -->
  <rect x="13" y="5" width="6" height="1" fill="#8050C0"/>
  <rect x="12" y="6" width="8" height="1" fill="#9060D0"/>
  
  <!-- 头部 -->
  <rect x="10" y="7" width="12" height="1" fill="#8050C0"/>
  <rect x="9" y="8" width="14" height="2" fill="#7040B0"/>
  
  <!-- 眼睛（悲伤下垂） -->
  <rect x="9" y="10" width="14" height="2" fill="#8050C0"/>
  <rect x="11" y="10" width="1" height="1" fill="#A070E0"/>
  <rect x="12" y="11" width="1" height="1" fill="#A070E0"/>
  <rect x="20" y="10" width="1" height="1" fill="#A070E0"/>
  <rect x="19" y="11" width="1" height="1" fill="#A070E0"/>
  
  <!-- 嘴（下弯） -->
  <rect x="9" y="12" width="14" height="1" fill="#9060D0"/>
  <rect x="14" y="12" width="1" height="1" fill="#6030A0"/>
  <rect x="17" y="12" width="1" height="1" fill="#6030A0"/>
  <rect x="15" y="13" width="2" height="1" fill="#6030A0"/>
  
  <!-- 身体 -->
  <rect x="10" y="13" width="12" height="1" fill="#8050C0"/>
  <rect x="11" y="14" width="10" height="1" fill="#7040B0"/>
  <rect x="11" y="15" width="10" height="1" fill="#6030A0"/>
  <rect x="12" y="16" width="8" height="1" fill="#502080"/>
  <rect x="12" y="17" width="8" height="1" fill="#4020A0"/>
  
  <!-- 底部波纹（收缩） -->
  <rect x="11" y="18" width="10" height="1" fill="#301060"/>
  <rect x="10" y="19" width="12" height="1" fill="#200040"/>
</svg>
