<svg xmlns="http://www.w3.org/2000/svg" viewBox="0 0 64 64" width="256" height="256">
  <!-- Pet 动作: 转圈 - CSS动画版 -->
  
  <defs>
    <radialGradient id="bodyGrad" cx="40%" cy="30%" r="60%">
      <stop offset="0%" style="stop-color:#FFF5F0" />
      <stop offset="50%" style="stop-color:#FFE4E1" />
      <stop offset="100%" style="stop-color:#F5D5D0" />
    </radialGradient>
    <radialGradient id="earInnerGrad" cx="50%" cy="30%" r="70%">
      <stop offset="0%" style="stop-color:#FFC8C8" />
      <stop offset="100%" style="stop-color:#FFB0B5" />
    </radialGradient>
    <radialGradient id="blushGrad" cx="50%" cy="50%" r="50%">
      <stop offset="0%" style="stop-color:#FFB6C1" />
      <stop offset="100%" style="stop-color:#FFB6C1;stop-opacity:0" />
    </radialGradient>
    <filter id="softShadow" x="-20%" y="-20%" width="140%" height="140%">
      <feDropShadow dx="0" dy="2" stdDeviation="2" flood-color="#D4A4A0" flood-opacity="0.3"/>
    </filter>
  </defs>
  
  <style>
    .pet-spin {
      animation: spin 1.5s linear infinite;
      transform-origin: 32px 40px;
    }
    .sparkles {
      animation: sparkle 1.5s linear infinite;
    }
    @keyframes spin {
      0% { transform: rotateY(0deg); }
      100% { transform: rotateY(360deg); }
    }
    @keyframes sparkle {
      0%, 100% { opacity: 0.3; }
      50% { opacity: 1; }
    }
  </style>
  
  <!-- 投影 - 转圈时变化 -->
  <ellipse cx="32" cy="58" rx="18" ry="4" fill="#E8D0D0" opacity="0.5">
    <animate attributeName="rx" values="18;22;18;14;18" dur="1.5s" repeatCount="indefinite"/>
  </ellipse>
  
  <!-- Pet主体 - 带转圈动画 -->
  <g class="pet-spin">
    <!-- 身体 -->
    <ellipse cx="32" cy="36" rx="24" ry="22" fill="url(#bodyGrad)" filter="url(#softShadow)"/>
    <ellipse cx="26" cy="28" rx="12" ry="8" fill="#FFFFFF" opacity="0.4"/>
    
    <!-- 耳朵 -->
    <ellipse cx="14" cy="18" rx="7" ry="10" fill="url(#bodyGrad)" transform="rotate(-12 14 18)"/>
    <ellipse cx="14" cy="19" rx="4.5" ry="6" fill="url(#earInnerGrad)" transform="rotate(-12 14 18)"/>
    <ellipse cx="50" cy="18" rx="7" ry="10" fill="url(#bodyGrad)" transform="rotate(12 50 18)"/>
    <ellipse cx="50" cy="19" rx="4.5" ry="6" fill="url(#earInnerGrad)" transform="rotate(12 50 18)"/>
    
    <!-- 眼睛 - 开心眯眼 -->
    <path d="M 19 32 Q 24 36 29 32" stroke="#3A2A2A" stroke-width="2.5" fill="none" stroke-linecap="round"/>
    <path d="M 35 32 Q 40 36 45 32" stroke="#3A2A2A" stroke-width="2.5" fill="none" stroke-linecap="round"/>
    
    <!-- 腮红 -->
    <ellipse cx="12" cy="38" rx="6" ry="4" fill="url(#blushGrad)"/>
    <ellipse cx="52" cy="38" rx="6" ry="4" fill="url(#blushGrad)"/>
    
    <!-- 嘴巴 - 超开心 -->
    <path d="M 24 42 Q 32 52 40 42" stroke="#D88080" stroke-width="2" fill="#FFB8B8" stroke-linecap="round"/>
    
    <!-- 脚 -->
    <ellipse cx="22" cy="54" rx="6" ry="4" fill="url(#bodyGrad)"/>
    <ellipse cx="42" cy="54" rx="6" ry="4" fill="url(#bodyGrad)"/>
    
    <!-- 蝴蝶结 -->
    <g transform="translate(32, 12)">
      <ellipse cx="-6" cy="0" rx="5" ry="3.5" fill="#98D8C8"/>
      <ellipse cx="6" cy="0" rx="5" ry="3.5" fill="#98D8C8"/>
      <circle cx="0" cy="0" r="2.5" fill="#7FC8B8"/>
    </g>
  </g>
  
  <!-- 转圈星星效果 -->
  <g class="sparkles">
    <polygon points="6,20 7.5,24 11.5,24 8.5,27 9.5,31 6,28.5 2.5,31 3.5,27 0.5,24 4.5,24" fill="#FFD700" opacity="0.7"/>
    <polygon points="58,18 59,21 62,21 59.5,23 60.5,26 58,24 55.5,26 56.5,23 54,21 57,21" fill="#FFD700" opacity="0.5"/>
    <polygon points="10,48 11,50 13,50 11.5,51.5 12,54 10,52.5 8,54 8.5,51.5 7,50 9,50" fill="#FFD700" opacity="0.6"/>
    <polygon points="54,46 55,48 57,48 55.5,49.5 56,52 54,50.5 52,52 52.5,49.5 51,48 53,48" fill="#FFD700" opacity="0.4"/>
  </g>
</svg>