<svg xmlns="http://www.w3.org/2000/svg" viewBox="0 0 64 64" width="256" height="256">
  <!-- 线条风格 AI Pet - Happy 开心 -->
  
  <style>
    .main-line { fill: none; stroke: #3A3A3A; stroke-width: 2; stroke-linecap: round; stroke-linejoin: round; }
    .thin-line { fill: none; stroke: #3A3A3A; stroke-width: 1.5; stroke-linecap: round; }
    .fill-body { fill: #FFFFFF; }
    .fill-cheek { fill: #FFD4D4; }
    .fill-accent { fill: #7DD3C0; }
  </style>
  
  <!-- 身体 -->
  <ellipse cx="32" cy="38" rx="22" ry="20" class="fill-body"/>
  <ellipse cx="32" cy="38" rx="22" ry="20" class="main-line"/>
  
  <!-- 耳朵 - 竖起来更开心 -->
  <path d="M 14 26 Q 6 14 14 8 Q 20 14 18 22" class="fill-body"/>
  <path d="M 14 26 Q 6 14 14 8 Q 20 14 18 22" class="main-line"/>
  <path d="M 50 26 Q 58 14 50 8 Q 44 14 46 22" class="fill-body"/>
  <path d="M 50 26 Q 58 14 50 8 Q 44 14 46 22" class="main-line"/>
  
  <!-- 眼睛 - 开心弯弯眼 -->
  <path d="M 20 34 Q 24 38 28 34" class="main-line" style="stroke-width:2.5"/>
  <path d="M 36 34 Q 40 38 44 34" class="main-line" style="stroke-width:2.5"/>
  
  <!-- 嘴巴 - 大大的笑 -->
  <path d="M 24 44 Q 32 52 40 44" class="thin-line"/>
  <path d="M 26 44 Q 32 48 38 44" fill="#FFB8B8" stroke="none"/>
  
  <!-- 腮红 - 更红润 -->
  <ellipse cx="14" cy="40" rx="5" ry="3" class="fill-cheek" opacity="0.8"/>
  <ellipse cx="50" cy="40" rx="5" ry="3" class="fill-cheek" opacity="0.8"/>
  
  <!-- 小脚 -->
  <ellipse cx="24" cy="56" rx="5" ry="3" class="fill-body"/>
  <ellipse cx="24" cy="56" rx="5" ry="3" class="main-line"/>
  <ellipse cx="40" cy="56" rx="5" ry="3" class="fill-body"/>
  <ellipse cx="40" cy="56" rx="5" ry="3" class="main-line"/>
  
  <!-- 领结 -->
  <g transform="translate(32, 50)">
    <polygon points="-6,0 0,-3 6,0 0,3" class="fill-accent"/>
    <polygon points="-6,0 0,-3 6,0 0,3" class="main-line" style="stroke-width:1.5"/>
  </g>
  
  <!-- 开心效果 -->
  <line x1="6" y1="20" x2="4" y2="16" class="thin-line" opacity="0.5"/>
  <line x1="10" y1="18" x2="10" y2="14" class="thin-line" opacity="0.5"/>
  <line x1="58" y1="20" x2="60" y2="16" class="thin-line" opacity="0.5"/>
  <line x1="54" y1="18" x2="54" y2="14" class="thin-line" opacity="0.5"/>
</svg>