<svg xmlns="http://www.w3.org/2000/svg" viewBox="0 0 32 32" width="128" height="128" style="image-rendering: pixelated;">
  <!-- Pet Bird - 小黄鸟风格 32x32 -->
  <!-- 极简眼睛（1x2竖点），头身比约1.5:1 -->
  <!-- 调色板：黄色系+橙色+白色，10色 -->
  
  <!-- 头顶羽毛 -->
  <rect x="15" y="2" width="1" height="1" fill="#FFD040"/>
  <rect x="16" y="2" width="1" height="1" fill="#FFD040"/>
  <rect x="14" y="3" width="1" height="1" fill="#FFE060"/>
  <rect x="15" y="3" width="1" height="1" fill="#FFD040"/>
  <rect x="16" y="3" width="1" height="1" fill="#FFD040"/>
  <rect x="17" y="3" width="1" height="1" fill="#FFE060"/>
  
  <!-- 头部 row4-6 -->
  <rect x="12" y="4" width="1" height="1" fill="#E0B030"/>
  <rect x="13" y="4" width="1" height="1" fill="#FFD040"/>
  <rect x="14" y="4" width="1" height="1" fill="#FFE060"/>
  <rect x="15" y="4" width="1" height="1" fill="#FFE060"/>
  <rect x="16" y="4" width="1" height="1" fill="#FFE060"/>
  <rect x="17" y="4" width="1" height="1" fill="#FFE060"/>
  <rect x="18" y="4" width="1" height="1" fill="#FFD040"/>
  <rect x="19" y="4" width="1" height="1" fill="#E0B030"/>
  
  <rect x="11" y="5" width="1" height="1" fill="#E0B030"/>
  <rect x="12" y="5" width="1" height="1" fill="#FFD040"/>
  <rect x="13" y="5" width="1" height="1" fill="#FFE060"/>
  <rect x="14" y="5" width="1" height="1" fill="#FFE060"/>
  <rect x="15" y="5" width="1" height="1" fill="#FFFFFF"/>
  <rect x="16" y="5" width="1" height="1" fill="#FFFFFF"/>
  <rect x="17" y="5" width="1" height="1" fill="#FFE060"/>
  <rect x="18" y="5" width="1" height="1" fill="#FFE060"/>
  <rect x="19" y="5" width="1" height="1" fill="#FFD040"/>
  <rect x="20" y="5" width="1" height="1" fill="#E0B030"/>
  
  <rect x="10" y="6" width="1" height="1" fill="#E0B030"/>
  <rect x="11" y="6" width="1" height="1" fill="#FFD040"/>
  <rect x="12" y="6" width="1" height="1" fill="#FFE060"/>
  <rect x="13" y="6" width="1" height="1" fill="#FFE060"/>
  <rect x="14" y="6" width="1" height="1" fill="#FFFFFF"/>
  <rect x="15" y="6" width="1" height="1" fill="#FFFFFF"/>
  <rect x="16" y="6" width="1" height="1" fill="#FFFFFF"/>
  <rect x="17" y="6" width="1" height="1" fill="#FFFFFF"/>
  <rect x="18" y="6" width="1" height="1" fill="#FFE060"/>
  <rect x="19" y="6" width="1" height="1" fill="#FFE060"/>
  <rect x="20" y="6" width="1" height="1" fill="#FFD040"/>
  <rect x="21" y="6" width="1" height="1" fill="#E0B030"/>
  
  <!-- row7 眼睛上方 -->
  <rect x="10" y="7" width="1" height="1" fill="#E0B030"/>
  <rect x="11" y="7" width="1" height="1" fill="#FFD040"/>
  <rect x="12" y="7" width="1" height="1" fill="#FFE060"/>
  <rect x="13" y="7" width="1" height="1" fill="#FFE060"/>
  <rect x="14" y="7" width="1" height="1" fill="#FFE060"/>
  <rect x="15" y="7" width="1" height="1" fill="#FFFFFF"/>
  <rect x="16" y="7" width="1" height="1" fill="#FFFFFF"/>
  <rect x="17" y="7" width="1" height="1" fill="#FFE060"/>
  <rect x="18" y="7" width="1" height="1" fill="#FFE060"/>
  <rect x="19" y="7" width="1" height="1" fill="#FFE060"/>
  <rect x="20" y="7" width="1" height="1" fill="#FFD040"/>
  <rect x="21" y="7" width="1" height="1" fill="#E0B030"/>
  
  <!-- row8 眼睛（极简竖点！） -->
  <rect x="10" y="8" width="1" height="1" fill="#E0B030"/>
  <rect x="11" y="8" width="1" height="1" fill="#FFD040"/>
  <rect x="12" y="8" width="1" height="1" fill="#FFE060"/>
  <rect x="13" y="8" width="1" height="1" fill="#2A2A2A"/>
  <rect x="14" y="8" width="1" height="1" fill="#FFE060"/>
  <rect x="15" y="8" width="1" height="1" fill="#FFE060"/>
  <rect x="16" y="8" width="1" height="1" fill="#FFE060"/>
  <rect x="17" y="8" width="1" height="1" fill="#FFE060"/>
  <rect x="18" y="8" width="1" height="1" fill="#2A2A2A"/>
  <rect x="19" y="8" width="1" height="1" fill="#FFE060"/>
  <rect x="20" y="8" width="1" height="1" fill="#FFD040"/>
  <rect x="21" y="8" width="1" height="1" fill="#E0B030"/>
  
  <!-- row9 眼睛下+腮红 -->
  <rect x="10" y="9" width="1" height="1" fill="#E0B030"/>
  <rect x="11" y="9" width="1" height="1" fill="#FFB0C0"/>
  <rect x="12" y="9" width="1" height="1" fill="#FFE060"/>
  <rect x="13" y="9" width="1" height="1" fill="#2A2A2A"/>
  <rect x="14" y="9" width="1" height="1" fill="#FFE060"/>
  <rect x="15" y="9" width="1" height="1" fill="#FFE060"/>
  <rect x="16" y="9" width="1" height="1" fill="#FFE060"/>
  <rect x="17" y="9" width="1" height="1" fill="#FFE060"/>
  <rect x="18" y="9" width="1" height="1" fill="#2A2A2A"/>
  <rect x="19" y="9" width="1" height="1" fill="#FFE060"/>
  <rect x="20" y="9" width="1" height="1" fill="#FFB0C0"/>
  <rect x="21" y="9" width="1" height="1" fill="#E0B030"/>
  
  <!-- row10 嘴喙 -->
  <rect x="10" y="10" width="1" height="1" fill="#E0B030"/>
  <rect x="11" y="10" width="1" height="1" fill="#FFD040"/>
  <rect x="12" y="10" width="1" height="1" fill="#FFE060"/>
  <rect x="13" y="10" width="1" height="1" fill="#FFE060"/>
  <rect x="14" y="10" width="1" height="1" fill="#FF8030"/>
  <rect x="15" y="10" width="1" height="1" fill="#FF8030"/>
  <rect x="16" y="10" width="1" height="1" fill="#FF8030"/>
  <rect x="17" y="10" width="1" height="1" fill="#FF8030"/>
  <rect x="18" y="10" width="1" height="1" fill="#FFE060"/>
  <rect x="19" y="10" width="1" height="1" fill="#FFE060"/>
  <rect x="20" y="10" width="1" height="1" fill="#FFD040"/>
  <rect x="21" y="10" width="1" height="1" fill="#E0B030"/>
  
  <!-- row11 嘴喙下 -->
  <rect x="11" y="11" width="1" height="1" fill="#E0B030"/>
  <rect x="12" y="11" width="1" height="1" fill="#FFD040"/>
  <rect x="13" y="11" width="1" height="1" fill="#FFE060"/>
  <rect x="14" y="11" width="1" height="1" fill="#FFE060"/>
  <rect x="15" y="11" width="1" height="1" fill="#E06020"/>
  <rect x="16" y="11" width="1" height="1" fill="#E06020"/>
  <rect x="17" y="11" width="1" height="1" fill="#FFE060"/>
  <rect x="18" y="11" width="1" height="1" fill="#FFE060"/>
  <rect x="19" y="11" width="1" height="1" fill="#FFD040"/>
  <rect x="20" y="11" width="1" height="1" fill="#E0B030"/>
  
  <!-- 身体 row12-16 -->
  <rect x="11" y="12" width="1" height="1" fill="#E0B030"/>
  <rect x="12" y="12" width="1" height="1" fill="#FFD040"/>
  <rect x="13" y="12" width="1" height="1" fill="#FFE060"/>
  <rect x="14" y="12" width="1" height="1" fill="#FFFFFF"/>
  <rect x="15" y="12" width="1" height="1" fill="#FFFFFF"/>
  <rect x="16" y="12" width="1" height="1" fill="#FFFFFF"/>
  <rect x="17" y="12" width="1" height="1" fill="#FFFFFF"/>
  <rect x="18" y="12" width="1" height="1" fill="#FFE060"/>
  <rect x="19" y="12" width="1" height="1" fill="#FFD040"/>
  <rect x="20" y="12" width="1" height="1" fill="#E0B030"/>
  
  <rect x="11" y="13" width="1" height="1" fill="#E0B030"/>
  <rect x="12" y="13" width="1" height="1" fill="#FFD040"/>
  <rect x="13" y="13" width="1" height="1" fill="#FFE060"/>
  <rect x="14" y="13" width="1" height="1" fill="#FFE060"/>
  <rect x="15" y="13" width="1" height="1" fill="#FFFFFF"/>
  <rect x="16" y="13" width="1" height="1" fill="#FFFFFF"/>
  <rect x="17" y="13" width="1" height="1" fill="#FFE060"/>
  <rect x="18" y="13" width="1" height="1" fill="#FFE060"/>
  <rect x="19" y="13" width="1" height="1" fill="#FFD040"/>
  <rect x="20" y="13" width="1" height="1" fill="#E0B030"/>
  
  <!-- 翅膀 -->
  <rect x="7" y="12" width="1" height="1" fill="#E0B030"/>
  <rect x="8" y="12" width="1" height="1" fill="#FFD040"/>
  <rect x="9" y="12" width="1" height="1" fill="#FFD040"/>
  <rect x="10" y="12" width="1" height="1" fill="#FFE060"/>
  <rect x="6" y="13" width="1" height="1" fill="#E0B030"/>
  <rect x="7" y="13" width="1" height="1" fill="#FFD040"/>
  <rect x="8" y="13" width="1" height="1" fill="#FFE060"/>
  <rect x="9" y="13" width="1" height="1" fill="#FFE060"/>
  <rect x="10" y="13" width="1" height="1" fill="#FFD040"/>
  <rect x="5" y="14" width="1" height="1" fill="#E0B030"/>
  <rect x="6" y="14" width="1" height="1" fill="#FFD040"/>
  <rect x="7" y="14" width="1" height="1" fill="#FFE060"/>
  <rect x="8" y="14" width="1" height="1" fill="#FFD040"/>
  
  <!-- 右翅膀 -->
  <rect x="21" y="12" width="1" height="1" fill="#FFE060"/>
  <rect x="22" y="12" width="1" height="1" fill="#FFD040"/>
  <rect x="23" y="12" width="1" height="1" fill="#FFD040"/>
  <rect x="24" y="12" width="1" height="1" fill="#E0B030"/>
  <rect x="21" y="13" width="1" height="1" fill="#FFD040"/>
  <rect x="22" y="13" width="1" height="1" fill="#FFE060"/>
  <rect x="23" y="13" width="1" height="1" fill="#FFE060"/>
  <rect x="24" y="13" width="1" height="1" fill="#FFD040"/>
  <rect x="25" y="13" width="1" height="1" fill="#E0B030"/>
  <rect x="23" y="14" width="1" height="1" fill="#FFD040"/>
  <rect x="24" y="14" width="1" height="1" fill="#FFE060"/>
  <rect x="25" y="14" width="1" height="1" fill="#FFD040"/>
  <rect x="26" y="14" width="1" height="1" fill="#E0B030"/>
  
  <rect x="12" y="14" width="1" height="1" fill="#E0B030"/>
  <rect x="13" y="14" width="1" height="1" fill="#FFD040"/>
  <rect x="14" y="14" width="1" height="1" fill="#FFE060"/>
  <rect x="15" y="14" width="1" height="1" fill="#FFE060"/>
  <rect x="16" y="14" width="1" height="1" fill="#FFE060"/>
  <rect x="17" y="14" width="1" height="1" fill="#FFE060"/>
  <rect x="18" y="14" width="1" height="1" fill="#FFD040"/>
  <rect x="19" y="14" width="1" height="1" fill="#E0B030"/>
  
  <rect x="13" y="15" width="1" height="1" fill="#E0B030"/>
  <rect x="14" y="15" width="1" height="1" fill="#FFD040"/>
  <rect x="15" y="15" width="1" height="1" fill="#FFE060"/>
  <rect x="16" y="15" width="1" height="1" fill="#FFE060"/>
  <rect x="17" y="15" width="1" height="1" fill="#FFD040"/>
  <rect x="18" y="15" width="1" height="1" fill="#E0B030"/>
  
  <!-- 尾羽 -->
  <rect x="14" y="16" width="1" height="1" fill="#E0B030"/>
  <rect x="15" y="16" width="1" height="1" fill="#FFD040"/>
  <rect x="16" y="16" width="1" height="1" fill="#FFD040"/>
  <rect x="17" y="16" width="1" height="1" fill="#E0B030"/>
  <rect x="13" y="17" width="1" height="1" fill="#E0B030"/>
  <rect x="14" y="17" width="1" height="1" fill="#FFD040"/>
  <rect x="15" y="17" width="1" height="1" fill="#FFE060"/>
  <rect x="16" y="17" width="1" height="1" fill="#FFE060"/>
  <rect x="17" y="17" width="1" height="1" fill="#FFD040"/>
  <rect x="18" y="17" width="1" height="1" fill="#E0B030"/>
  
  <!-- 脚 -->
  <rect x="14" y="18" width="1" height="1" fill="#FF8030"/>
  <rect x="15" y="18" width="1" height="1" fill="#E06020"/>
  <rect x="16" y="18" width="1" height="1" fill="#E06020"/>
  <rect x="17" y="18" width="1" height="1" fill="#FF8030"/>
  
  <rect x="13" y="19" width="1" height="1" fill="#FF8030"/>
  <rect x="14" y="19" width="1" height="1" fill="#FF8030"/>
  <rect x="15" y="19" width="1" height="1" fill="#E06020"/>
  <rect x="16" y="19" width="1" height="1" fill="#E06020"/>
  <rect x="17" y="19" width="1" height="1" fill="#FF8030"/>
  <rect x="18" y="19" width="1" height="1" fill="#FF8030"/>
  
  <!-- 阴影 -->
  <rect x="12" y="20" width="1" height="1" fill="#B09050"/>
  <rect x="13" y="20" width="1" height="1" fill="#B09050"/>
  <rect x="14" y="20" width="1" height="1" fill="#B09050"/>
  <rect x="15" y="20" width="1" height="1" fill="#B09050"/>
  <rect x="16" y="20" width="1" height="1" fill="#B09050"/>
  <rect x="17" y="20" width="1" height="1" fill="#B09050"/>
  <rect x="18" y="20" width="1" height="1" fill="#B09050"/>
  <rect x="19" y="20" width="1" height="1" fill="#B09050"/>
</svg>
