<svg xmlns="http://www.w3.org/2000/svg" viewBox="0 0 32 32" width="128" height="128" style="image-rendering: pixelated;">
  <!-- Pet Energy - 神秘能量体 32x32 -->
  <!-- 极简眼睛（1x2竖点发光），头身比约1.5:1 -->
  <!-- 调色板：紫蓝色+粉红发光+白色核心，12色 -->
  
  <!-- 顶部光晕 -->
  <rect x="14" y="2" width="1" height="1" fill="#D080FF"/>
  <rect x="15" y="2" width="1" height="1" fill="#E0A0FF"/>
  <rect x="16" y="2" width="1" height="1" fill="#E0A0FF"/>
  <rect x="17" y="2" width="1" height="1" fill="#D080FF"/>
  
  <rect x="13" y="3" width="1" height="1" fill="#C060FF"/>
  <rect x="14" y="3" width="1" height="1" fill="#D080FF"/>
  <rect x="15" y="3" width="1" height="1" fill="#E0A0FF"/>
  <rect x="16" y="3" width="1" height="1" fill="#E0A0FF"/>
  <rect x="17" y="3" width="1" height="1" fill="#D080FF"/>
  <rect x="18" y="3" width="1" height="1" fill="#C060FF"/>
  
  <!-- 头部 row4-6 -->
  <rect x="11" y="4" width="1" height="1" fill="#8040C0"/>
  <rect x="12" y="4" width="1" height="1" fill="#A060E0"/>
  <rect x="13" y="4" width="1" height="1" fill="#C080FF"/>
  <rect x="14" y="4" width="1" height="1" fill="#D090FF"/>
  <rect x="15" y="4" width="1" height="1" fill="#E0A0FF"/>
  <rect x="16" y="4" width="1" height="1" fill="#E0A0FF"/>
  <rect x="17" y="4" width="1" height="1" fill="#D090FF"/>
  <rect x="18" y="4" width="1" height="1" fill="#C080FF"/>
  <rect x="19" y="4" width="1" height="1" fill="#A060E0"/>
  <rect x="20" y="4" width="1" height="1" fill="#8040C0"/>
  
  <rect x="10" y="5" width="1" height="1" fill="#6030A0"/>
  <rect x="11" y="5" width="1" height="1" fill="#8050C0"/>
  <rect x="12" y="5" width="1" height="1" fill="#A070E0"/>
  <rect x="13" y="5" width="1" height="1" fill="#C090FF"/>
  <rect x="14" y="5" width="1" height="1" fill="#D0A0FF"/>
  <rect x="15" y="5" width="1" height="1" fill="#FFFFFF"/>
  <rect x="16" y="5" width="1" height="1" fill="#FFFFFF"/>
  <rect x="17" y="5" width="1" height="1" fill="#D0A0FF"/>
  <rect x="18" y="5" width="1" height="1" fill="#C090FF"/>
  <rect x="19" y="5" width="1" height="1" fill="#A070E0"/>
  <rect x="20" y="5" width="1" height="1" fill="#8050C0"/>
  <rect x="21" y="5" width="1" height="1" fill="#6030A0"/>
  
  <rect x="9" y="6" width="1" height="1" fill="#502080"/>
  <rect x="10" y="6" width="1" height="1" fill="#7040B0"/>
  <rect x="11" y="6" width="1" height="1" fill="#9060D0"/>
  <rect x="12" y="6" width="1" height="1" fill="#B080F0"/>
  <rect x="13" y="6" width="1" height="1" fill="#C090FF"/>
  <rect x="14" y="6" width="1" height="1" fill="#E0B0FF"/>
  <rect x="15" y="6" width="1" height="1" fill="#FFFFFF"/>
  <rect x="16" y="6" width="1" height="1" fill="#FFFFFF"/>
  <rect x="17" y="6" width="1" height="1" fill="#E0B0FF"/>
  <rect x="18" y="6" width="1" height="1" fill="#C090FF"/>
  <rect x="19" y="6" width="1" height="1" fill="#B080F0"/>
  <rect x="20" y="6" width="1" height="1" fill="#9060D0"/>
  <rect x="21" y="6" width="1" height="1" fill="#7040B0"/>
  <rect x="22" y="6" width="1" height="1" fill="#502080"/>
  
  <!-- row7 眼睛上方 -->
  <rect x="9" y="7" width="1" height="1" fill="#502080"/>
  <rect x="10" y="7" width="1" height="1" fill="#7040B0"/>
  <rect x="11" y="7" width="1" height="1" fill="#9060D0"/>
  <rect x="12" y="7" width="1" height="1" fill="#B080F0"/>
  <rect x="13" y="7" width="1" height="1" fill="#C090FF"/>
  <rect x="14" y="7" width="1" height="1" fill="#D0A0FF"/>
  <rect x="15" y="7" width="1" height="1" fill="#E0B0FF"/>
  <rect x="16" y="7" width="1" height="1" fill="#E0B0FF"/>
  <rect x="17" y="7" width="1" height="1" fill="#D0A0FF"/>
  <rect x="18" y="7" width="1" height="1" fill="#C090FF"/>
  <rect x="19" y="7" width="1" height="1" fill="#B080F0"/>
  <rect x="20" y="7" width="1" height="1" fill="#9060D0"/>
  <rect x="21" y="7" width="1" height="1" fill="#7040B0"/>
  <rect x="22" y="7" width="1" height="1" fill="#502080"/>
  
  <!-- row8 眼睛（白色发光！） -->
  <rect x="9" y="8" width="1" height="1" fill="#502080"/>
  <rect x="10" y="8" width="1" height="1" fill="#7040B0"/>
  <rect x="11" y="8" width="1" height="1" fill="#9060D0"/>
  <rect x="12" y="8" width="1" height="1" fill="#FFFFFF"/>
  <rect x="13" y="8" width="1" height="1" fill="#C090FF"/>
  <rect x="14" y="8" width="1" height="1" fill="#D0A0FF"/>
  <rect x="15" y="8" width="1" height="1" fill="#E0B0FF"/>
  <rect x="16" y="8" width="1" height="1" fill="#E0B0FF"/>
  <rect x="17" y="8" width="1" height="1" fill="#D0A0FF"/>
  <rect x="18" y="8" width="1" height="1" fill="#C090FF"/>
  <rect x="19" y="8" width="1" height="1" fill="#FFFFFF"/>
  <rect x="20" y="8" width="1" height="1" fill="#9060D0"/>
  <rect x="21" y="8" width="1" height="1" fill="#7040B0"/>
  <rect x="22" y="8" width="1" height="1" fill="#502080"/>
  
  <!-- row9 眼睛下 -->
  <rect x="9" y="9" width="1" height="1" fill="#502080"/>
  <rect x="10" y="9" width="1" height="1" fill="#7040B0"/>
  <rect x="11" y="9" width="1" height="1" fill="#9060D0"/>
  <rect x="12" y="9" width="1" height="1" fill="#FFFFFF"/>
  <rect x="13" y="9" width="1" height="1" fill="#C090FF"/>
  <rect x="14" y="9" width="1" height="1" fill="#D0A0FF"/>
  <rect x="15" y="9" width="1" height="1" fill="#E0B0FF"/>
  <rect x="16" y="9" width="1" height="1" fill="#E0B0FF"/>
  <rect x="17" y="9" width="1" height="1" fill="#D0A0FF"/>
  <rect x="18" y="9" width="1" height="1" fill="#C090FF"/>
  <rect x="19" y="9" width="1" height="1" fill="#FFFFFF"/>
  <rect x="20" y="9" width="1" height="1" fill="#9060D0"/>
  <rect x="21" y="9" width="1" height="1" fill="#7040B0"/>
  <rect x="22" y="9" width="1" height="1" fill="#502080"/>
  
  <!-- row10 嘴巴区域 -->
  <rect x="9" y="10" width="1" height="1" fill="#502080"/>
  <rect x="10" y="10" width="1" height="1" fill="#7040B0"/>
  <rect x="11" y="10" width="1" height="1" fill="#9060D0"/>
  <rect x="12" y="10" width="1" height="1" fill="#B080F0"/>
  <rect x="13" y="10" width="1" height="1" fill="#C090FF"/>
  <rect x="14" y="10" width="1" height="1" fill="#D0A0FF"/>
  <rect x="15" y="10" width="1" height="1" fill="#FF80C0"/>
  <rect x="16" y="10" width="1" height="1" fill="#FF80C0"/>
  <rect x="17" y="10" width="1" height="1" fill="#D0A0FF"/>
  <rect x="18" y="10" width="1" height="1" fill="#C090FF"/>
  <rect x="19" y="10" width="1" height="1" fill="#B080F0"/>
  <rect x="20" y="10" width="1" height="1" fill="#9060D0"/>
  <rect x="21" y="10" width="1" height="1" fill="#7040B0"/>
  <rect x="22" y="10" width="1" height="1" fill="#502080"/>
  
  <!-- row11 下巴 -->
  <rect x="10" y="11" width="1" height="1" fill="#502080"/>
  <rect x="11" y="11" width="1" height="1" fill="#7040B0"/>
  <rect x="12" y="11" width="1" height="1" fill="#9060D0"/>
  <rect x="13" y="11" width="1" height="1" fill="#B080F0"/>
  <rect x="14" y="11" width="1" height="1" fill="#C090FF"/>
  <rect x="15" y="11" width="1" height="1" fill="#D0A0FF"/>
  <rect x="16" y="11" width="1" height="1" fill="#D0A0FF"/>
  <rect x="17" y="11" width="1" height="1" fill="#C090FF"/>
  <rect x="18" y="11" width="1" height="1" fill="#B080F0"/>
  <rect x="19" y="11" width="1" height="1" fill="#9060D0"/>
  <rect x="20" y="11" width="1" height="1" fill="#7040B0"/>
  <rect x="21" y="11" width="1" height="1" fill="#502080"/>
  
  <!-- 身体 row12-16 流动形态 -->
  <rect x="11" y="12" width="1" height="1" fill="#502080"/>
  <rect x="12" y="12" width="1" height="1" fill="#7040B0"/>
  <rect x="13" y="12" width="1" height="1" fill="#9060D0"/>
  <rect x="14" y="12" width="1" height="1" fill="#FFFFFF"/>
  <rect x="15" y="12" width="1" height="1" fill="#C090FF"/>
  <rect x="16" y="12" width="1" height="1" fill="#C090FF"/>
  <rect x="17" y="12" width="1" height="1" fill="#FFFFFF"/>
  <rect x="18" y="12" width="1" height="1" fill="#9060D0"/>
  <rect x="19" y="12" width="1" height="1" fill="#7040B0"/>
  <rect x="20" y="12" width="1" height="1" fill="#502080"/>
  
  <rect x="11" y="13" width="1" height="1" fill="#502080"/>
  <rect x="12" y="13" width="1" height="1" fill="#7040B0"/>
  <rect x="13" y="13" width="1" height="1" fill="#9060D0"/>
  <rect x="14" y="13" width="1" height="1" fill="#B080F0"/>
  <rect x="15" y="13" width="1" height="1" fill="#D0A0FF"/>
  <rect x="16" y="13" width="1" height="1" fill="#D0A0FF"/>
  <rect x="17" y="13" width="1" height="1" fill="#B080F0"/>
  <rect x="18" y="13" width="1" height="1" fill="#9060D0"/>
  <rect x="19" y="13" width="1" height="1" fill="#7040B0"/>
  <rect x="20" y="13" width="1" height="1" fill="#502080"/>
  
  <rect x="12" y="14" width="1" height="1" fill="#502080"/>
  <rect x="13" y="14" width="1" height="1" fill="#7040B0"/>
  <rect x="14" y="14" width="1" height="1" fill="#9060D0"/>
  <rect x="15" y="14" width="1" height="1" fill="#B080F0"/>
  <rect x="16" y="14" width="1" height="1" fill="#B080F0"/>
  <rect x="17" y="14" width="1" height="1" fill="#9060D0"/>
  <rect x="18" y="14" width="1" height="1" fill="#7040B0"/>
  <rect x="19" y="14" width="1" height="1" fill="#502080"/>
  
  <rect x="12" y="15" width="1" height="1" fill="#502080"/>
  <rect x="13" y="15" width="1" height="1" fill="#7040B0"/>
  <rect x="14" y="15" width="1" height="1" fill="#9060D0"/>
  <rect x="15" y="15" width="1" height="1" fill="#B080F0"/>
  <rect x="16" y="15" width="1" height="1" fill="#B080F0"/>
  <rect x="17" y="15" width="1" height="1" fill="#9060D0"/>
  <rect x="18" y="15" width="1" height="1" fill="#7040B0"/>
  <rect x="19" y="15" width="1" height="1" fill="#502080"/>
  
  <!-- 底部能量波纹 -->
  <rect x="10" y="16" width="1" height="1" fill="#4020A0"/>
  <rect x="11" y="16" width="1" height="1" fill="#502080"/>
  <rect x="12" y="16" width="1" height="1" fill="#6030A0"/>
  <rect x="13" y="16" width="1" height="1" fill="#7040B0"/>
  <rect x="14" y="16" width="1" height="1" fill="#8050C0"/>
  <rect x="15" y="16" width="1" height="1" fill="#9060D0"/>
  <rect x="16" y="16" width="1" height="1" fill="#9060D0"/>
  <rect x="17" y="16" width="1" height="1" fill="#8050C0"/>
  <rect x="18" y="16" width="1" height="1" fill="#7040B0"/>
  <rect x="19" y="16" width="1" height="1" fill="#6030A0"/>
  <rect x="20" y="16" width="1" height="1" fill="#502080"/>
  <rect x="21" y="16" width="1" height="1" fill="#4020A0"/>
  
  <rect x="9" y="17" width="1" height="1" fill="#301060"/>
  <rect x="10" y="17" width="1" height="1" fill="#4020A0"/>
  <rect x="11" y="17" width="1" height="1" fill="#502080"/>
  <rect x="12" y="17" width="1" height="1" fill="#6030A0"/>
  <rect x="13" y="17" width="1" height="1" fill="#7040B0"/>
  <rect x="14" y="17" width="1" height="1" fill="#8050C0"/>
  <rect x="15" y="17" width="1" height="1" fill="#9060D0"/>
  <rect x="16" y="17" width="1" height="1" fill="#9060D0"/>
  <rect x="17" y="17" width="1" height="1" fill="#8050C0"/>
  <rect x="18" y="17" width="1" height="1" fill="#7040B0"/>
  <rect x="19" y="17" width="1" height="1" fill="#6030A0"/>
  <rect x="20" y="17" width="1" height="1" fill="#502080"/>
  <rect x="21" y="17" width="1" height="1" fill="#4020A0"/>
  <rect x="22" y="17" width="1" height="1" fill="#301060"/>
  
  <!-- 能量散射粒子 -->
  <rect x="7" y="10" width="1" height="1" fill="#C080FF"/>
  <rect x="24" y="10" width="1" height="1" fill="#C080FF"/>
  <rect x="6" y="13" width="1" height="1" fill="#A060E0"/>
  <rect x="25" y="13" width="1" height="1" fill="#A060E0"/>
  <rect x="8" y="15" width="1" height="1" fill="#8050C0"/>
  <rect x="23" y="15" width="1" height="1" fill="#8050C0"/>
  
  <!-- 阴影（能量光晕） -->
  <rect x="11" y="18" width="1" height="1" fill="#6040B0"/>
  <rect x="12" y="18" width="1" height="1" fill="#6040B0"/>
  <rect x="13" y="18" width="1" height="1" fill="#6040B0"/>
  <rect x="14" y="18" width="1" height="1" fill="#6040B0"/>
  <rect x="15" y="18" width="1" height="1" fill="#6040B0"/>
  <rect x="16" y="18" width="1" height="1" fill="#6040B0"/>
  <rect x="17" y="18" width="1" height="1" fill="#6040B0"/>
  <rect x="18" y="18" width="1" height="1" fill="#6040B0"/>
  <rect x="19" y="18" width="1" height="1" fill="#6040B0"/>
  <rect x="20" y="18" width="1" height="1" fill="#6040B0"/>
</svg>
