<svg xmlns="http://www.w3.org/2000/svg" viewBox="0 0 32 32" width="128" height="128" style="image-rendering: pixelated;">
  <!-- Pet Robot - 可爱机器人 32x32 -->
  <!-- 极简眼睛（1x2竖点发光），头身比约1.5:1 -->
  <!-- 调色板：银灰色+蓝色发光+金属质感，12色 -->
  
  <!-- 天线 -->
  <rect x="15" y="1" width="1" height="1" fill="#60D0FF"/>
  <rect x="16" y="1" width="1" height="1" fill="#60D0FF"/>
  <rect x="15" y="2" width="1" height="1" fill="#505060"/>
  <rect x="16" y="2" width="1" height="1" fill="#505060"/>
  <rect x="15" y="3" width="1" height="1" fill="#606070"/>
  <rect x="16" y="3" width="1" height="1" fill="#606070"/>
  
  <!-- 头部 row4-5 -->
  <rect x="10" y="4" width="1" height="1" fill="#404050"/>
  <rect x="11" y="4" width="1" height="1" fill="#606070"/>
  <rect x="12" y="4" width="1" height="1" fill="#707080"/>
  <rect x="13" y="4" width="1" height="1" fill="#808090"/>
  <rect x="14" y="4" width="1" height="1" fill="#909090"/>
  <rect x="15" y="4" width="1" height="1" fill="#909090"/>
  <rect x="16" y="4" width="1" height="1" fill="#909090"/>
  <rect x="17" y="4" width="1" height="1" fill="#909090"/>
  <rect x="18" y="4" width="1" height="1" fill="#808090"/>
  <rect x="19" y="4" width="1" height="1" fill="#707080"/>
  <rect x="20" y="4" width="1" height="1" fill="#606070"/>
  <rect x="21" y="4" width="1" height="1" fill="#404050"/>
  
  <rect x="9" y="5" width="1" height="1" fill="#404050"/>
  <rect x="10" y="5" width="1" height="1" fill="#606070"/>
  <rect x="11" y="5" width="1" height="1" fill="#808090"/>
  <rect x="12" y="5" width="1" height="1" fill="#909090"/>
  <rect x="13" y="5" width="1" height="1" fill="#A0A0A0"/>
  <rect x="14" y="5" width="1" height="1" fill="#B0B0B0"/>
  <rect x="15" y="5" width="1" height="1" fill="#C0C0C0"/>
  <rect x="16" y="5" width="1" height="1" fill="#C0C0C0"/>
  <rect x="17" y="5" width="1" height="1" fill="#B0B0B0"/>
  <rect x="18" y="5" width="1" height="1" fill="#A0A0A0"/>
  <rect x="19" y="5" width="1" height="1" fill="#909090"/>
  <rect x="20" y="5" width="1" height="1" fill="#808090"/>
  <rect x="21" y="5" width="1" height="1" fill="#606070"/>
  <rect x="22" y="5" width="1" height="1" fill="#404050"/>
  
  <!-- row6 -->
  <rect x="8" y="6" width="1" height="1" fill="#404050"/>
  <rect x="9" y="6" width="1" height="1" fill="#606070"/>
  <rect x="10" y="6" width="1" height="1" fill="#808090"/>
  <rect x="11" y="6" width="1" height="1" fill="#A0A0A0"/>
  <rect x="12" y="6" width="1" height="1" fill="#B0B0B0"/>
  <rect x="13" y="6" width="1" height="1" fill="#C0C0C0"/>
  <rect x="14" y="6" width="1" height="1" fill="#C0C0C0"/>
  <rect x="15" y="6" width="1" height="1" fill="#D0D0D0"/>
  <rect x="16" y="6" width="1" height="1" fill="#D0D0D0"/>
  <rect x="17" y="6" width="1" height="1" fill="#C0C0C0"/>
  <rect x="18" y="6" width="1" height="1" fill="#C0C0C0"/>
  <rect x="19" y="6" width="1" height="1" fill="#B0B0B0"/>
  <rect x="20" y="6" width="1" height="1" fill="#A0A0A0"/>
  <rect x="21" y="6" width="1" height="1" fill="#808090"/>
  <rect x="22" y="6" width="1" height="1" fill="#606070"/>
  <rect x="23" y="6" width="1" height="1" fill="#404050"/>
  
  <!-- row7 眼睛上方 -->
  <rect x="8" y="7" width="1" height="1" fill="#404050"/>
  <rect x="9" y="7" width="1" height="1" fill="#707080"/>
  <rect x="10" y="7" width="1" height="1" fill="#909090"/>
  <rect x="11" y="7" width="1" height="1" fill="#B0B0B0"/>
  <rect x="12" y="7" width="1" height="1" fill="#C0C0C0"/>
  <rect x="13" y="7" width="1" height="1" fill="#C0C0C0"/>
  <rect x="14" y="7" width="1" height="1" fill="#C0C0C0"/>
  <rect x="15" y="7" width="1" height="1" fill="#D0D0D0"/>
  <rect x="16" y="7" width="1" height="1" fill="#D0D0D0"/>
  <rect x="17" y="7" width="1" height="1" fill="#C0C0C0"/>
  <rect x="18" y="7" width="1" height="1" fill="#C0C0C0"/>
  <rect x="19" y="7" width="1" height="1" fill="#C0C0C0"/>
  <rect x="20" y="7" width="1" height="1" fill="#B0B0B0"/>
  <rect x="21" y="7" width="1" height="1" fill="#909090"/>
  <rect x="22" y="7" width="1" height="1" fill="#707080"/>
  <rect x="23" y="7" width="1" height="1" fill="#404050"/>
  
  <!-- row8 眼睛（发光蓝色！） -->
  <rect x="8" y="8" width="1" height="1" fill="#404050"/>
  <rect x="9" y="8" width="1" height="1" fill="#707080"/>
  <rect x="10" y="8" width="1" height="1" fill="#909090"/>
  <rect x="11" y="8" width="1" height="1" fill="#B0B0B0"/>
  <rect x="12" y="8" width="1" height="1" fill="#40B0FF"/>
  <rect x="13" y="8" width="1" height="1" fill="#C0C0C0"/>
  <rect x="14" y="8" width="1" height="1" fill="#C0C0C0"/>
  <rect x="15" y="8" width="1" height="1" fill="#D0D0D0"/>
  <rect x="16" y="8" width="1" height="1" fill="#D0D0D0"/>
  <rect x="17" y="8" width="1" height="1" fill="#C0C0C0"/>
  <rect x="18" y="8" width="1" height="1" fill="#C0C0C0"/>
  <rect x="19" y="8" width="1" height="1" fill="#40B0FF"/>
  <rect x="20" y="8" width="1" height="1" fill="#B0B0B0"/>
  <rect x="21" y="8" width="1" height="1" fill="#909090"/>
  <rect x="22" y="8" width="1" height="1" fill="#707080"/>
  <rect x="23" y="8" width="1" height="1" fill="#404050"/>
  
  <!-- row9 眼睛下 -->
  <rect x="8" y="9" width="1" height="1" fill="#404050"/>
  <rect x="9" y="9" width="1" height="1" fill="#707080"/>
  <rect x="10" y="9" width="1" height="1" fill="#909090"/>
  <rect x="11" y="9" width="1" height="1" fill="#B0B0B0"/>
  <rect x="12" y="9" width="1" height="1" fill="#40B0FF"/>
  <rect x="13" y="9" width="1" height="1" fill="#C0C0C0"/>
  <rect x="14" y="9" width="1" height="1" fill="#C0C0C0"/>
  <rect x="15" y="9" width="1" height="1" fill="#D0D0D0"/>
  <rect x="16" y="9" width="1" height="1" fill="#D0D0D0"/>
  <rect x="17" y="9" width="1" height="1" fill="#C0C0C0"/>
  <rect x="18" y="9" width="1" height="1" fill="#C0C0C0"/>
  <rect x="19" y="9" width="1" height="1" fill="#40B0FF"/>
  <rect x="20" y="9" width="1" height="1" fill="#B0B0B0"/>
  <rect x="21" y="9" width="1" height="1" fill="#909090"/>
  <rect x="22" y="9" width="1" height="1" fill="#707080"/>
  <rect x="23" y="9" width="1" height="1" fill="#404050"/>
  
  <!-- row10 嘴巴指示灯 -->
  <rect x="8" y="10" width="1" height="1" fill="#404050"/>
  <rect x="9" y="10" width="1" height="1" fill="#606070"/>
  <rect x="10" y="10" width="1" height="1" fill="#808090"/>
  <rect x="11" y="10" width="1" height="1" fill="#A0A0A0"/>
  <rect x="12" y="10" width="1" height="1" fill="#B0B0B0"/>
  <rect x="13" y="10" width="1" height="1" fill="#C0C0C0"/>
  <rect x="14" y="10" width="1" height="1" fill="#60D0FF"/>
  <rect x="15" y="10" width="1" height="1" fill="#60D0FF"/>
  <rect x="16" y="10" width="1" height="1" fill="#60D0FF"/>
  <rect x="17" y="10" width="1" height="1" fill="#60D0FF"/>
  <rect x="18" y="10" width="1" height="1" fill="#C0C0C0"/>
  <rect x="19" y="10" width="1" height="1" fill="#B0B0B0"/>
  <rect x="20" y="10" width="1" height="1" fill="#A0A0A0"/>
  <rect x="21" y="10" width="1" height="1" fill="#808090"/>
  <rect x="22" y="10" width="1" height="1" fill="#606070"/>
  <rect x="23" y="10" width="1" height="1" fill="#404050"/>
  
  <!-- row11 下巴 -->
  <rect x="9" y="11" width="1" height="1" fill="#404050"/>
  <rect x="10" y="11" width="1" height="1" fill="#606070"/>
  <rect x="11" y="11" width="1" height="1" fill="#808090"/>
  <rect x="12" y="11" width="1" height="1" fill="#909090"/>
  <rect x="13" y="11" width="1" height="1" fill="#A0A0A0"/>
  <rect x="14" y="11" width="1" height="1" fill="#B0B0B0"/>
  <rect x="15" y="11" width="1" height="1" fill="#C0C0C0"/>
  <rect x="16" y="11" width="1" height="1" fill="#C0C0C0"/>
  <rect x="17" y="11" width="1" height="1" fill="#B0B0B0"/>
  <rect x="18" y="11" width="1" height="1" fill="#A0A0A0"/>
  <rect x="19" y="11" width="1" height="1" fill="#909090"/>
  <rect x="20" y="11" width="1" height="1" fill="#808090"/>
  <rect x="21" y="11" width="1" height="1" fill="#606070"/>
  <rect x="22" y="11" width="1" height="1" fill="#404050"/>
  
  <!-- row12 脖子 -->
  <rect x="11" y="12" width="1" height="1" fill="#404050"/>
  <rect x="12" y="12" width="1" height="1" fill="#505060"/>
  <rect x="13" y="12" width="1" height="1" fill="#606070"/>
  <rect x="14" y="12" width="1" height="1" fill="#707080"/>
  <rect x="15" y="12" width="1" height="1" fill="#808090"/>
  <rect x="16" y="12" width="1" height="1" fill="#808090"/>
  <rect x="17" y="12" width="1" height="1" fill="#707080"/>
  <rect x="18" y="12" width="1" height="1" fill="#606070"/>
  <rect x="19" y="12" width="1" height="1" fill="#505060"/>
  <rect x="20" y="12" width="1" height="1" fill="#404050"/>
  
  <!-- 身体 row13-17 -->
  <rect x="10" y="13" width="1" height="1" fill="#404050"/>
  <rect x="11" y="13" width="1" height="1" fill="#606070"/>
  <rect x="12" y="13" width="1" height="1" fill="#808090"/>
  <rect x="13" y="13" width="1" height="1" fill="#909090"/>
  <rect x="14" y="13" width="1" height="1" fill="#60D0FF"/>
  <rect x="15" y="13" width="1" height="1" fill="#A0A0A0"/>
  <rect x="16" y="13" width="1" height="1" fill="#A0A0A0"/>
  <rect x="17" y="13" width="1" height="1" fill="#60D0FF"/>
  <rect x="18" y="13" width="1" height="1" fill="#909090"/>
  <rect x="19" y="13" width="1" height="1" fill="#808090"/>
  <rect x="20" y="13" width="1" height="1" fill="#606070"/>
  <rect x="21" y="13" width="1" height="1" fill="#404050"/>
  
  <rect x="10" y="14" width="1" height="1" fill="#404050"/>
  <rect x="11" y="14" width="1" height="1" fill="#606070"/>
  <rect x="12" y="14" width="1" height="1" fill="#808090"/>
  <rect x="13" y="14" width="1" height="1" fill="#909090"/>
  <rect x="14" y="14" width="1" height="1" fill="#A0A0A0"/>
  <rect x="15" y="14" width="1" height="1" fill="#B0B0B0"/>
  <rect x="16" y="14" width="1" height="1" fill="#B0B0B0"/>
  <rect x="17" y="14" width="1" height="1" fill="#A0A0A0"/>
  <rect x="18" y="14" width="1" height="1" fill="#909090"/>
  <rect x="19" y="14" width="1" height="1" fill="#808090"/>
  <rect x="20" y="14" width="1" height="1" fill="#606070"/>
  <rect x="21" y="14" width="1" height="1" fill="#404050"/>
  
  <rect x="10" y="15" width="1" height="1" fill="#404050"/>
  <rect x="11" y="15" width="1" height="1" fill="#606070"/>
  <rect x="12" y="15" width="1" height="1" fill="#707080"/>
  <rect x="13" y="15" width="1" height="1" fill="#808090"/>
  <rect x="14" y="15" width="1" height="1" fill="#909090"/>
  <rect x="15" y="15" width="1" height="1" fill="#A0A0A0"/>
  <rect x="16" y="15" width="1" height="1" fill="#A0A0A0"/>
  <rect x="17" y="15" width="1" height="1" fill="#909090"/>
  <rect x="18" y="15" width="1" height="1" fill="#808090"/>
  <rect x="19" y="15" width="1" height="1" fill="#707080"/>
  <rect x="20" y="15" width="1" height="1" fill="#606070"/>
  <rect x="21" y="15" width="1" height="1" fill="#404050"/>
  
  <rect x="10" y="16" width="1" height="1" fill="#404050"/>
  <rect x="11" y="16" width="1" height="1" fill="#505060"/>
  <rect x="12" y="16" width="1" height="1" fill="#606070"/>
  <rect x="13" y="16" width="1" height="1" fill="#707080"/>
  <rect x="14" y="16" width="1" height="1" fill="#808090"/>
  <rect x="15" y="16" width="1" height="1" fill="#909090"/>
  <rect x="16" y="16" width="1" height="1" fill="#909090"/>
  <rect x="17" y="16" width="1" height="1" fill="#808090"/>
  <rect x="18" y="16" width="1" height="1" fill="#707080"/>
  <rect x="19" y="16" width="1" height="1" fill="#606070"/>
  <rect x="20" y="16" width="1" height="1" fill="#505060"/>
  <rect x="21" y="16" width="1" height="1" fill="#404050"/>
  
  <!-- 腿 row17-19 -->
  <rect x="11" y="17" width="1" height="1" fill="#404050"/>
  <rect x="12" y="17" width="1" height="1" fill="#505060"/>
  <rect x="13" y="17" width="1" height="1" fill="#606070"/>
  <rect x="14" y="17" width="1" height="1" fill="#707080"/>
  <rect x="17" y="17" width="1" height="1" fill="#707080"/>
  <rect x="18" y="17" width="1" height="1" fill="#606070"/>
  <rect x="19" y="17" width="1" height="1" fill="#505060"/>
  <rect x="20" y="17" width="1" height="1" fill="#404050"/>
  
  <rect x="11" y="18" width="1" height="1" fill="#404050"/>
  <rect x="12" y="18" width="1" height="1" fill="#505060"/>
  <rect x="13" y="18" width="1" height="1" fill="#606070"/>
  <rect x="14" y="18" width="1" height="1" fill="#707080"/>
  <rect x="17" y="18" width="1" height="1" fill="#707080"/>
  <rect x="18" y="18" width="1" height="1" fill="#606070"/>
  <rect x="19" y="18" width="1" height="1" fill="#505060"/>
  <rect x="20" y="18" width="1" height="1" fill="#404050"/>
  
  <!-- 脚 row19 -->
  <rect x="10" y="19" width="1" height="1" fill="#404050"/>
  <rect x="11" y="19" width="1" height="1" fill="#505060"/>
  <rect x="12" y="19" width="1" height="1" fill="#606070"/>
  <rect x="13" y="19" width="1" height="1" fill="#707080"/>
  <rect x="14" y="19" width="1" height="1" fill="#808090"/>
  <rect x="17" y="19" width="1" height="1" fill="#808090"/>
  <rect x="18" y="19" width="1" height="1" fill="#707080"/>
  <rect x="19" y="19" width="1" height="1" fill="#606070"/>
  <rect x="20" y="19" width="1" height="1" fill="#505060"/>
  <rect x="21" y="19" width="1" height="1" fill="#404050"/>
  
  <!-- 阴影 -->
  <rect x="10" y="20" width="1" height="1" fill="#303040"/>
  <rect x="11" y="20" width="1" height="1" fill="#303040"/>
  <rect x="12" y="20" width="1" height="1" fill="#303040"/>
  <rect x="13" y="20" width="1" height="1" fill="#303040"/>
  <rect x="14" y="20" width="1" height="1" fill="#303040"/>
  <rect x="17" y="20" width="1" height="1" fill="#303040"/>
  <rect x="18" y="20" width="1" height="1" fill="#303040"/>
  <rect x="19" y="20" width="1" height="1" fill="#303040"/>
  <rect x="20" y="20" width="1" height="1" fill="#303040"/>
  <rect x="21" y="20" width="1" height="1" fill="#303040"/>
</svg>
