<svg xmlns="http://www.w3.org/2000/svg" viewBox="0 0 32 32" width="128" height="128" style="image-rendering: pixelated;">
  <!-- Pet Slime - Q弹史莱姆 32x32 -->
  <!-- 极简眼睛（1x2竖点），头身比约1.5:1 -->
  <!-- 调色板：蓝绿色+白色高光，10色 -->
  
  <!-- 顶部高光 -->
  <rect x="14" y="4" width="1" height="1" fill="#80E0F0"/>
  <rect x="15" y="4" width="1" height="1" fill="#A0F0FF"/>
  <rect x="16" y="4" width="1" height="1" fill="#A0F0FF"/>
  <rect x="17" y="4" width="1" height="1" fill="#80E0F0"/>
  
  <!-- 头部 row5-6 -->
  <rect x="11" y="5" width="1" height="1" fill="#40A0C0"/>
  <rect x="12" y="5" width="1" height="1" fill="#50B0D0"/>
  <rect x="13" y="5" width="1" height="1" fill="#60C0E0"/>
  <rect x="14" y="5" width="1" height="1" fill="#80E0F0"/>
  <rect x="15" y="5" width="1" height="1" fill="#FFFFFF"/>
  <rect x="16" y="5" width="1" height="1" fill="#FFFFFF"/>
  <rect x="17" y="5" width="1" height="1" fill="#80E0F0"/>
  <rect x="18" y="5" width="1" height="1" fill="#60C0E0"/>
  <rect x="19" y="5" width="1" height="1" fill="#50B0D0"/>
  <rect x="20" y="5" width="1" height="1" fill="#40A0C0"/>
  
  <rect x="9" y="6" width="1" height="1" fill="#3090B0"/>
  <rect x="10" y="6" width="1" height="1" fill="#40A0C0"/>
  <rect x="11" y="6" width="1" height="1" fill="#50B0D0"/>
  <rect x="12" y="6" width="1" height="1" fill="#60C0E0"/>
  <rect x="13" y="6" width="1" height="1" fill="#70D0F0"/>
  <rect x="14" y="6" width="1" height="1" fill="#90E0FF"/>
  <rect x="15" y="6" width="1" height="1" fill="#FFFFFF"/>
  <rect x="16" y="6" width="1" height="1" fill="#FFFFFF"/>
  <rect x="17" y="6" width="1" height="1" fill="#90E0FF"/>
  <rect x="18" y="6" width="1" height="1" fill="#70D0F0"/>
  <rect x="19" y="6" width="1" height="1" fill="#60C0E0"/>
  <rect x="20" y="6" width="1" height="1" fill="#50B0D0"/>
  <rect x="21" y="6" width="1" height="1" fill="#40A0C0"/>
  <rect x="22" y="6" width="1" height="1" fill="#3090B0"/>
  
  <!-- row7 -->
  <rect x="8" y="7" width="1" height="1" fill="#2080A0"/>
  <rect x="9" y="7" width="1" height="1" fill="#3090B0"/>
  <rect x="10" y="7" width="1" height="1" fill="#40A0C0"/>
  <rect x="11" y="7" width="1" height="1" fill="#50B0D0"/>
  <rect x="12" y="7" width="1" height="1" fill="#60C0E0"/>
  <rect x="13" y="7" width="1" height="1" fill="#70D0F0"/>
  <rect x="14" y="7" width="1" height="1" fill="#80E0F0"/>
  <rect x="15" y="7" width="1" height="1" fill="#90E0FF"/>
  <rect x="16" y="7" width="1" height="1" fill="#90E0FF"/>
  <rect x="17" y="7" width="1" height="1" fill="#80E0F0"/>
  <rect x="18" y="7" width="1" height="1" fill="#70D0F0"/>
  <rect x="19" y="7" width="1" height="1" fill="#60C0E0"/>
  <rect x="20" y="7" width="1" height="1" fill="#50B0D0"/>
  <rect x="21" y="7" width="1" height="1" fill="#40A0C0"/>
  <rect x="22" y="7" width="1" height="1" fill="#3090B0"/>
  <rect x="23" y="7" width="1" height="1" fill="#2080A0"/>
  
  <!-- row8 眼睛（极简竖点！） -->
  <rect x="8" y="8" width="1" height="1" fill="#2080A0"/>
  <rect x="9" y="8" width="1" height="1" fill="#3090B0"/>
  <rect x="10" y="8" width="1" height="1" fill="#40A0C0"/>
  <rect x="11" y="8" width="1" height="1" fill="#50B0D0"/>
  <rect x="12" y="8" width="1" height="1" fill="#2A2A2A"/>
  <rect x="13" y="8" width="1" height="1" fill="#70D0F0"/>
  <rect x="14" y="8" width="1" height="1" fill="#80E0F0"/>
  <rect x="15" y="8" width="1" height="1" fill="#90E0FF"/>
  <rect x="16" y="8" width="1" height="1" fill="#90E0FF"/>
  <rect x="17" y="8" width="1" height="1" fill="#80E0F0"/>
  <rect x="18" y="8" width="1" height="1" fill="#70D0F0"/>
  <rect x="19" y="8" width="1" height="1" fill="#2A2A2A"/>
  <rect x="20" y="8" width="1" height="1" fill="#50B0D0"/>
  <rect x="21" y="8" width="1" height="1" fill="#40A0C0"/>
  <rect x="22" y="8" width="1" height="1" fill="#3090B0"/>
  <rect x="23" y="8" width="1" height="1" fill="#2080A0"/>
  
  <!-- row9 眼睛下+腮红 -->
  <rect x="8" y="9" width="1" height="1" fill="#2080A0"/>
  <rect x="9" y="9" width="1" height="1" fill="#3090B0"/>
  <rect x="10" y="9" width="1" height="1" fill="#FFB0C0"/>
  <rect x="11" y="9" width="1" height="1" fill="#50B0D0"/>
  <rect x="12" y="9" width="1" height="1" fill="#2A2A2A"/>
  <rect x="13" y="9" width="1" height="1" fill="#70D0F0"/>
  <rect x="14" y="9" width="1" height="1" fill="#80E0F0"/>
  <rect x="15" y="9" width="1" height="1" fill="#90E0FF"/>
  <rect x="16" y="9" width="1" height="1" fill="#90E0FF"/>
  <rect x="17" y="9" width="1" height="1" fill="#80E0F0"/>
  <rect x="18" y="9" width="1" height="1" fill="#70D0F0"/>
  <rect x="19" y="9" width="1" height="1" fill="#2A2A2A"/>
  <rect x="20" y="9" width="1" height="1" fill="#50B0D0"/>
  <rect x="21" y="9" width="1" height="1" fill="#FFB0C0"/>
  <rect x="22" y="9" width="1" height="1" fill="#3090B0"/>
  <rect x="23" y="9" width="1" height="1" fill="#2080A0"/>
  
  <!-- row10 嘴巴 -->
  <rect x="8" y="10" width="1" height="1" fill="#2080A0"/>
  <rect x="9" y="10" width="1" height="1" fill="#3090B0"/>
  <rect x="10" y="10" width="1" height="1" fill="#40A0C0"/>
  <rect x="11" y="10" width="1" height="1" fill="#50B0D0"/>
  <rect x="12" y="10" width="1" height="1" fill="#60C0E0"/>
  <rect x="13" y="10" width="1" height="1" fill="#70D0F0"/>
  <rect x="14" y="10" width="1" height="1" fill="#80E0F0"/>
  <rect x="15" y="10" width="1" height="1" fill="#3090B0"/>
  <rect x="16" y="10" width="1" height="1" fill="#3090B0"/>
  <rect x="17" y="10" width="1" height="1" fill="#80E0F0"/>
  <rect x="18" y="10" width="1" height="1" fill="#70D0F0"/>
  <rect x="19" y="10" width="1" height="1" fill="#60C0E0"/>
  <rect x="20" y="10" width="1" height="1" fill="#50B0D0"/>
  <rect x="21" y="10" width="1" height="1" fill="#40A0C0"/>
  <rect x="22" y="10" width="1" height="1" fill="#3090B0"/>
  <rect x="23" y="10" width="1" height="1" fill="#2080A0"/>
  
  <!-- row11 微笑 -->
  <rect x="8" y="11" width="1" height="1" fill="#2080A0"/>
  <rect x="9" y="11" width="1" height="1" fill="#3090B0"/>
  <rect x="10" y="11" width="1" height="1" fill="#40A0C0"/>
  <rect x="11" y="11" width="1" height="1" fill="#50B0D0"/>
  <rect x="12" y="11" width="1" height="1" fill="#60C0E0"/>
  <rect x="13" y="11" width="1" height="1" fill="#70D0F0"/>
  <rect x="14" y="11" width="1" height="1" fill="#3090B0"/>
  <rect x="15" y="11" width="1" height="1" fill="#70D0F0"/>
  <rect x="16" y="11" width="1" height="1" fill="#70D0F0"/>
  <rect x="17" y="11" width="1" height="1" fill="#3090B0"/>
  <rect x="18" y="11" width="1" height="1" fill="#70D0F0"/>
  <rect x="19" y="11" width="1" height="1" fill="#60C0E0"/>
  <rect x="20" y="11" width="1" height="1" fill="#50B0D0"/>
  <rect x="21" y="11" width="1" height="1" fill="#40A0C0"/>
  <rect x="22" y="11" width="1" height="1" fill="#3090B0"/>
  <rect x="23" y="11" width="1" height="1" fill="#2080A0"/>
  
  <!-- 身体 row12-15 -->
  <rect x="8" y="12" width="1" height="1" fill="#2080A0"/>
  <rect x="9" y="12" width="1" height="1" fill="#3090B0"/>
  <rect x="10" y="12" width="1" height="1" fill="#40A0C0"/>
  <rect x="11" y="12" width="1" height="1" fill="#50B0D0"/>
  <rect x="12" y="12" width="1" height="1" fill="#60C0E0"/>
  <rect x="13" y="12" width="1" height="1" fill="#70D0F0"/>
  <rect x="14" y="12" width="1" height="1" fill="#80E0F0"/>
  <rect x="15" y="12" width="1" height="1" fill="#90E0FF"/>
  <rect x="16" y="12" width="1" height="1" fill="#90E0FF"/>
  <rect x="17" y="12" width="1" height="1" fill="#80E0F0"/>
  <rect x="18" y="12" width="1" height="1" fill="#70D0F0"/>
  <rect x="19" y="12" width="1" height="1" fill="#60C0E0"/>
  <rect x="20" y="12" width="1" height="1" fill="#50B0D0"/>
  <rect x="21" y="12" width="1" height="1" fill="#40A0C0"/>
  <rect x="22" y="12" width="1" height="1" fill="#3090B0"/>
  <rect x="23" y="12" width="1" height="1" fill="#2080A0"/>
  
  <rect x="7" y="13" width="1" height="1" fill="#107090"/>
  <rect x="8" y="13" width="1" height="1" fill="#2080A0"/>
  <rect x="9" y="13" width="1" height="1" fill="#3090B0"/>
  <rect x="10" y="13" width="1" height="1" fill="#40A0C0"/>
  <rect x="11" y="13" width="1" height="1" fill="#50B0D0"/>
  <rect x="12" y="13" width="1" height="1" fill="#60C0E0"/>
  <rect x="13" y="13" width="1" height="1" fill="#70D0F0"/>
  <rect x="14" y="13" width="1" height="1" fill="#80E0F0"/>
  <rect x="15" y="13" width="1" height="1" fill="#90E0FF"/>
  <rect x="16" y="13" width="1" height="1" fill="#90E0FF"/>
  <rect x="17" y="13" width="1" height="1" fill="#80E0F0"/>
  <rect x="18" y="13" width="1" height="1" fill="#70D0F0"/>
  <rect x="19" y="13" width="1" height="1" fill="#60C0E0"/>
  <rect x="20" y="13" width="1" height="1" fill="#50B0D0"/>
  <rect x="21" y="13" width="1" height="1" fill="#40A0C0"/>
  <rect x="22" y="13" width="1" height="1" fill="#3090B0"/>
  <rect x="23" y="13" width="1" height="1" fill="#2080A0"/>
  <rect x="24" y="13" width="1" height="1" fill="#107090"/>
  
  <rect x="6" y="14" width="1" height="1" fill="#106080"/>
  <rect x="7" y="14" width="1" height="1" fill="#107090"/>
  <rect x="8" y="14" width="1" height="1" fill="#2080A0"/>
  <rect x="9" y="14" width="1" height="1" fill="#3090B0"/>
  <rect x="10" y="14" width="1" height="1" fill="#40A0C0"/>
  <rect x="11" y="14" width="1" height="1" fill="#50B0D0"/>
  <rect x="12" y="14" width="1" height="1" fill="#60C0E0"/>
  <rect x="13" y="14" width="1" height="1" fill="#70D0F0"/>
  <rect x="14" y="14" width="1" height="1" fill="#80E0F0"/>
  <rect x="15" y="14" width="1" height="1" fill="#90E0FF"/>
  <rect x="16" y="14" width="1" height="1" fill="#90E0FF"/>
  <rect x="17" y="14" width="1" height="1" fill="#80E0F0"/>
  <rect x="18" y="14" width="1" height="1" fill="#70D0F0"/>
  <rect x="19" y="14" width="1" height="1" fill="#60C0E0"/>
  <rect x="20" y="14" width="1" height="1" fill="#50B0D0"/>
  <rect x="21" y="14" width="1" height="1" fill="#40A0C0"/>
  <rect x="22" y="14" width="1" height="1" fill="#3090B0"/>
  <rect x="23" y="14" width="1" height="1" fill="#2080A0"/>
  <rect x="24" y="14" width="1" height="1" fill="#107090"/>
  <rect x="25" y="14" width="1" height="1" fill="#106080"/>
  
  <!-- 底部（扁平底座） -->
  <rect x="6" y="15" width="1" height="1" fill="#106080"/>
  <rect x="7" y="15" width="1" height="1" fill="#107090"/>
  <rect x="8" y="15" width="1" height="1" fill="#2080A0"/>
  <rect x="9" y="15" width="1" height="1" fill="#3090B0"/>
  <rect x="10" y="15" width="1" height="1" fill="#40A0C0"/>
  <rect x="11" y="15" width="1" height="1" fill="#50B0D0"/>
  <rect x="12" y="15" width="1" height="1" fill="#60C0E0"/>
  <rect x="13" y="15" width="1" height="1" fill="#70D0F0"/>
  <rect x="14" y="15" width="1" height="1" fill="#70D0F0"/>
  <rect x="15" y="15" width="1" height="1" fill="#80E0F0"/>
  <rect x="16" y="15" width="1" height="1" fill="#80E0F0"/>
  <rect x="17" y="15" width="1" height="1" fill="#70D0F0"/>
  <rect x="18" y="15" width="1" height="1" fill="#70D0F0"/>
  <rect x="19" y="15" width="1" height="1" fill="#60C0E0"/>
  <rect x="20" y="15" width="1" height="1" fill="#50B0D0"/>
  <rect x="21" y="15" width="1" height="1" fill="#40A0C0"/>
  <rect x="22" y="15" width="1" height="1" fill="#3090B0"/>
  <rect x="23" y="15" width="1" height="1" fill="#2080A0"/>
  <rect x="24" y="15" width="1" height="1" fill="#107090"/>
  <rect x="25" y="15" width="1" height="1" fill="#106080"/>
  
  <rect x="7" y="16" width="1" height="1" fill="#106080"/>
  <rect x="8" y="16" width="1" height="1" fill="#107090"/>
  <rect x="9" y="16" width="1" height="1" fill="#2080A0"/>
  <rect x="10" y="16" width="1" height="1" fill="#3090B0"/>
  <rect x="11" y="16" width="1" height="1" fill="#40A0C0"/>
  <rect x="12" y="16" width="1" height="1" fill="#50B0D0"/>
  <rect x="13" y="16" width="1" height="1" fill="#60C0E0"/>
  <rect x="14" y="16" width="1" height="1" fill="#60C0E0"/>
  <rect x="15" y="16" width="1" height="1" fill="#70D0F0"/>
  <rect x="16" y="16" width="1" height="1" fill="#70D0F0"/>
  <rect x="17" y="16" width="1" height="1" fill="#60C0E0"/>
  <rect x="18" y="16" width="1" height="1" fill="#60C0E0"/>
  <rect x="19" y="16" width="1" height="1" fill="#50B0D0"/>
  <rect x="20" y="16" width="1" height="1" fill="#40A0C0"/>
  <rect x="21" y="16" width="1" height="1" fill="#3090B0"/>
  <rect x="22" y="16" width="1" height="1" fill="#2080A0"/>
  <rect x="23" y="16" width="1" height="1" fill="#107090"/>
  <rect x="24" y="16" width="1" height="1" fill="#106080"/>
  
  <!-- 阴影 -->
  <rect x="8" y="17" width="1" height="1" fill="#206080"/>
  <rect x="9" y="17" width="1" height="1" fill="#206080"/>
  <rect x="10" y="17" width="1" height="1" fill="#206080"/>
  <rect x="11" y="17" width="1" height="1" fill="#206080"/>
  <rect x="12" y="17" width="1" height="1" fill="#206080"/>
  <rect x="13" y="17" width="1" height="1" fill="#206080"/>
  <rect x="14" y="17" width="1" height="1" fill="#206080"/>
  <rect x="15" y="17" width="1" height="1" fill="#206080"/>
  <rect x="16" y="17" width="1" height="1" fill="#206080"/>
  <rect x="17" y="17" width="1" height="1" fill="#206080"/>
  <rect x="18" y="17" width="1" height="1" fill="#206080"/>
  <rect x="19" y="17" width="1" height="1" fill="#206080"/>
  <rect x="20" y="17" width="1" height="1" fill="#206080"/>
  <rect x="21" y="17" width="1" height="1" fill="#206080"/>
  <rect x="22" y="17" width="1" height="1" fill="#206080"/>
  <rect x="23" y="17" width="1" height="1" fill="#206080"/>
</svg>
