<svg xmlns="http://www.w3.org/2000/svg" viewBox="0 0 32 32" width="128" height="128" style="image-rendering: pixelated;">
  <!-- Spirit Happy Frame 1 - 开心飞舞 -->
  
  <!-- 头顶星星（超亮） -->
  <rect x="14" y="0" width="4" height="1" fill="#FFFFFF"/>
  <rect x="13" y="1" width="6" height="1" fill="#FFFFFF"/>
  <rect x="14" y="2" width="4" height="1" fill="#FFF080"/>
  <rect x="15" y="3" width="2" height="1" fill="#FFE040"/>
  
  <!-- 头部 -->
  <rect x="10" y="4" width="12" height="1" fill="#D0E0FF"/>
  <rect x="8" y="5" width="16" height="1" fill="#C0D0FF"/>
  <rect x="14" y="5" width="4" height="1" fill="#FFFFFF"/>
  <rect x="7" y="6" width="18" height="1" fill="#B0C0FF"/>
  
  <!-- 眼睛（弯弯笑眼） -->
  <rect x="7" y="7" width="18" height="2" fill="#A0B0F0"/>
  <rect x="10" y="7" width="4" height="1" fill="#FFE040"/>
  <rect x="18" y="7" width="4" height="1" fill="#FFE040"/>
  <rect x="11" y="8" width="2" height="1" fill="#FFE040"/>
  <rect x="19" y="8" width="2" height="1" fill="#FFE040"/>
  <rect x="8" y="8" width="1" height="1" fill="#FFB0C0"/>
  <rect x="23" y="8" width="1" height="1" fill="#FFB0C0"/>
  
  <!-- 嘴（大笑） -->
  <rect x="7" y="9" width="18" height="1" fill="#90A0E0"/>
  <rect x="13" y="9" width="6" height="1" fill="#FFC0D0"/>
  
  <!-- 翅膀（大展） -->
  <rect x="2" y="6" width="4" height="1" fill="#FFFFFF"/>
  <rect x="1" y="7" width="5" height="1" fill="#FFFFFF"/>
  <rect x="2" y="8" width="4" height="1" fill="#E0F0FF"/>
  <rect x="3" y="9" width="3" height="1" fill="#D0E0FF"/>
  
  <rect x="26" y="6" width="4" height="1" fill="#FFFFFF"/>
  <rect x="26" y="7" width="5" height="1" fill="#FFFFFF"/>
  <rect x="26" y="8" width="4" height="1" fill="#E0F0FF"/>
  <rect x="26" y="9" width="3" height="1" fill="#D0E0FF"/>
  
  <!-- 身体 -->
  <rect x="8" y="10" width="16" height="1" fill="#8090D0"/>
  <rect x="10" y="11" width="12" height="1" fill="#7080C0"/>
  <rect x="11" y="12" width="10" height="1" fill="#6070B0"/>
  <rect x="12" y="13" width="8" height="1" fill="#5060A0"/>
  
  <!-- 魔法光点（爆发） -->
  <rect x="4" y="3" width="1" height="1" fill="#FFFFFF"/>
  <rect x="27" y="3" width="1" height="1" fill="#FFFFFF"/>
  <rect x="2" y="10" width="1" height="1" fill="#FFE080"/>
  <rect x="29" y="10" width="1" height="1" fill="#FFE080"/>
  <rect x="6" y="14" width="1" height="1" fill="#FFD060"/>
  <rect x="25" y="14" width="1" height="1" fill="#FFD060"/>
</svg>
