<svg xmlns="http://www.w3.org/2000/svg" viewBox="0 0 8 8" width="8" height="8" style="image-rendering: pixelated;">
  <!-- Water Drop Particle 8x8 -->
  <rect x="3" y="0" width="1" height="1" fill="#80C0FF"/>
  
  <rect x="3" y="1" width="1" height="1" fill="#A0D0FF"/>
  <rect x="4" y="1" width="1" height="1" fill="#80C0FF"/>
  
  <rect x="2" y="2" width="1" height="1" fill="#80C0FF"/>
  <rect x="3" y="2" width="1" height="1" fill="#FFFFFF"/>
  <rect x="4" y="2" width="1" height="1" fill="#A0D0FF"/>
  <rect x="5" y="2" width="1" height="1" fill="#80C0FF"/>
  
  <rect x="2" y="3" width="1" height="1" fill="#60A0E0"/>
  <rect x="3" y="3" width="1" height="1" fill="#A0D0FF"/>
  <rect x="4" y="3" width="1" height="1" fill="#80C0FF"/>
  <rect x="5" y="3" width="1" height="1" fill="#60A0E0"/>
  
  <rect x="2" y="4" width="1" height="1" fill="#4080C0"/>
  <rect x="3" y="4" width="1" height="1" fill="#80C0FF"/>
  <rect x="4" y="4" width="1" height="1" fill="#60A0E0"/>
  <rect x="5" y="4" width="1" height="1" fill="#4080C0"/>
  
  <rect x="2" y="5" width="1" height="1" fill="#4080C0"/>
  <rect x="3" y="5" width="1" height="1" fill="#60A0E0"/>
  <rect x="4" y="5" width="1" height="1" fill="#4080C0"/>
  <rect x="5" y="5" width="1" height="1" fill="#4080C0"/>
  
  <rect x="3" y="6" width="1" height="1" fill="#4080C0"/>
  <rect x="4" y="6" width="1" height="1" fill="#306090"/>
  
  <rect x="3" y="7" width="1" height="1" fill="#306090"/>
</svg>
