<svg xmlns="http://www.w3.org/2000/svg" viewBox="0 0 16 16" width="16" height="16" style="image-rendering: pixelated;">
  <!-- Heart Particle 16x16 -->
  <rect x="3" y="2" width="2" height="1" fill="#FF6B8A"/>
  <rect x="9" y="2" width="2" height="1" fill="#FF6B8A"/>
  
  <rect x="2" y="3" width="1" height="1" fill="#FF6B8A"/>
  <rect x="3" y="3" width="1" height="1" fill="#FFAABB"/>
  <rect x="4" y="3" width="1" height="1" fill="#FF8899"/>
  <rect x="5" y="3" width="1" height="1" fill="#FF6B8A"/>
  <rect x="8" y="3" width="1" height="1" fill="#FF6B8A"/>
  <rect x="9" y="3" width="1" height="1" fill="#FFAABB"/>
  <rect x="10" y="3" width="1" height="1" fill="#FF8899"/>
  <rect x="11" y="3" width="1" height="1" fill="#FF6B8A"/>
  
  <rect x="1" y="4" width="1" height="1" fill="#FF6B8A"/>
  <rect x="2" y="4" width="1" height="1" fill="#FFAABB"/>
  <rect x="3" y="4" width="1" height="1" fill="#FFFFFF"/>
  <rect x="4" y="4" width="1" height="1" fill="#FFAABB"/>
  <rect x="5" y="4" width="1" height="1" fill="#FF8899"/>
  <rect x="6" y="4" width="1" height="1" fill="#FF6B8A"/>
  <rect x="7" y="4" width="1" height="1" fill="#FF6B8A"/>
  <rect x="8" y="4" width="1" height="1" fill="#FF8899"/>
  <rect x="9" y="4" width="1" height="1" fill="#FFAABB"/>
  <rect x="10" y="4" width="1" height="1" fill="#FF8899"/>
  <rect x="11" y="4" width="1" height="1" fill="#FF8899"/>
  <rect x="12" y="4" width="1" height="1" fill="#FF6B8A"/>
  
  <rect x="1" y="5" width="1" height="1" fill="#FF6B8A"/>
  <rect x="2" y="5" width="1" height="1" fill="#FFAABB"/>
  <rect x="3" y="5" width="1" height="1" fill="#FFAABB"/>
  <rect x="4" y="5" width="1" height="1" fill="#FF8899"/>
  <rect x="5" y="5" width="1" height="1" fill="#FF8899"/>
  <rect x="6" y="5" width="1" height="1" fill="#FF8899"/>
  <rect x="7" y="5" width="1" height="1" fill="#FF8899"/>
  <rect x="8" y="5" width="1" height="1" fill="#FF8899"/>
  <rect x="9" y="5" width="1" height="1" fill="#FF8899"/>
  <rect x="10" y="5" width="1" height="1" fill="#FF6B8A"/>
  <rect x="11" y="5" width="1" height="1" fill="#FF6B8A"/>
  <rect x="12" y="5" width="1" height="1" fill="#FF6B8A"/>
  
  <rect x="2" y="6" width="1" height="1" fill="#FF6B8A"/>
  <rect x="3" y="6" width="1" height="1" fill="#FF8899"/>
  <rect x="4" y="6" width="1" height="1" fill="#FF8899"/>
  <rect x="5" y="6" width="1" height="1" fill="#FF6B8A"/>
  <rect x="6" y="6" width="1" height="1" fill="#FF6B8A"/>
  <rect x="7" y="6" width="1" height="1" fill="#FF6B8A"/>
  <rect x="8" y="6" width="1" height="1" fill="#FF6B8A"/>
  <rect x="9" y="6" width="1" height="1" fill="#FF6B8A"/>
  <rect x="10" y="6" width="1" height="1" fill="#E05070"/>
  <rect x="11" y="6" width="1" height="1" fill="#E05070"/>
  
  <rect x="3" y="7" width="1" height="1" fill="#FF6B8A"/>
  <rect x="4" y="7" width="1" height="1" fill="#FF6B8A"/>
  <rect x="5" y="7" width="1" height="1" fill="#FF6B8A"/>
  <rect x="6" y="7" width="1" height="1" fill="#E05070"/>
  <rect x="7" y="7" width="1" height="1" fill="#E05070"/>
  <rect x="8" y="7" width="1" height="1" fill="#E05070"/>
  <rect x="9" y="7" width="1" height="1" fill="#E05070"/>
  <rect x="10" y="7" width="1" height="1" fill="#E05070"/>
  
  <rect x="4" y="8" width="1" height="1" fill="#FF6B8A"/>
  <rect x="5" y="8" width="1" height="1" fill="#E05070"/>
  <rect x="6" y="8" width="1" height="1" fill="#E05070"/>
  <rect x="7" y="8" width="1" height="1" fill="#C04060"/>
  <rect x="8" y="8" width="1" height="1" fill="#C04060"/>
  <rect x="9" y="8" width="1" height="1" fill="#C04060"/>
  
  <rect x="5" y="9" width="1" height="1" fill="#E05070"/>
  <rect x="6" y="9" width="1" height="1" fill="#C04060"/>
  <rect x="7" y="9" width="1" height="1" fill="#C04060"/>
  <rect x="8" y="9" width="1" height="1" fill="#C04060"/>
  
  <rect x="6" y="10" width="1" height="1" fill="#C04060"/>
  <rect x="7" y="10" width="1" height="1" fill="#A03050"/>
  
  <rect x="7" y="11" width="1" height="1" fill="#A03050"/>
</svg>
