<svg xmlns="http://www.w3.org/2000/svg" viewBox="0 0 32 32" width="32" height="32" style="image-rendering: pixelated;">
  <!-- Sparkle/Glow Particle 32x32 -->
  
  <!-- 中心十字光芒 -->
  <rect x="15" y="4" width="1" height="1" fill="#FFFFFF"/>
  <rect x="15" y="5" width="1" height="1" fill="#FFFFCC"/>
  <rect x="15" y="6" width="1" height="1" fill="#FFFFAA"/>
  <rect x="15" y="7" width="1" height="1" fill="#FFFF88"/>
  
  <rect x="15" y="24" width="1" height="1" fill="#FFFF88"/>
  <rect x="15" y="25" width="1" height="1" fill="#FFFFAA"/>
  <rect x="15" y="26" width="1" height="1" fill="#FFFFCC"/>
  <rect x="15" y="27" width="1" height="1" fill="#FFFFFF"/>
  
  <rect x="4" y="15" width="1" height="1" fill="#FFFFFF"/>
  <rect x="5" y="15" width="1" height="1" fill="#FFFFCC"/>
  <rect x="6" y="15" width="1" height="1" fill="#FFFFAA"/>
  <rect x="7" y="15" width="1" height="1" fill="#FFFF88"/>
  
  <rect x="24" y="15" width="1" height="1" fill="#FFFF88"/>
  <rect x="25" y="15" width="1" height="1" fill="#FFFFAA"/>
  <rect x="26" y="15" width="1" height="1" fill="#FFFFCC"/>
  <rect x="27" y="15" width="1" height="1" fill="#FFFFFF"/>
  
  <!-- 中心区域 -->
  <rect x="14" y="14" width="1" height="1" fill="#FFFFEE"/>
  <rect x="15" y="14" width="1" height="1" fill="#FFFFFF"/>
  <rect x="16" y="14" width="1" height="1" fill="#FFFFEE"/>
  
  <rect x="14" y="15" width="1" height="1" fill="#FFFFFF"/>
  <rect x="15" y="15" width="1" height="1" fill="#FFFFFF"/>
  <rect x="16" y="15" width="1" height="1" fill="#FFFFFF"/>
  
  <rect x="14" y="16" width="1" height="1" fill="#FFFFEE"/>
  <rect x="15" y="16" width="1" height="1" fill="#FFFFFF"/>
  <rect x="16" y="16" width="1" height="1" fill="#FFFFEE"/>
  
  <!-- 对角线光芒 -->
  <rect x="8" y="8" width="1" height="1" fill="#FFFFDD"/>
  <rect x="9" y="9" width="1" height="1" fill="#FFFFAA"/>
  <rect x="10" y="10" width="1" height="1" fill="#FFFF88"/>
  <rect x="11" y="11" width="1" height="1" fill="#FFFF66"/>
  <rect x="12" y="12" width="1" height="1" fill="#FFFF88"/>
  <rect x="13" y="13" width="1" height="1" fill="#FFFFAA"/>
  
  <rect x="23" y="8" width="1" height="1" fill="#FFFFDD"/>
  <rect x="22" y="9" width="1" height="1" fill="#FFFFAA"/>
  <rect x="21" y="10" width="1" height="1" fill="#FFFF88"/>
  <rect x="20" y="11" width="1" height="1" fill="#FFFF66"/>
  <rect x="19" y="12" width="1" height="1" fill="#FFFF88"/>
  <rect x="18" y="13" width="1" height="1" fill="#FFFFAA"/>
  
  <rect x="8" y="23" width="1" height="1" fill="#FFFFDD"/>
  <rect x="9" y="22" width="1" height="1" fill="#FFFFAA"/>
  <rect x="10" y="21" width="1" height="1" fill="#FFFF88"/>
  <rect x="11" y="20" width="1" height="1" fill="#FFFF66"/>
  <rect x="12" y="19" width="1" height="1" fill="#FFFF88"/>
  <rect x="13" y="18" width="1" height="1" fill="#FFFFAA"/>
  
  <rect x="23" y="23" width="1" height="1" fill="#FFFFDD"/>
  <rect x="22" y="22" width="1" height="1" fill="#FFFFAA"/>
  <rect x="21" y="21" width="1" height="1" fill="#FFFF88"/>
  <rect x="20" y="20" width="1" height="1" fill="#FFFF66"/>
  <rect x="19" y="19" width="1" height="1" fill="#FFFF88"/>
  <rect x="18" y="18" width="1" height="1" fill="#FFFFAA"/>
  
  <!-- 外围小光点 -->
  <rect x="15" y="2" width="1" height="1" fill="#FFFFEE"/>
  <rect x="15" y="29" width="1" height="1" fill="#FFFFEE"/>
  <rect x="2" y="15" width="1" height="1" fill="#FFFFEE"/>
  <rect x="29" y="15" width="1" height="1" fill="#FFFFEE"/>
  
  <rect x="6" y="6" width="1" height="1" fill="#FFFFCC"/>
  <rect x="25" y="6" width="1" height="1" fill="#FFFFCC"/>
  <rect x="6" y="25" width="1" height="1" fill="#FFFFCC"/>
  <rect x="25" y="25" width="1" height="1" fill="#FFFFCC"/>
</svg>
