<svg xmlns="http://www.w3.org/2000/svg" viewBox="0 0 32 32" width="128" height="128" style="image-rendering: pixelated;">
  <!-- Dog Walk Frame 1 - 左脚前 -->
  
  <!-- 左耳（下垂） -->
  <rect x="6" y="4" width="1" height="1" fill="#D4915A"/>
  <rect x="5" y="5" width="1" height="1" fill="#C4814A"/>
  <rect x="6" y="5" width="1" height="1" fill="#D4915A"/>
  <rect x="7" y="5" width="1" height="1" fill="#D4915A"/>
  <rect x="5" y="6" width="1" height="1" fill="#C4814A"/>
  <rect x="6" y="6" width="1" height="1" fill="#D4915A"/>
  <rect x="5" y="7" width="1" height="1" fill="#C4814A"/>
  <rect x="6" y="7" width="1" height="1" fill="#C4814A"/>
  
  <!-- 右耳（下垂） -->
  <rect x="25" y="4" width="1" height="1" fill="#D4915A"/>
  <rect x="24" y="5" width="1" height="1" fill="#D4915A"/>
  <rect x="25" y="5" width="1" height="1" fill="#D4915A"/>
  <rect x="26" y="5" width="1" height="1" fill="#C4814A"/>
  <rect x="25" y="6" width="1" height="1" fill="#D4915A"/>
  <rect x="26" y="6" width="1" height="1" fill="#C4814A"/>
  <rect x="25" y="7" width="1" height="1" fill="#C4814A"/>
  <rect x="26" y="7" width="1" height="1" fill="#C4814A"/>
  
  <!-- 头顶 -->
  <rect x="10" y="4" width="1" height="1" fill="#D4915A"/>
  <rect x="11" y="4" width="1" height="1" fill="#E4A16A"/>
  <rect x="12" y="4" width="1" height="1" fill="#D4915A"/>
  <rect x="13" y="4" width="1" height="1" fill="#E4A16A"/>
  <rect x="14" y="4" width="1" height="1" fill="#D4915A"/>
  <rect x="15" y="4" width="1" height="1" fill="#FFFFFF"/>
  <rect x="16" y="4" width="1" height="1" fill="#FFFFFF"/>
  <rect x="17" y="4" width="1" height="1" fill="#D4915A"/>
  <rect x="18" y="4" width="1" height="1" fill="#E4A16A"/>
  <rect x="19" y="4" width="1" height="1" fill="#D4915A"/>
  <rect x="20" y="4" width="1" height="1" fill="#E4A16A"/>
  <rect x="21" y="4" width="1" height="1" fill="#D4915A"/>
  
  <!-- 头部填充 row5-11 (简化，主要元素) -->
  <rect x="8" y="5" width="1" height="1" fill="#C4814A"/>
  <rect x="9" y="5" width="1" height="1" fill="#D4915A"/>
  <rect x="10" y="5" width="1" height="1" fill="#E4A16A"/>
  <rect x="11" y="5" width="1" height="1" fill="#D4915A"/>
  <rect x="12" y="5" width="1" height="1" fill="#E4A16A"/>
  <rect x="13" y="5" width="1" height="1" fill="#D4915A"/>
  <rect x="14" y="5" width="1" height="1" fill="#FFFFFF"/>
  <rect x="15" y="5" width="1" height="1" fill="#FFFFFF"/>
  <rect x="16" y="5" width="1" height="1" fill="#FFFFFF"/>
  <rect x="17" y="5" width="1" height="1" fill="#FFFFFF"/>
  <rect x="18" y="5" width="1" height="1" fill="#D4915A"/>
  <rect x="19" y="5" width="1" height="1" fill="#E4A16A"/>
  <rect x="20" y="5" width="1" height="1" fill="#D4915A"/>
  <rect x="21" y="5" width="1" height="1" fill="#E4A16A"/>
  <rect x="22" y="5" width="1" height="1" fill="#D4915A"/>
  <rect x="23" y="5" width="1" height="1" fill="#C4814A"/>
  
  <!-- 眼睛 row8 -->
  <rect x="7" y="8" width="1" height="1" fill="#C4814A"/>
  <rect x="8" y="8" width="1" height="1" fill="#D4915A"/>
  <rect x="9" y="8" width="1" height="1" fill="#D4915A"/>
  <rect x="10" y="8" width="1" height="1" fill="#D4915A"/>
  <rect x="11" y="8" width="1" height="1" fill="#2A2A2A"/>
  <rect x="12" y="8" width="1" height="1" fill="#D4915A"/>
  <rect x="13" y="8" width="1" height="1" fill="#FFFFFF"/>
  <rect x="14" y="8" width="1" height="1" fill="#FFFFFF"/>
  <rect x="15" y="8" width="1" height="1" fill="#FFFFFF"/>
  <rect x="16" y="8" width="1" height="1" fill="#FFFFFF"/>
  <rect x="17" y="8" width="1" height="1" fill="#FFFFFF"/>
  <rect x="18" y="8" width="1" height="1" fill="#FFFFFF"/>
  <rect x="19" y="8" width="1" height="1" fill="#D4915A"/>
  <rect x="20" y="8" width="1" height="1" fill="#2A2A2A"/>
  <rect x="21" y="8" width="1" height="1" fill="#D4915A"/>
  <rect x="22" y="8" width="1" height="1" fill="#D4915A"/>
  <rect x="23" y="8" width="1" height="1" fill="#D4915A"/>
  <rect x="24" y="8" width="1" height="1" fill="#C4814A"/>
  
  <!-- row9 眼睛下+腮红 -->
  <rect x="7" y="9" width="1" height="1" fill="#C4814A"/>
  <rect x="8" y="9" width="1" height="1" fill="#FFB0C0"/>
  <rect x="9" y="9" width="1" height="1" fill="#D4915A"/>
  <rect x="10" y="9" width="1" height="1" fill="#D4915A"/>
  <rect x="11" y="9" width="1" height="1" fill="#2A2A2A"/>
  <rect x="12" y="9" width="1" height="1" fill="#D4915A"/>
  <rect x="13" y="9" width="1" height="1" fill="#FFFFFF"/>
  <rect x="14" y="9" width="1" height="1" fill="#FFFFFF"/>
  <rect x="15" y="9" width="1" height="1" fill="#FFFFFF"/>
  <rect x="16" y="9" width="1" height="1" fill="#FFFFFF"/>
  <rect x="17" y="9" width="1" height="1" fill="#FFFFFF"/>
  <rect x="18" y="9" width="1" height="1" fill="#FFFFFF"/>
  <rect x="19" y="9" width="1" height="1" fill="#D4915A"/>
  <rect x="20" y="9" width="1" height="1" fill="#2A2A2A"/>
  <rect x="21" y="9" width="1" height="1" fill="#D4915A"/>
  <rect x="22" y="9" width="1" height="1" fill="#D4915A"/>
  <rect x="23" y="9" width="1" height="1" fill="#FFB0C0"/>
  <rect x="24" y="9" width="1" height="1" fill="#C4814A"/>
  
  <!-- row10 鼻子 -->
  <rect x="7" y="10" width="1" height="1" fill="#C4814A"/>
  <rect x="8" y="10" width="1" height="1" fill="#D4915A"/>
  <rect x="9" y="10" width="1" height="1" fill="#D4915A"/>
  <rect x="10" y="10" width="1" height="1" fill="#FFFFFF"/>
  <rect x="11" y="10" width="1" height="1" fill="#FFFFFF"/>
  <rect x="12" y="10" width="1" height="1" fill="#FFFFFF"/>
  <rect x="13" y="10" width="1" height="1" fill="#FFFFFF"/>
  <rect x="14" y="10" width="1" height="1" fill="#FFFFFF"/>
  <rect x="15" y="10" width="1" height="1" fill="#2A2A2A"/>
  <rect x="16" y="10" width="1" height="1" fill="#2A2A2A"/>
  <rect x="17" y="10" width="1" height="1" fill="#FFFFFF"/>
  <rect x="18" y="10" width="1" height="1" fill="#FFFFFF"/>
  <rect x="19" y="10" width="1" height="1" fill="#FFFFFF"/>
  <rect x="20" y="10" width="1" height="1" fill="#FFFFFF"/>
  <rect x="21" y="10" width="1" height="1" fill="#FFFFFF"/>
  <rect x="22" y="10" width="1" height="1" fill="#D4915A"/>
  <rect x="23" y="10" width="1" height="1" fill="#D4915A"/>
  <rect x="24" y="10" width="1" height="1" fill="#C4814A"/>
  
  <!-- row11 嘴+舌头 -->
  <rect x="8" y="11" width="1" height="1" fill="#C4814A"/>
  <rect x="9" y="11" width="1" height="1" fill="#D4915A"/>
  <rect x="10" y="11" width="1" height="1" fill="#FFFFFF"/>
  <rect x="11" y="11" width="1" height="1" fill="#FFFFFF"/>
  <rect x="12" y="11" width="1" height="1" fill="#FFFFFF"/>
  <rect x="13" y="11" width="1" height="1" fill="#FFFFFF"/>
  <rect x="14" y="11" width="1" height="1" fill="#FFFFFF"/>
  <rect x="15" y="11" width="1" height="1" fill="#FF8090"/>
  <rect x="16" y="11" width="1" height="1" fill="#FF8090"/>
  <rect x="17" y="11" width="1" height="1" fill="#FFFFFF"/>
  <rect x="18" y="11" width="1" height="1" fill="#FFFFFF"/>
  <rect x="19" y="11" width="1" height="1" fill="#FFFFFF"/>
  <rect x="20" y="11" width="1" height="1" fill="#FFFFFF"/>
  <rect x="21" y="11" width="1" height="1" fill="#FFFFFF"/>
  <rect x="22" y="11" width="1" height="1" fill="#D4915A"/>
  <rect x="23" y="11" width="1" height="1" fill="#C4814A"/>
  
  <!-- 项圈 -->
  <rect x="11" y="12" width="1" height="1" fill="#4080FF"/>
  <rect x="12" y="12" width="1" height="1" fill="#4080FF"/>
  <rect x="13" y="12" width="1" height="1" fill="#4080FF"/>
  <rect x="14" y="12" width="1" height="1" fill="#4080FF"/>
  <rect x="15" y="12" width="1" height="1" fill="#FFD700"/>
  <rect x="16" y="12" width="1" height="1" fill="#FFD700"/>
  <rect x="17" y="12" width="1" height="1" fill="#4080FF"/>
  <rect x="18" y="12" width="1" height="1" fill="#4080FF"/>
  <rect x="19" y="12" width="1" height="1" fill="#4080FF"/>
  <rect x="20" y="12" width="1" height="1" fill="#4080FF"/>
  
  <!-- 身体 -->
  <rect x="11" y="13" width="1" height="1" fill="#C4814A"/>
  <rect x="12" y="13" width="1" height="1" fill="#D4915A"/>
  <rect x="13" y="13" width="1" height="1" fill="#FFFFFF"/>
  <rect x="14" y="13" width="1" height="1" fill="#FFFFFF"/>
  <rect x="15" y="13" width="1" height="1" fill="#FFFFFF"/>
  <rect x="16" y="13" width="1" height="1" fill="#FFFFFF"/>
  <rect x="17" y="13" width="1" height="1" fill="#FFFFFF"/>
  <rect x="18" y="13" width="1" height="1" fill="#FFFFFF"/>
  <rect x="19" y="13" width="1" height="1" fill="#D4915A"/>
  <rect x="20" y="13" width="1" height="1" fill="#C4814A"/>
  
  <rect x="11" y="14" width="1" height="1" fill="#C4814A"/>
  <rect x="12" y="14" width="1" height="1" fill="#D4915A"/>
  <rect x="13" y="14" width="1" height="1" fill="#D4915A"/>
  <rect x="14" y="14" width="1" height="1" fill="#FFFFFF"/>
  <rect x="15" y="14" width="1" height="1" fill="#FFFFFF"/>
  <rect x="16" y="14" width="1" height="1" fill="#FFFFFF"/>
  <rect x="17" y="14" width="1" height="1" fill="#FFFFFF"/>
  <rect x="18" y="14" width="1" height="1" fill="#D4915A"/>
  <rect x="19" y="14" width="1" height="1" fill="#D4915A"/>
  <rect x="20" y="14" width="1" height="1" fill="#C4814A"/>
  
  <rect x="11" y="15" width="1" height="1" fill="#C4814A"/>
  <rect x="12" y="15" width="1" height="1" fill="#D4915A"/>
  <rect x="13" y="15" width="1" height="1" fill="#D4915A"/>
  <rect x="14" y="15" width="1" height="1" fill="#D4915A"/>
  <rect x="15" y="15" width="1" height="1" fill="#D4915A"/>
  <rect x="16" y="15" width="1" height="1" fill="#D4915A"/>
  <rect x="17" y="15" width="1" height="1" fill="#D4915A"/>
  <rect x="18" y="15" width="1" height="1" fill="#D4915A"/>
  <rect x="19" y="15" width="1" height="1" fill="#D4915A"/>
  <rect x="20" y="15" width="1" height="1" fill="#C4814A"/>
  
  <!-- 腿 - 走路姿势：左前右后 -->
  <rect x="10" y="16" width="1" height="1" fill="#D4915A"/>
  <rect x="11" y="16" width="1" height="1" fill="#D4915A"/>
  <rect x="12" y="16" width="1" height="1" fill="#D4915A"/>
  <rect x="18" y="16" width="1" height="1" fill="#D4915A"/>
  <rect x="19" y="16" width="1" height="1" fill="#D4915A"/>
  <rect x="20" y="16" width="1" height="1" fill="#D4915A"/>
  <rect x="21" y="16" width="1" height="1" fill="#C4814A"/>
  
  <rect x="9" y="17" width="1" height="1" fill="#D4915A"/>
  <rect x="10" y="17" width="1" height="1" fill="#D4915A"/>
  <rect x="11" y="17" width="1" height="1" fill="#D4915A"/>
  <rect x="20" y="17" width="1" height="1" fill="#D4915A"/>
  <rect x="21" y="17" width="1" height="1" fill="#D4915A"/>
  <rect x="22" y="17" width="1" height="1" fill="#C4814A"/>
  
  <!-- 脚 -->
  <rect x="9" y="18" width="1" height="1" fill="#FFFFFF"/>
  <rect x="10" y="18" width="1" height="1" fill="#FFFFFF"/>
  <rect x="21" y="18" width="1" height="1" fill="#FFFFFF"/>
  <rect x="22" y="18" width="1" height="1" fill="#FFFFFF"/>
  
  <!-- 尾巴翘起 -->
  <rect x="22" y="14" width="1" height="1" fill="#D4915A"/>
  <rect x="23" y="13" width="1" height="1" fill="#E4A16A"/>
  <rect x="24" y="12" width="1" height="1" fill="#D4915A"/>
  <rect x="25" y="11" width="1" height="1" fill="#FFFFFF"/>
</svg>
