<svg xmlns="http://www.w3.org/2000/svg" viewBox="0 0 32 32" width="128" height="128" style="image-rendering: pixelated;">
  <!-- Slime Sad Frame 2 - 更瘫软 -->
  
  <!-- 顶部高光（几乎没有） -->
  <rect x="14" y="9" width="4" height="1" fill="#50B0D0"/>
  
  <!-- 头部（更扁） -->
  <rect x="10" y="10" width="12" height="1" fill="#40A0C0"/>
  <rect x="7" y="11" width="18" height="1" fill="#3090B0"/>
  
  <!-- 眼睛（更悲伤） -->
  <rect x="6" y="12" width="20" height="2" fill="#2080A0"/>
  <rect x="10" y="12" width="1" height="1" fill="#107090"/>
  <rect x="11" y="13" width="1" height="1" fill="#107090"/>
  <rect x="21" y="12" width="1" height="1" fill="#107090"/>
  <rect x="20" y="13" width="1" height="1" fill="#107090"/>
  
  <!-- 眼泪（更多） -->
  <rect x="9" y="14" width="1" height="1" fill="#80E0F0"/>
  <rect x="9" y="15" width="1" height="1" fill="#70D0F0"/>
  <rect x="22" y="14" width="1" height="1" fill="#80E0F0"/>
  <rect x="22" y="15" width="1" height="1" fill="#70D0F0"/>
  
  <!-- 嘴 -->
  <rect x="6" y="14" width="20" height="1" fill="#107090"/>
  <rect x="13" y="14" width="1" height="1" fill="#106080"/>
  <rect x="18" y="14" width="1" height="1" fill="#106080"/>
  <rect x="14" y="15" width="4" height="1" fill="#106080"/>
  
  <!-- 身体（完全瘫软） -->
  <rect x="5" y="15" width="22" height="1" fill="#106080"/>
  <rect x="4" y="16" width="24" height="1" fill="#206080"/>
  <rect x="5" y="17" width="22" height="1" fill="#206080"/>
  <rect x="6" y="18" width="20" height="1" fill="#206080"/>
</svg>
