<svg xmlns="http://www.w3.org/2000/svg" viewBox="0 0 32 32" width="128" height="128" style="image-rendering: pixelated;">
  <!-- Cat Jump Frame 6 - 落地缓冲 -->
  
  <!-- 耳朵 -->
  <rect x="7" y="5" width="1" height="1" fill="#E08040"/>
  <rect x="6" y="6" width="1" height="1" fill="#D07030"/>
  <rect x="7" y="6" width="1" height="1" fill="#F09050"/>
  <rect x="8" y="6" width="1" height="1" fill="#E08040"/>
  <rect x="24" y="5" width="1" height="1" fill="#E08040"/>
  <rect x="23" y="6" width="1" height="1" fill="#E08040"/>
  <rect x="24" y="6" width="1" height="1" fill="#F09050"/>
  <rect x="25" y="6" width="1" height="1" fill="#D07030"/>
  
  <!-- 头部（落地压低） -->
  <rect x="10" y="6" width="12" height="1" fill="#E08040"/>
  <rect x="9" y="7" width="14" height="1" fill="#F09050"/>
  <rect x="8" y="8" width="16" height="1" fill="#F09050"/>
  
  <!-- 眼睛 -->
  <rect x="11" y="8" width="1" height="1" fill="#2A2A2A"/>
  <rect x="20" y="8" width="1" height="1" fill="#2A2A2A"/>
  <rect x="11" y="9" width="1" height="1" fill="#2A2A2A"/>
  <rect x="20" y="9" width="1" height="1" fill="#2A2A2A"/>
  
  <rect x="8" y="9" width="16" height="1" fill="#F09050"/>
  <rect x="9" y="10" width="14" height="1" fill="#F09050"/>
  
  <!-- 鼻子 -->
  <rect x="15" y="10" width="2" height="1" fill="#2A2A2A"/>
  
  <rect x="10" y="11" width="12" height="1" fill="#F09050"/>
  
  <!-- 项圈 -->
  <rect x="11" y="12" width="10" height="1" fill="#FFD700"/>
  <rect x="15" y="12" width="2" height="1" fill="#FF3030"/>
  
  <!-- 身体（压缩缓冲） -->
  <rect x="9" y="13" width="14" height="1" fill="#F09050"/>
  <rect x="8" y="14" width="16" height="1" fill="#E08040"/>
  <rect x="9" y="15" width="14" height="1" fill="#D07030"/>
  
  <!-- 腿（弯曲缓冲） -->
  <rect x="9" y="16" width="4" height="1" fill="#F09050"/>
  <rect x="19" y="16" width="4" height="1" fill="#F09050"/>
  
  <!-- 脚 -->
  <rect x="8" y="17" width="5" height="1" fill="#FFFFFF"/>
  <rect x="19" y="17" width="5" height="1" fill="#FFFFFF"/>
  
  <!-- 尾巴（向后弹） -->
  <rect x="24" y="13" width="1" height="1" fill="#E08040"/>
  <rect x="25" y="14" width="1" height="1" fill="#F09050"/>
  <rect x="26" y="15" width="1" height="1" fill="#E08040"/>
  <rect x="27" y="15" width="1" height="1" fill="#D07030"/>
</svg>
