<svg xmlns="http://www.w3.org/2000/svg" viewBox="0 0 32 32" width="128" height="128" style="image-rendering: pixelated;">
  <!-- Cat Sad Frame 1 - 泪眼垂耳 -->
  
  <!-- 左耳（下垂） -->
  <rect x="5" y="5" width="1" height="1" fill="#D07030"/>
  <rect x="6" y="5" width="1" height="1" fill="#E08040"/>
  <rect x="7" y="5" width="1" height="1" fill="#E08040"/>
  <rect x="5" y="6" width="1" height="1" fill="#D07030"/>
  <rect x="6" y="6" width="1" height="1" fill="#F09050"/>
  <rect x="7" y="6" width="1" height="1" fill="#F09050"/>
  <rect x="5" y="7" width="1" height="1" fill="#D07030"/>
  <rect x="6" y="7" width="1" height="1" fill="#FFCC99"/>
  <rect x="7" y="7" width="1" height="1" fill="#E08040"/>
  
  <!-- 右耳（下垂） -->
  <rect x="24" y="5" width="1" height="1" fill="#E08040"/>
  <rect x="25" y="5" width="1" height="1" fill="#E08040"/>
  <rect x="26" y="5" width="1" height="1" fill="#D07030"/>
  <rect x="24" y="6" width="1" height="1" fill="#F09050"/>
  <rect x="25" y="6" width="1" height="1" fill="#F09050"/>
  <rect x="26" y="6" width="1" height="1" fill="#D07030"/>
  <rect x="24" y="7" width="1" height="1" fill="#E08040"/>
  <rect x="25" y="7" width="1" height="1" fill="#FFCC99"/>
  <rect x="26" y="7" width="1" height="1" fill="#D07030"/>
  
  <!-- 头顶 -->
  <rect x="10" y="4" width="1" height="1" fill="#D07030"/>
  <rect x="11" y="4" width="1" height="1" fill="#E08040"/>
  <rect x="12" y="4" width="1" height="1" fill="#F09050"/>
  <rect x="13" y="4" width="1" height="1" fill="#E08040"/>
  <rect x="14" y="4" width="1" height="1" fill="#D07030"/>
  <rect x="15" y="4" width="1" height="1" fill="#F09050"/>
  <rect x="16" y="4" width="1" height="1" fill="#F09050"/>
  <rect x="17" y="4" width="1" height="1" fill="#D07030"/>
  <rect x="18" y="4" width="1" height="1" fill="#E08040"/>
  <rect x="19" y="4" width="1" height="1" fill="#F09050"/>
  <rect x="20" y="4" width="1" height="1" fill="#E08040"/>
  <rect x="21" y="4" width="1" height="1" fill="#D07030"/>
  
  <!-- 头部填充 -->
  <rect x="9" y="5" width="1" height="1" fill="#D07030"/>
  <rect x="10" y="5" width="1" height="1" fill="#E08040"/>
  <rect x="11" y="5" width="1" height="1" fill="#F09050"/>
  <rect x="12" y="5" width="1" height="1" fill="#E08040"/>
  <rect x="13" y="5" width="1" height="1" fill="#F09050"/>
  <rect x="14" y="5" width="1" height="1" fill="#E08040"/>
  <rect x="15" y="5" width="1" height="1" fill="#F09050"/>
  <rect x="16" y="5" width="1" height="1" fill="#F09050"/>
  <rect x="17" y="5" width="1" height="1" fill="#E08040"/>
  <rect x="18" y="5" width="1" height="1" fill="#F09050"/>
  <rect x="19" y="5" width="1" height="1" fill="#E08040"/>
  <rect x="20" y="5" width="1" height="1" fill="#F09050"/>
  <rect x="21" y="5" width="1" height="1" fill="#E08040"/>
  <rect x="22" y="5" width="1" height="1" fill="#D07030"/>
  
  <rect x="8" y="6" width="1" height="1" fill="#D07030"/>
  <rect x="9" y="6" width="1" height="1" fill="#E08040"/>
  <rect x="10" y="6" width="1" height="1" fill="#F09050"/>
  <rect x="11" y="6" width="1" height="1" fill="#E08040"/>
  <rect x="12" y="6" width="1" height="1" fill="#F09050"/>
  <rect x="13" y="6" width="1" height="1" fill="#E08040"/>
  <rect x="14" y="6" width="1" height="1" fill="#F09050"/>
  <rect x="15" y="6" width="1" height="1" fill="#F09050"/>
  <rect x="16" y="6" width="1" height="1" fill="#F09050"/>
  <rect x="17" y="6" width="1" height="1" fill="#F09050"/>
  <rect x="18" y="6" width="1" height="1" fill="#E08040"/>
  <rect x="19" y="6" width="1" height="1" fill="#F09050"/>
  <rect x="20" y="6" width="1" height="1" fill="#E08040"/>
  <rect x="21" y="6" width="1" height="1" fill="#F09050"/>
  <rect x="22" y="6" width="1" height="1" fill="#E08040"/>
  <rect x="23" y="6" width="1" height="1" fill="#D07030"/>
  
  <rect x="8" y="7" width="1" height="1" fill="#D07030"/>
  <rect x="9" y="7" width="1" height="1" fill="#E08040"/>
  <rect x="10" y="7" width="1" height="1" fill="#F09050"/>
  <rect x="11" y="7" width="1" height="1" fill="#E08040"/>
  <rect x="12" y="7" width="1" height="1" fill="#F09050"/>
  <rect x="13" y="7" width="1" height="1" fill="#F09050"/>
  <rect x="14" y="7" width="1" height="1" fill="#F09050"/>
  <rect x="15" y="7" width="1" height="1" fill="#F09050"/>
  <rect x="16" y="7" width="1" height="1" fill="#F09050"/>
  <rect x="17" y="7" width="1" height="1" fill="#F09050"/>
  <rect x="18" y="7" width="1" height="1" fill="#F09050"/>
  <rect x="19" y="7" width="1" height="1" fill="#F09050"/>
  <rect x="20" y="7" width="1" height="1" fill="#E08040"/>
  <rect x="21" y="7" width="1" height="1" fill="#F09050"/>
  <rect x="22" y="7" width="1" height="1" fill="#E08040"/>
  <rect x="23" y="7" width="1" height="1" fill="#D07030"/>
  
  <!-- row8 悲伤眼睛（水汪汪） -->
  <rect x="8" y="8" width="1" height="1" fill="#D07030"/>
  <rect x="9" y="8" width="1" height="1" fill="#E08040"/>
  <rect x="10" y="8" width="1" height="1" fill="#F09050"/>
  <rect x="11" y="8" width="1" height="1" fill="#2A2A2A"/>
  <rect x="12" y="8" width="1" height="1" fill="#60A0FF"/>
  <rect x="13" y="8" width="1" height="1" fill="#F09050"/>
  <rect x="14" y="8" width="1" height="1" fill="#F09050"/>
  <rect x="15" y="8" width="1" height="1" fill="#F09050"/>
  <rect x="16" y="8" width="1" height="1" fill="#F09050"/>
  <rect x="17" y="8" width="1" height="1" fill="#F09050"/>
  <rect x="18" y="8" width="1" height="1" fill="#F09050"/>
  <rect x="19" y="8" width="1" height="1" fill="#60A0FF"/>
  <rect x="20" y="8" width="1" height="1" fill="#2A2A2A"/>
  <rect x="21" y="8" width="1" height="1" fill="#F09050"/>
  <rect x="22" y="8" width="1" height="1" fill="#E08040"/>
  <rect x="23" y="8" width="1" height="1" fill="#D07030"/>
  
  <!-- row9 眼泪 -->
  <rect x="8" y="9" width="1" height="1" fill="#D07030"/>
  <rect x="9" y="9" width="1" height="1" fill="#E08040"/>
  <rect x="10" y="9" width="1" height="1" fill="#F09050"/>
  <rect x="11" y="9" width="1" height="1" fill="#2A2A2A"/>
  <rect x="12" y="9" width="1" height="1" fill="#60A0FF"/>
  <rect x="13" y="9" width="1" height="1" fill="#F09050"/>
  <rect x="14" y="9" width="1" height="1" fill="#F09050"/>
  <rect x="15" y="9" width="1" height="1" fill="#F09050"/>
  <rect x="16" y="9" width="1" height="1" fill="#F09050"/>
  <rect x="17" y="9" width="1" height="1" fill="#F09050"/>
  <rect x="18" y="9" width="1" height="1" fill="#F09050"/>
  <rect x="19" y="9" width="1" height="1" fill="#60A0FF"/>
  <rect x="20" y="9" width="1" height="1" fill="#2A2A2A"/>
  <rect x="21" y="9" width="1" height="1" fill="#F09050"/>
  <rect x="22" y="9" width="1" height="1" fill="#E08040"/>
  <rect x="23" y="9" width="1" height="1" fill="#D07030"/>
  
  <!-- row10 鼻子+悲伤嘴 -->
  <rect x="9" y="10" width="1" height="1" fill="#D07030"/>
  <rect x="10" y="10" width="1" height="1" fill="#E08040"/>
  <rect x="11" y="10" width="1" height="1" fill="#F09050"/>
  <rect x="12" y="10" width="1" height="1" fill="#60A0FF"/>
  <rect x="13" y="10" width="1" height="1" fill="#F09050"/>
  <rect x="14" y="10" width="1" height="1" fill="#F09050"/>
  <rect x="15" y="10" width="1" height="1" fill="#2A2A2A"/>
  <rect x="16" y="10" width="1" height="1" fill="#2A2A2A"/>
  <rect x="17" y="10" width="1" height="1" fill="#F09050"/>
  <rect x="18" y="10" width="1" height="1" fill="#F09050"/>
  <rect x="19" y="10" width="1" height="1" fill="#60A0FF"/>
  <rect x="20" y="10" width="1" height="1" fill="#F09050"/>
  <rect x="21" y="10" width="1" height="1" fill="#E08040"/>
  <rect x="22" y="10" width="1" height="1" fill="#D07030"/>
  
  <!-- row11 下巴+下撇嘴 -->
  <rect x="10" y="11" width="1" height="1" fill="#D07030"/>
  <rect x="11" y="11" width="1" height="1" fill="#E08040"/>
  <rect x="12" y="11" width="1" height="1" fill="#F09050"/>
  <rect x="13" y="11" width="1" height="1" fill="#F09050"/>
  <rect x="14" y="11" width="1" height="1" fill="#2A2A2A"/>
  <rect x="15" y="11" width="1" height="1" fill="#F09050"/>
  <rect x="16" y="11" width="1" height="1" fill="#F09050"/>
  <rect x="17" y="11" width="1" height="1" fill="#2A2A2A"/>
  <rect x="18" y="11" width="1" height="1" fill="#F09050"/>
  <rect x="19" y="11" width="1" height="1" fill="#F09050"/>
  <rect x="20" y="11" width="1" height="1" fill="#E08040"/>
  <rect x="21" y="11" width="1" height="1" fill="#D07030"/>
  
  <!-- 项圈 -->
  <rect x="11" y="12" width="1" height="1" fill="#D4A000"/>
  <rect x="12" y="12" width="1" height="1" fill="#FFD700"/>
  <rect x="13" y="12" width="1" height="1" fill="#FFD700"/>
  <rect x="14" y="12" width="1" height="1" fill="#FFD700"/>
  <rect x="15" y="12" width="1" height="1" fill="#FF3030"/>
  <rect x="16" y="12" width="1" height="1" fill="#FF3030"/>
  <rect x="17" y="12" width="1" height="1" fill="#FFD700"/>
  <rect x="18" y="12" width="1" height="1" fill="#FFD700"/>
  <rect x="19" y="12" width="1" height="1" fill="#FFD700"/>
  <rect x="20" y="12" width="1" height="1" fill="#D4A000"/>
  
  <!-- 身体 -->
  <rect x="11" y="13" width="1" height="1" fill="#D07030"/>
  <rect x="12" y="13" width="1" height="1" fill="#E08040"/>
  <rect x="13" y="13" width="1" height="1" fill="#F09050"/>
  <rect x="14" y="13" width="1" height="1" fill="#F09050"/>
  <rect x="15" y="13" width="1" height="1" fill="#F09050"/>
  <rect x="16" y="13" width="1" height="1" fill="#F09050"/>
  <rect x="17" y="13" width="1" height="1" fill="#F09050"/>
  <rect x="18" y="13" width="1" height="1" fill="#F09050"/>
  <rect x="19" y="13" width="1" height="1" fill="#E08040"/>
  <rect x="20" y="13" width="1" height="1" fill="#D07030"/>
  
  <rect x="11" y="14" width="1" height="1" fill="#D07030"/>
  <rect x="12" y="14" width="1" height="1" fill="#E08040"/>
  <rect x="13" y="14" width="1" height="1" fill="#D07030"/>
  <rect x="14" y="14" width="1" height="1" fill="#F09050"/>
  <rect x="15" y="14" width="1" height="1" fill="#E08040"/>
  <rect x="16" y="14" width="1" height="1" fill="#E08040"/>
  <rect x="17" y="14" width="1" height="1" fill="#F09050"/>
  <rect x="18" y="14" width="1" height="1" fill="#D07030"/>
  <rect x="19" y="14" width="1" height="1" fill="#E08040"/>
  <rect x="20" y="14" width="1" height="1" fill="#D07030"/>
  
  <rect x="11" y="15" width="1" height="1" fill="#D07030"/>
  <rect x="12" y="15" width="1" height="1" fill="#E08040"/>
  <rect x="13" y="15" width="1" height="1" fill="#F09050"/>
  <rect x="14" y="15" width="1" height="1" fill="#D07030"/>
  <rect x="15" y="15" width="1" height="1" fill="#F09050"/>
  <rect x="16" y="15" width="1" height="1" fill="#F09050"/>
  <rect x="17" y="15" width="1" height="1" fill="#D07030"/>
  <rect x="18" y="15" width="1" height="1" fill="#F09050"/>
  <rect x="19" y="15" width="1" height="1" fill="#E08040"/>
  <rect x="20" y="15" width="1" height="1" fill="#D07030"/>
  
  <!-- 腿 -->
  <rect x="11" y="16" width="1" height="1" fill="#D07030"/>
  <rect x="12" y="16" width="1" height="1" fill="#E08040"/>
  <rect x="13" y="16" width="1" height="1" fill="#F09050"/>
  <rect x="18" y="16" width="1" height="1" fill="#F09050"/>
  <rect x="19" y="16" width="1" height="1" fill="#E08040"/>
  <rect x="20" y="16" width="1" height="1" fill="#D07030"/>
  
  <rect x="11" y="17" width="1" height="1" fill="#D07030"/>
  <rect x="12" y="17" width="1" height="1" fill="#E08040"/>
  <rect x="13" y="17" width="1" height="1" fill="#F09050"/>
  <rect x="18" y="17" width="1" height="1" fill="#F09050"/>
  <rect x="19" y="17" width="1" height="1" fill="#E08040"/>
  <rect x="20" y="17" width="1" height="1" fill="#D07030"/>
  
  <rect x="11" y="18" width="1" height="1" fill="#FFFFFF"/>
  <rect x="12" y="18" width="1" height="1" fill="#FFFFFF"/>
  <rect x="19" y="18" width="1" height="1" fill="#FFFFFF"/>
  <rect x="20" y="18" width="1" height="1" fill="#FFFFFF"/>
  
  <!-- 尾巴下垂 -->
  <rect x="22" y="14" width="1" height="1" fill="#E08040"/>
  <rect x="23" y="15" width="1" height="1" fill="#F09050"/>
  <rect x="24" y="16" width="1" height="1" fill="#E08040"/>
  <rect x="25" y="17" width="1" height="1" fill="#F09050"/>
  <rect x="26" y="18" width="1" height="1" fill="#D07030"/>
</svg>
