<svg xmlns="http://www.w3.org/2000/svg" viewBox="0 0 32 32" width="128" height="128" style="image-rendering: pixelated;">
  <!-- Cat Sleep Frame 1 - 趴着睡觉 -->
  
  <!-- 蜷缩身体形态 - 侧卧 -->
  
  <!-- 左耳（平放） -->
  <rect x="7" y="7" width="1" height="1" fill="#D07030"/>
  <rect x="8" y="7" width="1" height="1" fill="#E08040"/>
  <rect x="6" y="8" width="1" height="1" fill="#D07030"/>
  <rect x="7" y="8" width="1" height="1" fill="#E08040"/>
  <rect x="8" y="8" width="1" height="1" fill="#F09050"/>
  <rect x="6" y="9" width="1" height="1" fill="#D07030"/>
  <rect x="7" y="9" width="1" height="1" fill="#FFCC99"/>
  <rect x="8" y="9" width="1" height="1" fill="#E08040"/>
  
  <!-- 头顶 -->
  <rect x="9" y="8" width="1" height="1" fill="#D07030"/>
  <rect x="10" y="8" width="1" height="1" fill="#E08040"/>
  <rect x="11" y="8" width="1" height="1" fill="#F09050"/>
  <rect x="12" y="8" width="1" height="1" fill="#E08040"/>
  <rect x="13" y="8" width="1" height="1" fill="#D07030"/>
  <rect x="14" y="8" width="1" height="1" fill="#F09050"/>
  <rect x="15" y="8" width="1" height="1" fill="#E08040"/>
  <rect x="16" y="8" width="1" height="1" fill="#D07030"/>
  
  <!-- 头部 -->
  <rect x="8" y="9" width="1" height="1" fill="#D07030"/>
  <rect x="9" y="9" width="1" height="1" fill="#E08040"/>
  <rect x="10" y="9" width="1" height="1" fill="#F09050"/>
  <rect x="11" y="9" width="1" height="1" fill="#E08040"/>
  <rect x="12" y="9" width="1" height="1" fill="#F09050"/>
  <rect x="13" y="9" width="1" height="1" fill="#E08040"/>
  <rect x="14" y="9" width="1" height="1" fill="#F09050"/>
  <rect x="15" y="9" width="1" height="1" fill="#E08040"/>
  <rect x="16" y="9" width="1" height="1" fill="#F09050"/>
  <rect x="17" y="9" width="1" height="1" fill="#D07030"/>
  
  <!-- row10 闭眼睡觉 -->
  <rect x="8" y="10" width="1" height="1" fill="#D07030"/>
  <rect x="9" y="10" width="1" height="1" fill="#E08040"/>
  <rect x="10" y="10" width="1" height="1" fill="#2A2A2A"/>
  <rect x="11" y="10" width="1" height="1" fill="#F09050"/>
  <rect x="12" y="10" width="1" height="1" fill="#F09050"/>
  <rect x="13" y="10" width="1" height="1" fill="#F09050"/>
  <rect x="14" y="10" width="1" height="1" fill="#2A2A2A"/>
  <rect x="15" y="10" width="1" height="1" fill="#E08040"/>
  <rect x="16" y="10" width="1" height="1" fill="#F09050"/>
  <rect x="17" y="10" width="1" height="1" fill="#D07030"/>
  
  <!-- row11 腮红+鼻子 -->
  <rect x="8" y="11" width="1" height="1" fill="#D07030"/>
  <rect x="9" y="11" width="1" height="1" fill="#FFB0C0"/>
  <rect x="10" y="11" width="1" height="1" fill="#F09050"/>
  <rect x="11" y="11" width="1" height="1" fill="#F09050"/>
  <rect x="12" y="11" width="1" height="1" fill="#2A2A2A"/>
  <rect x="13" y="11" width="1" height="1" fill="#F09050"/>
  <rect x="14" y="11" width="1" height="1" fill="#F09050"/>
  <rect x="15" y="11" width="1" height="1" fill="#FFB0C0"/>
  <rect x="16" y="11" width="1" height="1" fill="#E08040"/>
  <rect x="17" y="11" width="1" height="1" fill="#D07030"/>
  
  <!-- row12 下巴 -->
  <rect x="9" y="12" width="1" height="1" fill="#D07030"/>
  <rect x="10" y="12" width="1" height="1" fill="#E08040"/>
  <rect x="11" y="12" width="1" height="1" fill="#F09050"/>
  <rect x="12" y="12" width="1" height="1" fill="#F09050"/>
  <rect x="13" y="12" width="1" height="1" fill="#F09050"/>
  <rect x="14" y="12" width="1" height="1" fill="#F09050"/>
  <rect x="15" y="12" width="1" height="1" fill="#E08040"/>
  <rect x="16" y="12" width="1" height="1" fill="#D07030"/>
  
  <!-- 项圈（看不太到，只露一点） -->
  <rect x="16" y="12" width="1" height="1" fill="#FFD700"/>
  <rect x="17" y="12" width="1" height="1" fill="#FF3030"/>
  
  <!-- 身体（蜷缩成球） -->
  <rect x="14" y="13" width="1" height="1" fill="#D07030"/>
  <rect x="15" y="13" width="1" height="1" fill="#E08040"/>
  <rect x="16" y="13" width="1" height="1" fill="#F09050"/>
  <rect x="17" y="13" width="1" height="1" fill="#F09050"/>
  <rect x="18" y="13" width="1" height="1" fill="#E08040"/>
  <rect x="19" y="13" width="1" height="1" fill="#D07030"/>
  <rect x="20" y="13" width="1" height="1" fill="#E08040"/>
  <rect x="21" y="13" width="1" height="1" fill="#F09050"/>
  <rect x="22" y="13" width="1" height="1" fill="#D07030"/>
  
  <rect x="13" y="14" width="1" height="1" fill="#D07030"/>
  <rect x="14" y="14" width="1" height="1" fill="#E08040"/>
  <rect x="15" y="14" width="1" height="1" fill="#F09050"/>
  <rect x="16" y="14" width="1" height="1" fill="#D07030"/>
  <rect x="17" y="14" width="1" height="1" fill="#F09050"/>
  <rect x="18" y="14" width="1" height="1" fill="#E08040"/>
  <rect x="19" y="14" width="1" height="1" fill="#F09050"/>
  <rect x="20" y="14" width="1" height="1" fill="#D07030"/>
  <rect x="21" y="14" width="1" height="1" fill="#F09050"/>
  <rect x="22" y="14" width="1" height="1" fill="#E08040"/>
  <rect x="23" y="14" width="1" height="1" fill="#D07030"/>
  
  <rect x="12" y="15" width="1" height="1" fill="#D07030"/>
  <rect x="13" y="15" width="1" height="1" fill="#E08040"/>
  <rect x="14" y="15" width="1" height="1" fill="#F09050"/>
  <rect x="15" y="15" width="1" height="1" fill="#E08040"/>
  <rect x="16" y="15" width="1" height="1" fill="#F09050"/>
  <rect x="17" y="15" width="1" height="1" fill="#D07030"/>
  <rect x="18" y="15" width="1" height="1" fill="#F09050"/>
  <rect x="19" y="15" width="1" height="1" fill="#E08040"/>
  <rect x="20" y="15" width="1" height="1" fill="#F09050"/>
  <rect x="21" y="15" width="1" height="1" fill="#D07030"/>
  <rect x="22" y="15" width="1" height="1" fill="#F09050"/>
  <rect x="23" y="15" width="1" height="1" fill="#E08040"/>
  <rect x="24" y="15" width="1" height="1" fill="#D07030"/>
  
  <!-- 尾巴绕身体 -->
  <rect x="24" y="14" width="1" height="1" fill="#E08040"/>
  <rect x="25" y="14" width="1" height="1" fill="#F09050"/>
  <rect x="25" y="15" width="1" height="1" fill="#D07030"/>
  
  <!-- 脚爪露出来一点 -->
  <rect x="11" y="15" width="1" height="1" fill="#FFFFFF"/>
  <rect x="12" y="16" width="1" height="1" fill="#FFFFFF"/>
  <rect x="13" y="16" width="1" height="1" fill="#FFFFFF"/>
  
  <!-- 后脚 -->
  <rect x="22" y="16" width="1" height="1" fill="#FFFFFF"/>
  <rect x="23" y="16" width="1" height="1" fill="#FFFFFF"/>
  
  <!-- Z字睡觉符号 -->
  <rect x="18" y="5" width="1" height="1" fill="#6060A0"/>
  <rect x="19" y="5" width="1" height="1" fill="#6060A0"/>
  <rect x="20" y="5" width="1" height="1" fill="#6060A0"/>
  <rect x="19" y="6" width="1" height="1" fill="#6060A0"/>
  <rect x="18" y="7" width="1" height="1" fill="#6060A0"/>
  <rect x="19" y="7" width="1" height="1" fill="#6060A0"/>
  <rect x="20" y="7" width="1" height="1" fill="#6060A0"/>
  
  <!-- 小Z -->
  <rect x="22" y="3" width="1" height="1" fill="#8080B0"/>
  <rect x="23" y="3" width="1" height="1" fill="#8080B0"/>
  <rect x="22" y="4" width="1" height="1" fill="#8080B0"/>
  <rect x="22" y="5" width="1" height="1" fill="#8080B0"/>
  <rect x="23" y="5" width="1" height="1" fill="#8080B0"/>
</svg>
