<svg xmlns="http://www.w3.org/2000/svg" viewBox="0 0 32 32" width="32" height="32" style="image-rendering: pixelated;">
  <!-- Grass Tile 32x32 - 可无缝平铺 -->
  
  <!-- 基础草地底色 -->
  <rect x="0" y="0" width="32" height="32" fill="#4CAF50"/>
  
  <!-- 深色变化 -->
  <rect x="2" y="3" width="2" height="1" fill="#43A047"/>
  <rect x="8" y="1" width="1" height="2" fill="#388E3C"/>
  <rect x="15" y="4" width="2" height="1" fill="#43A047"/>
  <rect x="22" y="2" width="1" height="1" fill="#388E3C"/>
  <rect x="28" y="5" width="2" height="1" fill="#43A047"/>
  
  <rect x="1" y="10" width="1" height="1" fill="#388E3C"/>
  <rect x="6" y="12" width="2" height="1" fill="#43A047"/>
  <rect x="14" y="9" width="1" height="2" fill="#388E3C"/>
  <rect x="20" y="11" width="2" height="1" fill="#43A047"/>
  <rect x="26" y="13" width="1" height="1" fill="#388E3C"/>
  <rect x="30" y="10" width="1" height="1" fill="#43A047"/>
  
  <rect x="4" y="18" width="1" height="1" fill="#388E3C"/>
  <rect x="10" y="20" width="2" height="1" fill="#43A047"/>
  <rect x="17" y="17" width="1" height="2" fill="#388E3C"/>
  <rect x="24" y="19" width="1" height="1" fill="#43A047"/>
  <rect x="29" y="21" width="1" height="1" fill="#388E3C"/>
  
  <rect x="0" y="26" width="2" height="1" fill="#43A047"/>
  <rect x="7" y="28" width="1" height="1" fill="#388E3C"/>
  <rect x="13" y="25" width="2" height="1" fill="#43A047"/>
  <rect x="21" y="27" width="1" height="2" fill="#388E3C"/>
  <rect x="27" y="29" width="2" height="1" fill="#43A047"/>
  
  <!-- 浅色高光 -->
  <rect x="5" y="6" width="1" height="1" fill="#66BB6A"/>
  <rect x="12" y="3" width="1" height="1" fill="#81C784"/>
  <rect x="19" y="7" width="1" height="1" fill="#66BB6A"/>
  <rect x="25" y="4" width="1" height="1" fill="#81C784"/>
  
  <rect x="3" y="14" width="1" height="1" fill="#81C784"/>
  <rect x="9" y="16" width="1" height="1" fill="#66BB6A"/>
  <rect x="16" y="13" width="1" height="1" fill="#81C784"/>
  <rect x="23" y="15" width="1" height="1" fill="#66BB6A"/>
  <rect x="28" y="17" width="1" height="1" fill="#81C784"/>
  
  <rect x="1" y="22" width="1" height="1" fill="#66BB6A"/>
  <rect x="8" y="24" width="1" height="1" fill="#81C784"/>
  <rect x="15" y="23" width="1" height="1" fill="#66BB6A"/>
  <rect x="22" y="25" width="1" height="1" fill="#81C784"/>
  <rect x="30" y="24" width="1" height="1" fill="#66BB6A"/>
  
  <rect x="4" y="30" width="1" height="1" fill="#81C784"/>
  <rect x="11" y="31" width="1" height="1" fill="#66BB6A"/>
  <rect x="18" y="29" width="1" height="1" fill="#81C784"/>
  <rect x="26" y="31" width="1" height="1" fill="#66BB6A"/>
  
  <!-- 小花装饰 -->
  <rect x="6" y="8" width="1" height="1" fill="#FFEB3B"/>
  <rect x="18" y="5" width="1" height="1" fill="#FFFFFF"/>
  <rect x="25" y="22" width="1" height="1" fill="#FFEB3B"/>
  <rect x="10" y="27" width="1" height="1" fill="#FFFFFF"/>
</svg>
