<svg xmlns="http://www.w3.org/2000/svg" viewBox="0 0 32 32" width="32" height="32" style="image-rendering: pixelated;">
  <!-- Sand Tile 32x32 - 沙地，可无缝平铺 -->
  
  <!-- 基础沙地底色 -->
  <rect x="0" y="0" width="32" height="32" fill="#E8D4A0"/>
  
  <!-- 深色砂粒 -->
  <rect x="2" y="1" width="1" height="1" fill="#D4C090"/>
  <rect x="7" y="3" width="1" height="1" fill="#C8B080"/>
  <rect x="13" y="2" width="1" height="1" fill="#D4C090"/>
  <rect x="19" y="4" width="1" height="1" fill="#C8B080"/>
  <rect x="25" y="1" width="1" height="1" fill="#D4C090"/>
  <rect x="30" y="3" width="1" height="1" fill="#C8B080"/>
  
  <rect x="4" y="7" width="1" height="1" fill="#C8B080"/>
  <rect x="10" y="5" width="1" height="1" fill="#D4C090"/>
  <rect x="16" y="8" width="1" height="1" fill="#C8B080"/>
  <rect x="22" y="6" width="1" height="1" fill="#D4C090"/>
  <rect x="28" y="7" width="1" height="1" fill="#C8B080"/>
  
  <rect x="1" y="11" width="1" height="1" fill="#D4C090"/>
  <rect x="6" y="13" width="1" height="1" fill="#C8B080"/>
  <rect x="12" y="10" width="1" height="1" fill="#D4C090"/>
  <rect x="18" y="12" width="1" height="1" fill="#C8B080"/>
  <rect x="24" y="11" width="1" height="1" fill="#D4C090"/>
  <rect x="29" y="14" width="1" height="1" fill="#C8B080"/>
  
  <rect x="3" y="17" width="1" height="1" fill="#C8B080"/>
  <rect x="9" y="15" width="1" height="1" fill="#D4C090"/>
  <rect x="14" y="18" width="1" height="1" fill="#C8B080"/>
  <rect x="21" y="16" width="1" height="1" fill="#D4C090"/>
  <rect x="27" y="17" width="1" height="1" fill="#C8B080"/>
  
  <rect x="0" y="21" width="1" height="1" fill="#D4C090"/>
  <rect x="5" y="23" width="1" height="1" fill="#C8B080"/>
  <rect x="11" y="20" width="1" height="1" fill="#D4C090"/>
  <rect x="17" y="22" width="1" height="1" fill="#C8B080"/>
  <rect x="23" y="21" width="1" height="1" fill="#D4C090"/>
  <rect x="28" y="24" width="1" height="1" fill="#C8B080"/>
  
  <rect x="2" y="27" width="1" height="1" fill="#C8B080"/>
  <rect x="8" y="25" width="1" height="1" fill="#D4C090"/>
  <rect x="15" y="28" width="1" height="1" fill="#C8B080"/>
  <rect x="20" y="26" width="1" height="1" fill="#D4C090"/>
  <rect x="26" y="27" width="1" height="1" fill="#C8B080"/>
  <rect x="31" y="29" width="1" height="1" fill="#D4C090"/>
  
  <!-- 浅色高光 -->
  <rect x="5" y="2" width="1" height="1" fill="#F4E8C0"/>
  <rect x="11" y="4" width="1" height="1" fill="#FFF8E0"/>
  <rect x="17" y="1" width="1" height="1" fill="#F4E8C0"/>
  <rect x="23" y="3" width="1" height="1" fill="#FFF8E0"/>
  
  <rect x="3" y="9" width="1" height="1" fill="#FFF8E0"/>
  <rect x="9" y="7" width="1" height="1" fill="#F4E8C0"/>
  <rect x="15" y="10" width="1" height="1" fill="#FFF8E0"/>
  <rect x="21" y="8" width="1" height="1" fill="#F4E8C0"/>
  <rect x="27" y="9" width="1" height="1" fill="#FFF8E0"/>
  
  <rect x="1" y="15" width="1" height="1" fill="#F4E8C0"/>
  <rect x="7" y="17" width="1" height="1" fill="#FFF8E0"/>
  <rect x="13" y="14" width="1" height="1" fill="#F4E8C0"/>
  <rect x="19" y="16" width="1" height="1" fill="#FFF8E0"/>
  <rect x="25" y="15" width="1" height="1" fill="#F4E8C0"/>
  <rect x="30" y="18" width="1" height="1" fill="#FFF8E0"/>
  
  <rect x="4" y="23" width="1" height="1" fill="#FFF8E0"/>
  <rect x="10" y="21" width="1" height="1" fill="#F4E8C0"/>
  <rect x="16" y="24" width="1" height="1" fill="#FFF8E0"/>
  <rect x="22" y="22" width="1" height="1" fill="#F4E8C0"/>
  <rect x="29" y="23" width="1" height="1" fill="#FFF8E0"/>
  
  <rect x="6" y="29" width="1" height="1" fill="#F4E8C0"/>
  <rect x="12" y="27" width="1" height="1" fill="#FFF8E0"/>
  <rect x="18" y="30" width="1" height="1" fill="#F4E8C0"/>
  <rect x="24" y="28" width="1" height="1" fill="#FFF8E0"/>
  
  <!-- 小石头/贝壳装饰 -->
  <rect x="9" y="12" width="1" height="1" fill="#A09080"/>
  <rect x="22" y="19" width="1" height="1" fill="#B0A090"/>
  <rect x="4" y="26" width="1" height="1" fill="#A09080"/>
  <rect x="27" y="5" width="1" height="1" fill="#B0A090"/>
</svg>
