<svg xmlns="http://www.w3.org/2000/svg" viewBox="0 0 32 32" width="32" height="32" style="image-rendering: pixelated;">
  <!-- Water Tile 32x32 - 水面，可无缝平铺 -->
  
  <!-- 基础水面底色 -->
  <rect x="0" y="0" width="32" height="32" fill="#4FC3F7"/>
  
  <!-- 深色波纹 -->
  <rect x="0" y="4" width="4" height="1" fill="#29B6F6"/>
  <rect x="6" y="5" width="5" height="1" fill="#29B6F6"/>
  <rect x="14" y="4" width="4" height="1" fill="#29B6F6"/>
  <rect x="21" y="5" width="6" height="1" fill="#29B6F6"/>
  <rect x="29" y="4" width="3" height="1" fill="#29B6F6"/>
  
  <rect x="2" y="12" width="5" height="1" fill="#29B6F6"/>
  <rect x="10" y="11" width="4" height="1" fill="#29B6F6"/>
  <rect x="17" y="12" width="5" height="1" fill="#29B6F6"/>
  <rect x="25" y="11" width="4" height="1" fill="#29B6F6"/>
  
  <rect x="0" y="20" width="3" height="1" fill="#29B6F6"/>
  <rect x="5" y="19" width="5" height="1" fill="#29B6F6"/>
  <rect x="13" y="20" width="4" height="1" fill="#29B6F6"/>
  <rect x="20" y="19" width="6" height="1" fill="#29B6F6"/>
  <rect x="28" y="20" width="4" height="1" fill="#29B6F6"/>
  
  <rect x="3" y="28" width="4" height="1" fill="#29B6F6"/>
  <rect x="9" y="27" width="5" height="1" fill="#29B6F6"/>
  <rect x="16" y="28" width="4" height="1" fill="#29B6F6"/>
  <rect x="23" y="27" width="5" height="1" fill="#29B6F6"/>
  
  <!-- 更深色波纹 -->
  <rect x="1" y="5" width="2" height="1" fill="#039BE5"/>
  <rect x="8" y="6" width="3" height="1" fill="#039BE5"/>
  <rect x="16" y="5" width="2" height="1" fill="#039BE5"/>
  <rect x="24" y="6" width="3" height="1" fill="#039BE5"/>
  
  <rect x="4" y="12" width="3" height="1" fill="#039BE5"/>
  <rect x="12" y="12" width="2" height="1" fill="#039BE5"/>
  <rect x="19" y="13" width="3" height="1" fill="#039BE5"/>
  <rect x="27" y="12" width="2" height="1" fill="#039BE5"/>
  
  <rect x="0" y="21" width="1" height="1" fill="#039BE5"/>
  <rect x="7" y="20" width="3" height="1" fill="#039BE5"/>
  <rect x="15" y="21" width="2" height="1" fill="#039BE5"/>
  <rect x="22" y="20" width="4" height="1" fill="#039BE5"/>
  <rect x="30" y="21" width="2" height="1" fill="#039BE5"/>
  
  <rect x="5" y="28" width="2" height="1" fill="#039BE5"/>
  <rect x="11" y="28" width="3" height="1" fill="#039BE5"/>
  <rect x="18" y="29" width="2" height="1" fill="#039BE5"/>
  <rect x="25" y="28" width="3" height="1" fill="#039BE5"/>
  
  <!-- 高光反射 -->
  <rect x="3" y="2" width="2" height="1" fill="#81D4FA"/>
  <rect x="12" y="3" width="1" height="1" fill="#B3E5FC"/>
  <rect x="19" y="2" width="2" height="1" fill="#81D4FA"/>
  <rect x="27" y="3" width="1" height="1" fill="#B3E5FC"/>
  
  <rect x="6" y="9" width="1" height="1" fill="#B3E5FC"/>
  <rect x="14" y="10" width="2" height="1" fill="#81D4FA"/>
  <rect x="22" y="9" width="1" height="1" fill="#B3E5FC"/>
  <rect x="29" y="10" width="1" height="1" fill="#81D4FA"/>
  
  <rect x="1" y="17" width="2" height="1" fill="#81D4FA"/>
  <rect x="10" y="16" width="1" height="1" fill="#B3E5FC"/>
  <rect x="17" y="17" width="2" height="1" fill="#81D4FA"/>
  <rect x="25" y="16" width="1" height="1" fill="#B3E5FC"/>
  
  <rect x="7" y="24" width="1" height="1" fill="#B3E5FC"/>
  <rect x="14" y="25" width="2" height="1" fill="#81D4FA"/>
  <rect x="21" y="24" width="1" height="1" fill="#B3E5FC"/>
  <rect x="28" y="25" width="2" height="1" fill="#81D4FA"/>
  
  <!-- 气泡装饰 -->
  <rect x="4" y="8" width="1" height="1" fill="#E1F5FE"/>
  <rect x="18" y="14" width="1" height="1" fill="#E1F5FE"/>
  <rect x="26" y="22" width="1" height="1" fill="#E1F5FE"/>
  <rect x="9" y="30" width="1" height="1" fill="#E1F5FE"/>
</svg>
