<svg xmlns="http://www.w3.org/2000/svg" viewBox="0 0 16 16" width="256" height="256" style="image-rendering: pixelated;">
  <!-- 像素头精灵 - 绿色变体 Green -->
  <rect x="4" y="2" width="8" height="1" fill="#3A5A4A"/>
  <rect x="3" y="3" width="1" height="1" fill="#3A5A4A"/>
  <rect x="12" y="3" width="1" height="1" fill="#3A5A4A"/>
  <rect x="2" y="4" width="1" height="8" fill="#3A5A4A"/>
  <rect x="13" y="4" width="1" height="8" fill="#3A5A4A"/>
  <rect x="3" y="12" width="1" height="1" fill="#3A5A4A"/>
  <rect x="12" y="12" width="1" height="1" fill="#3A5A4A"/>
  <rect x="4" y="13" width="8" height="1" fill="#3A5A4A"/>
  
  <rect x="4" y="3" width="8" height="1" fill="#D4F8E8"/>
  <rect x="3" y="4" width="10" height="8" fill="#D4F8E8"/>
  <rect x="4" y="12" width="8" height="1" fill="#D4F8E8"/>
  <rect x="4" y="4" width="3" height="2" fill="#E8FFF4"/>
  
  <rect x="5" y="6" width="2" height="2" fill="#3A5A4A"/>
  <rect x="5" y="6" width="1" height="1" fill="#FFFFFF"/>
  <rect x="9" y="6" width="2" height="2" fill="#3A5A4A"/>
  <rect x="9" y="6" width="1" height="1" fill="#FFFFFF"/>
  
  <rect x="3" y="8" width="2" height="1" fill="#A8E8C8"/>
  <rect x="11" y="8" width="2" height="1" fill="#A8E8C8"/>
  
  <rect x="7" y="10" width="2" height="1" fill="#7AC8A8"/>
  
  <rect x="4" y="1" width="2" height="1" fill="#B8F0D8"/>
  <rect x="10" y="1" width="2" height="1" fill="#B8F0D8"/>
</svg>