<svg xmlns="http://www.w3.org/2000/svg" viewBox="0 0 32 32" width="256" height="256" style="image-rendering: pixelated;">
  <!-- 只有头的像素精灵 - 基础版 -->
  <!-- 32x32 像素网格 -->
  
  <style>
    rect { shape-rendering: crispEdges; }
  </style>
  
  <!-- 主体轮廓 - 圆头 -->
  <!-- 外圈轮廓 (深色) -->
  <rect x="10" y="4" width="1" height="1" fill="#4A3A3A"/>
  <rect x="11" y="4" width="1" height="1" fill="#4A3A3A"/>
  <rect x="12" y="4" width="1" height="1" fill="#4A3A3A"/>
  <rect x="13" y="4" width="1" height="1" fill="#4A3A3A"/>
  <rect x="14" y="4" width="1" height="1" fill="#4A3A3A"/>
  <rect x="15" y="4" width="1" height="1" fill="#4A3A3A"/>
  <rect x="16" y="4" width="1" height="1" fill="#4A3A3A"/>
  <rect x="17" y="4" width="1" height="1" fill="#4A3A3A"/>
  <rect x="18" y="4" width="1" height="1" fill="#4A3A3A"/>
  <rect x="19" y="4" width="1" height="1" fill="#4A3A3A"/>
  <rect x="20" y="4" width="1" height="1" fill="#4A3A3A"/>
  <rect x="21" y="4" width="1" height="1" fill="#4A3A3A"/>
  
  <!-- 左侧轮廓 -->
  <rect x="8" y="5" width="1" height="1" fill="#4A3A3A"/>
  <rect x="9" y="5" width="1" height="1" fill="#4A3A3A"/>
  <rect x="7" y="6" width="1" height="1" fill="#4A3A3A"/>
  <rect x="8" y="6" width="1" height="1" fill="#4A3A3A"/>
  <rect x="6" y="7" width="1" height="1" fill="#4A3A3A"/>
  <rect x="7" y="7" width="1" height="1" fill="#4A3A3A"/>
  <rect x="5" y="8" width="1" height="1" fill="#4A3A3A"/>
  <rect x="6" y="8" width="1" height="1" fill="#4A3A3A"/>
  <rect x="5" y="9" width="1" height="1" fill="#4A3A3A"/>
  <rect x="4" y="10" width="1" height="1" fill="#4A3A3A"/>
  <rect x="5" y="10" width="1" height="1" fill="#4A3A3A"/>
  <rect x="4" y="11" width="1" height="1" fill="#4A3A3A"/>
  <rect x="4" y="12" width="1" height="1" fill="#4A3A3A"/>
  <rect x="4" y="13" width="1" height="1" fill="#4A3A3A"/>
  <rect x="4" y="14" width="1" height="1" fill="#4A3A3A"/>
  <rect x="4" y="15" width="1" height="1" fill="#4A3A3A"/>
  <rect x="4" y="16" width="1" height="1" fill="#4A3A3A"/>
  <rect x="4" y="17" width="1" height="1" fill="#4A3A3A"/>
  <rect x="4" y="18" width="1" height="1" fill="#4A3A3A"/>
  <rect x="4" y="19" width="1" height="1" fill="#4A3A3A"/>
  <rect x="5" y="20" width="1" height="1" fill="#4A3A3A"/>
  <rect x="5" y="21" width="1" height="1" fill="#4A3A3A"/>
  <rect x="6" y="22" width="1" height="1" fill="#4A3A3A"/>
  <rect x="7" y="23" width="1" height="1" fill="#4A3A3A"/>
  <rect x="8" y="24" width="1" height="1" fill="#4A3A3A"/>
  <rect x="9" y="25" width="1" height="1" fill="#4A3A3A"/>
  <rect x="10" y="26" width="1" height="1" fill="#4A3A3A"/>
  
  <!-- 右侧轮廓 -->
  <rect x="22" y="5" width="1" height="1" fill="#4A3A3A"/>
  <rect x="23" y="5" width="1" height="1" fill="#4A3A3A"/>
  <rect x="23" y="6" width="1" height="1" fill="#4A3A3A"/>
  <rect x="24" y="6" width="1" height="1" fill="#4A3A3A"/>
  <rect x="24" y="7" width="1" height="1" fill="#4A3A3A"/>
  <rect x="25" y="7" width="1" height="1" fill="#4A3A3A"/>
  <rect x="25" y="8" width="1" height="1" fill="#4A3A3A"/>
  <rect x="26" y="8" width="1" height="1" fill="#4A3A3A"/>
  <rect x="26" y="9" width="1" height="1" fill="#4A3A3A"/>
  <rect x="26" y="10" width="1" height="1" fill="#4A3A3A"/>
  <rect x="27" y="10" width="1" height="1" fill="#4A3A3A"/>
  <rect x="27" y="11" width="1" height="1" fill="#4A3A3A"/>
  <rect x="27" y="12" width="1" height="1" fill="#4A3A3A"/>
  <rect x="27" y="13" width="1" height="1" fill="#4A3A3A"/>
  <rect x="27" y="14" width="1" height="1" fill="#4A3A3A"/>
  <rect x="27" y="15" width="1" height="1" fill="#4A3A3A"/>
  <rect x="27" y="16" width="1" height="1" fill="#4A3A3A"/>
  <rect x="27" y="17" width="1" height="1" fill="#4A3A3A"/>
  <rect x="27" y="18" width="1" height="1" fill="#4A3A3A"/>
  <rect x="27" y="19" width="1" height="1" fill="#4A3A3A"/>
  <rect x="26" y="20" width="1" height="1" fill="#4A3A3A"/>
  <rect x="26" y="21" width="1" height="1" fill="#4A3A3A"/>
  <rect x="25" y="22" width="1" height="1" fill="#4A3A3A"/>
  <rect x="24" y="23" width="1" height="1" fill="#4A3A3A"/>
  <rect x="23" y="24" width="1" height="1" fill="#4A3A3A"/>
  <rect x="22" y="25" width="1" height="1" fill="#4A3A3A"/>
  <rect x="21" y="26" width="1" height="1" fill="#4A3A3A"/>
  
  <!-- 底部轮廓 -->
  <rect x="11" y="26" width="10" height="1" fill="#4A3A3A"/>
  
  <!-- 填充 - 主体粉色 -->
  <rect x="10" y="5" width="12" height="1" fill="#FFE4E1"/>
  <rect x="9" y="6" width="14" height="1" fill="#FFE4E1"/>
  <rect x="8" y="7" width="16" height="1" fill="#FFE4E1"/>
  <rect x="7" y="8" width="18" height="1" fill="#FFE4E1"/>
  <rect x="6" y="9" width="20" height="1" fill="#FFE4E1"/>
  <rect x="6" y="10" width="20" height="1" fill="#FFE4E1"/>
  <rect x="5" y="11" width="22" height="1" fill="#FFE4E1"/>
  <rect x="5" y="12" width="22" height="1" fill="#FFE4E1"/>
  <rect x="5" y="13" width="22" height="1" fill="#FFE4E1"/>
  <rect x="5" y="14" width="22" height="1" fill="#FFE4E1"/>
  <rect x="5" y="15" width="22" height="1" fill="#FFE4E1"/>
  <rect x="5" y="16" width="22" height="1" fill="#FFE4E1"/>
  <rect x="5" y="17" width="22" height="1" fill="#FFE4E1"/>
  <rect x="5" y="18" width="22" height="1" fill="#FFE4E1"/>
  <rect x="5" y="19" width="22" height="1" fill="#FFE4E1"/>
  <rect x="6" y="20" width="20" height="1" fill="#FFE4E1"/>
  <rect x="6" y="21" width="20" height="1" fill="#FFE4E1"/>
  <rect x="7" y="22" width="18" height="1" fill="#FFE4E1"/>
  <rect x="8" y="23" width="16" height="1" fill="#FFE4E1"/>
  <rect x="9" y="24" width="14" height="1" fill="#FFE4E1"/>
  <rect x="10" y="25" width="12" height="1" fill="#FFE4E1"/>
  
  <!-- 高光 - 左上角 -->
  <rect x="9" y="7" width="4" height="2" fill="#FFFFFF"/>
  <rect x="8" y="8" width="3" height="2" fill="#FFFFFF"/>
  
  <!-- 眼睛 -->
  <rect x="10" y="12" width="3" height="4" fill="#3A2A2A"/>
  <rect x="19" y="12" width="3" height="4" fill="#3A2A2A"/>
  <!-- 眼睛高光 -->
  <rect x="11" y="12" width="1" height="1" fill="#FFFFFF"/>
  <rect x="20" y="12" width="1" height="1" fill="#FFFFFF"/>
  
  <!-- 腮红 -->
  <rect x="6" y="16" width="2" height="2" fill="#FFB6C1"/>
  <rect x="24" y="16" width="2" height="2" fill="#FFB6C1"/>
  
  <!-- 嘴巴 - 微笑 -->
  <rect x="14" y="20" width="1" height="1" fill="#E8967A"/>
  <rect x="15" y="21" width="2" height="1" fill="#E8967A"/>
  <rect x="17" y="20" width="1" height="1" fill="#E8967A"/>
  
  <!-- 小耳朵/触角 -->
  <rect x="8" y="2" width="2" height="2" fill="#FFD5CD"/>
  <rect x="8" y="2" width="2" height="1" fill="#4A3A3A"/>
  <rect x="8" y="2" width="1" height="2" fill="#4A3A3A"/>
  
  <rect x="22" y="2" width="2" height="2" fill="#FFD5CD"/>
  <rect x="22" y="2" width="2" height="1" fill="#4A3A3A"/>
  <rect x="23" y="2" width="1" height="2" fill="#4A3A3A"/>
</svg>