<svg xmlns="http://www.w3.org/2000/svg" viewBox="0 0 16 16" width="256" height="256" style="image-rendering: pixelated;">
  <!-- 像素头精灵 - 派对帽 Party -->
  <rect x="4" y="4" width="8" height="1" fill="#4A3A3A"/>
  <rect x="3" y="5" width="1" height="1" fill="#4A3A3A"/>
  <rect x="12" y="5" width="1" height="1" fill="#4A3A3A"/>
  <rect x="2" y="6" width="1" height="8" fill="#4A3A3A"/>
  <rect x="13" y="6" width="1" height="8" fill="#4A3A3A"/>
  <rect x="3" y="14" width="1" height="1" fill="#4A3A3A"/>
  <rect x="12" y="14" width="1" height="1" fill="#4A3A3A"/>
  <rect x="4" y="15" width="8" height="1" fill="#4A3A3A"/>
  
  <rect x="4" y="5" width="8" height="1" fill="#FFE4E1"/>
  <rect x="3" y="6" width="10" height="8" fill="#FFE4E1"/>
  <rect x="4" y="14" width="8" height="1" fill="#FFE4E1"/>
  <rect x="4" y="6" width="3" height="2" fill="#FFF5F0"/>
  
  <!-- 派对帽 -->
  <rect x="7" y="0" width="2" height="1" fill="#FF6B8A"/>
  <rect x="6" y="1" width="4" height="1" fill="#FF6B8A"/>
  <rect x="5" y="2" width="6" height="1" fill="#FFD93D"/>
  <rect x="4" y="3" width="8" height="1" fill="#58CC02"/>
  
  <rect x="5" y="8" width="2" height="2" fill="#3A2A2A"/>
  <rect x="5" y="8" width="1" height="1" fill="#FFFFFF"/>
  <rect x="9" y="8" width="2" height="2" fill="#3A2A2A"/>
  <rect x="9" y="8" width="1" height="1" fill="#FFFFFF"/>
  
  <rect x="3" y="10" width="2" height="1" fill="#FFB6C1"/>
  <rect x="11" y="10" width="2" height="1" fill="#FFB6C1"/>
  
  <rect x="6" y="12" width="4" height="1" fill="#E8967A"/>
  
  <!-- 彩带 -->
  <rect x="1" y="5" width="1" height="1" fill="#FFD93D"/>
  <rect x="14" y="6" width="1" height="1" fill="#FF6B8A"/>
  <rect x="0" y="8" width="1" height="1" fill="#58CC02"/>
</svg>