<svg xmlns="http://www.w3.org/2000/svg" viewBox="0 0 16 16" width="256" height="256" style="image-rendering: pixelated;">
  <!-- 像素头精灵 - 天使光环 Angel -->
  <rect x="4" y="4" width="8" height="1" fill="#4A3A3A"/>
  <rect x="3" y="5" width="1" height="1" fill="#4A3A3A"/>
  <rect x="12" y="5" width="1" height="1" fill="#4A3A3A"/>
  <rect x="2" y="6" width="1" height="8" fill="#4A3A3A"/>
  <rect x="13" y="6" width="1" height="8" fill="#4A3A3A"/>
  <rect x="3" y="14" width="1" height="1" fill="#4A3A3A"/>
  <rect x="12" y="14" width="1" height="1" fill="#4A3A3A"/>
  <rect x="4" y="15" width="8" height="1" fill="#4A3A3A"/>
  
  <rect x="4" y="5" width="8" height="1" fill="#FFF8E8"/>
  <rect x="3" y="6" width="10" height="8" fill="#FFF8E8"/>
  <rect x="4" y="14" width="8" height="1" fill="#FFF8E8"/>
  <rect x="4" y="6" width="3" height="2" fill="#FFFFFF"/>
  
  <!-- 光环 -->
  <rect x="5" y="1" width="6" height="1" fill="#FFD700"/>
  <rect x="4" y="2" width="1" height="1" fill="#FFD700"/>
  <rect x="11" y="2" width="1" height="1" fill="#FFD700"/>
  <rect x="5" y="3" width="6" height="1" fill="#FFD700"/>
  
  <rect x="5" y="8" width="2" height="2" fill="#3A2A2A"/>
  <rect x="5" y="8" width="1" height="1" fill="#FFFFFF"/>
  <rect x="9" y="8" width="2" height="2" fill="#3A2A2A"/>
  <rect x="9" y="8" width="1" height="1" fill="#FFFFFF"/>
  
  <rect x="3" y="10" width="2" height="1" fill="#FFD4D4"/>
  <rect x="11" y="10" width="2" height="1" fill="#FFD4D4"/>
  
  <rect x="7" y="12" width="2" height="1" fill="#E8A080"/>
  
  <!-- 翅膀 -->
  <rect x="0" y="8" width="2" height="3" fill="#E8E8FF"/>
  <rect x="14" y="8" width="2" height="3" fill="#E8E8FF"/>
</svg>