<svg xmlns="http://www.w3.org/2000/svg" viewBox="0 0 16 16" width="256" height="256" style="image-rendering: pixelated;">
  <!-- 像素头精灵 - 小恶魔 Devil -->
  <rect x="4" y="4" width="8" height="1" fill="#5A3A3A"/>
  <rect x="3" y="5" width="1" height="1" fill="#5A3A3A"/>
  <rect x="12" y="5" width="1" height="1" fill="#5A3A3A"/>
  <rect x="2" y="6" width="1" height="8" fill="#5A3A3A"/>
  <rect x="13" y="6" width="1" height="8" fill="#5A3A3A"/>
  <rect x="3" y="14" width="1" height="1" fill="#5A3A3A"/>
  <rect x="12" y="14" width="1" height="1" fill="#5A3A3A"/>
  <rect x="4" y="15" width="8" height="1" fill="#5A3A3A"/>
  
  <rect x="4" y="5" width="8" height="1" fill="#FFD0D0"/>
  <rect x="3" y="6" width="10" height="8" fill="#FFD0D0"/>
  <rect x="4" y="14" width="8" height="1" fill="#FFD0D0"/>
  <rect x="4" y="6" width="3" height="2" fill="#FFE8E8"/>
  
  <!-- 小角 -->
  <rect x="3" y="2" width="2" height="2" fill="#AA3333"/>
  <rect x="4" y="1" width="1" height="1" fill="#AA3333"/>
  <rect x="11" y="2" width="2" height="2" fill="#AA3333"/>
  <rect x="11" y="1" width="1" height="1" fill="#AA3333"/>
  
  <rect x="5" y="8" width="2" height="2" fill="#5A2A2A"/>
  <rect x="5" y="8" width="1" height="1" fill="#FFFFFF"/>
  <rect x="9" y="8" width="2" height="2" fill="#5A2A2A"/>
  <rect x="9" y="8" width="1" height="1" fill="#FFFFFF"/>
  
  <rect x="3" y="10" width="2" height="1" fill="#FF8888"/>
  <rect x="11" y="10" width="2" height="1" fill="#FF8888"/>
  
  <!-- 坏笑 -->
  <rect x="6" y="12" width="1" height="1" fill="#AA5555"/>
  <rect x="7" y="13" width="2" height="1" fill="#AA5555"/>
  <rect x="9" y="12" width="1" height="1" fill="#AA5555"/>
  
  <!-- 尾巴 -->
  <rect x="14" y="12" width="2" height="1" fill="#AA3333"/>
  <rect x="15" y="11" width="1" height="1" fill="#AA3333"/>
</svg>