<svg xmlns="http://www.w3.org/2000/svg" viewBox="0 0 16 16" width="256" height="256" style="image-rendering: pixelated;">
  <!-- 像素头精灵 - 思考 Thinking -->
  <rect x="4" y="2" width="8" height="1" fill="#4A3A3A"/>
  <rect x="3" y="3" width="1" height="1" fill="#4A3A3A"/>
  <rect x="12" y="3" width="1" height="1" fill="#4A3A3A"/>
  <rect x="2" y="4" width="1" height="8" fill="#4A3A3A"/>
  <rect x="13" y="4" width="1" height="8" fill="#4A3A3A"/>
  <rect x="3" y="12" width="1" height="1" fill="#4A3A3A"/>
  <rect x="12" y="12" width="1" height="1" fill="#4A3A3A"/>
  <rect x="4" y="13" width="8" height="1" fill="#4A3A3A"/>
  
  <rect x="4" y="3" width="8" height="1" fill="#FFE4E1"/>
  <rect x="3" y="4" width="10" height="8" fill="#FFE4E1"/>
  <rect x="4" y="12" width="8" height="1" fill="#FFE4E1"/>
  <rect x="4" y="4" width="3" height="2" fill="#FFF5F0"/>
  
  <!-- 眼睛看向上方 -->
  <rect x="5" y="5" width="2" height="2" fill="#3A2A2A"/>
  <rect x="5" y="5" width="1" height="1" fill="#FFFFFF"/>
  <rect x="9" y="5" width="2" height="2" fill="#3A2A2A"/>
  <rect x="9" y="5" width="1" height="1" fill="#FFFFFF"/>
  
  <rect x="3" y="8" width="2" height="1" fill="#FFB6C1"/>
  <rect x="11" y="8" width="2" height="1" fill="#FFB6C1"/>
  
  <!-- 思考嘴型 -->
  <rect x="8" y="10" width="2" height="1" fill="#E8967A"/>
  
  <rect x="4" y="1" width="2" height="1" fill="#FFD5CD"/>
  <rect x="10" y="1" width="2" height="1" fill="#FFD5CD"/>
  
  <!-- 思考泡泡 -->
  <rect x="13" y="1" width="2" height="2" fill="#AAAACC"/>
  <rect x="14" y="4" width="1" height="1" fill="#CCCCDD"/>
</svg>