<svg xmlns="http://www.w3.org/2000/svg" viewBox="0 0 16 16" width="256" height="256" style="image-rendering: pixelated;">
  <!-- 像素头精灵 - 生气 Angry -->
  <rect x="4" y="2" width="8" height="1" fill="#4A3A3A"/>
  <rect x="3" y="3" width="1" height="1" fill="#4A3A3A"/>
  <rect x="12" y="3" width="1" height="1" fill="#4A3A3A"/>
  <rect x="2" y="4" width="1" height="8" fill="#4A3A3A"/>
  <rect x="13" y="4" width="1" height="8" fill="#4A3A3A"/>
  <rect x="3" y="12" width="1" height="1" fill="#4A3A3A"/>
  <rect x="12" y="12" width="1" height="1" fill="#4A3A3A"/>
  <rect x="4" y="13" width="8" height="1" fill="#4A3A3A"/>
  
  <rect x="4" y="3" width="8" height="1" fill="#FFD0D0"/>
  <rect x="3" y="4" width="10" height="8" fill="#FFD0D0"/>
  <rect x="4" y="12" width="8" height="1" fill="#FFD0D0"/>
  
  <!-- 愤怒眉毛 -->
  <rect x="4" y="5" width="3" height="1" fill="#4A3A3A"/>
  <rect x="9" y="5" width="3" height="1" fill="#4A3A3A"/>
  
  <!-- 眼睛 -->
  <rect x="5" y="7" width="2" height="2" fill="#3A2A2A"/>
  <rect x="9" y="7" width="2" height="2" fill="#3A2A2A"/>
  <rect x="5" y="7" width="1" height="1" fill="#FFFFFF"/>
  <rect x="9" y="7" width="1" height="1" fill="#FFFFFF"/>
  
  <!-- 愤怒的嘴 -->
  <rect x="6" y="11" width="4" height="1" fill="#C85050"/>
  
  <!-- 愤怒符号 -->
  <rect x="13" y="2" width="2" height="1" fill="#FF4444"/>
  <rect x="14" y="3" width="1" height="1" fill="#FF4444"/>
  
  <rect x="4" y="1" width="2" height="1" fill="#FFD5CD"/>
  <rect x="10" y="1" width="2" height="1" fill="#FFD5CD"/>
</svg>