<svg xmlns="http://www.w3.org/2000/svg" viewBox="0 0 32 32" width="128" height="128" style="image-rendering: pixelated;">
  <!-- 绅士猫 = 猫v4 + 礼帽 + 墨镜 + 红鞋 -->
  
  <!-- 礼帽 -->
  <rect x="11" y="0" width="1" height="1" fill="#2A2A2A"/>
  <rect x="12" y="0" width="1" height="1" fill="#3A3A3A"/>
  <rect x="13" y="0" width="1" height="1" fill="#3A3A3A"/>
  <rect x="14" y="0" width="1" height="1" fill="#3A3A3A"/>
  <rect x="15" y="0" width="1" height="1" fill="#3A3A3A"/>
  <rect x="16" y="0" width="1" height="1" fill="#3A3A3A"/>
  <rect x="17" y="0" width="1" height="1" fill="#3A3A3A"/>
  <rect x="18" y="0" width="1" height="1" fill="#3A3A3A"/>
  <rect x="19" y="0" width="1" height="1" fill="#3A3A3A"/>
  <rect x="20" y="0" width="1" height="1" fill="#2A2A2A"/>
  <rect x="10" y="1" width="1" height="1" fill="#2A2A2A"/>
  <rect x="11" y="1" width="1" height="1" fill="#4A4A4A"/>
  <rect x="12" y="1" width="1" height="1" fill="#5A5A5A"/>
  <rect x="13" y="1" width="1" height="1" fill="#5A5A5A"/>
  <rect x="14" y="1" width="1" height="1" fill="#5A5A5A"/>
  <rect x="15" y="1" width="1" height="1" fill="#5A5A5A"/>
  <rect x="16" y="1" width="1" height="1" fill="#5A5A5A"/>
  <rect x="17" y="1" width="1" height="1" fill="#5A5A5A"/>
  <rect x="18" y="1" width="1" height="1" fill="#5A5A5A"/>
  <rect x="19" y="1" width="1" height="1" fill="#4A4A4A"/>
  <rect x="20" y="1" width="1" height="1" fill="#3A3A3A"/>
  <rect x="21" y="1" width="1" height="1" fill="#2A2A2A"/>
  <rect x="10" y="2" width="1" height="1" fill="#2A2A2A"/>
  <rect x="11" y="2" width="1" height="1" fill="#4A4A4A"/>
  <rect x="12" y="2" width="1" height="1" fill="#5A5A5A"/>
  <rect x="19" y="2" width="1" height="1" fill="#4A4A4A"/>
  <rect x="20" y="2" width="1" height="1" fill="#3A3A3A"/>
  <rect x="21" y="2" width="1" height="1" fill="#2A2A2A"/>
  <rect x="10" y="3" width="1" height="1" fill="#2A2A2A"/>
  <rect x="11" y="3" width="1" height="1" fill="#AA3030"/>
  <rect x="12" y="3" width="1" height="1" fill="#CC4040"/>
  <rect x="19" y="3" width="1" height="1" fill="#AA3030"/>
  <rect x="20" y="3" width="1" height="1" fill="#AA3030"/>
  <rect x="21" y="3" width="1" height="1" fill="#2A2A2A"/>
  <rect x="7" y="4" width="1" height="1" fill="#2A2A2A"/>
  <rect x="8" y="4" width="1" height="1" fill="#3A3A3A"/>
  <rect x="9" y="4" width="1" height="1" fill="#4A4A4A"/>
  <rect x="22" y="4" width="1" height="1" fill="#3A3A3A"/>
  <rect x="23" y="4" width="1" height="1" fill="#3A3A3A"/>
  <rect x="24" y="4" width="1" height="1" fill="#2A2A2A"/>

  <!-- 猫脸 row5-13 -->
  <rect x="9" y="5" width="1" height="1" fill="#D08040"/>
  <rect x="10" y="5" width="1" height="1" fill="#E8A050"/>
  <rect x="11" y="5" width="1" height="1" fill="#D08040"/>
  <rect x="12" y="5" width="1" height="1" fill="#F0B060"/>
  <rect x="13" y="5" width="1" height="1" fill="#E8A050"/>
  <rect x="14" y="5" width="1" height="1" fill="#FFFFFF"/>
  <rect x="15" y="5" width="1" height="1" fill="#FFFFFF"/>
  <rect x="16" y="5" width="1" height="1" fill="#FFFFFF"/>
  <rect x="17" y="5" width="1" height="1" fill="#FFFFFF"/>
  <rect x="18" y="5" width="1" height="1" fill="#E8A050"/>
  <rect x="19" y="5" width="1" height="1" fill="#F0B060"/>
  <rect x="20" y="5" width="1" height="1" fill="#D08040"/>
  <rect x="21" y="5" width="1" height="1" fill="#E8A050"/>
  <rect x="22" y="5" width="1" height="1" fill="#D08040"/>
  
  <rect x="8" y="6" width="1" height="1" fill="#D08040"/>
  <rect x="9" y="6" width="1" height="1" fill="#E8A050"/>
  <rect x="10" y="6" width="1" height="1" fill="#F0B060"/>
  <rect x="11" y="6" width="1" height="1" fill="#E8A050"/>
  <rect x="12" y="6" width="1" height="1" fill="#D08040"/>
  <rect x="13" y="6" width="1" height="1" fill="#E8A050"/>
  <rect x="14" y="6" width="1" height="1" fill="#E8A050"/>
  <rect x="15" y="6" width="1" height="1" fill="#FFFFFF"/>
  <rect x="16" y="6" width="1" height="1" fill="#FFFFFF"/>
  <rect x="17" y="6" width="1" height="1" fill="#E8A050"/>
  <rect x="18" y="6" width="1" height="1" fill="#E8A050"/>
  <rect x="19" y="6" width="1" height="1" fill="#D08040"/>
  <rect x="20" y="6" width="1" height="1" fill="#E8A050"/>
  <rect x="21" y="6" width="1" height="1" fill="#F0B060"/>
  <rect x="22" y="6" width="1" height="1" fill="#E8A050"/>
  <rect x="23" y="6" width="1" height="1" fill="#D08040"/>

  <!-- 墨镜覆盖眼睛区域 row7-10 -->
  <rect x="8" y="7" width="1" height="1" fill="#1A1A1A"/>
  <rect x="9" y="7" width="1" height="1" fill="#2A2A2A"/>
  <rect x="10" y="7" width="1" height="1" fill="#2A2A2A"/>
  <rect x="11" y="7" width="1" height="1" fill="#2A2A2A"/>
  <rect x="12" y="7" width="1" height="1" fill="#2A2A2A"/>
  <rect x="13" y="7" width="1" height="1" fill="#1A1A1A"/>
  <rect x="14" y="7" width="1" height="1" fill="#E8A050"/>
  <rect x="15" y="7" width="1" height="1" fill="#D08040"/>
  <rect x="16" y="7" width="1" height="1" fill="#D08040"/>
  <rect x="17" y="7" width="1" height="1" fill="#E8A050"/>
  <rect x="18" y="7" width="1" height="1" fill="#1A1A1A"/>
  <rect x="19" y="7" width="1" height="1" fill="#2A2A2A"/>
  <rect x="20" y="7" width="1" height="1" fill="#2A2A2A"/>
  <rect x="21" y="7" width="1" height="1" fill="#2A2A2A"/>
  <rect x="22" y="7" width="1" height="1" fill="#2A2A2A"/>
  <rect x="23" y="7" width="1" height="1" fill="#1A1A1A"/>

  <rect x="6" y="8" width="1" height="1" fill="#1A1A1A"/>
  <rect x="7" y="8" width="1" height="1" fill="#2A2A2A"/>
  <rect x="8" y="8" width="1" height="1" fill="#1A1A1A"/>
  <rect x="9" y="8" width="1" height="1" fill="#3A3A3A"/>
  <rect x="10" y="8" width="1" height="1" fill="#4A4A4A"/>
  <rect x="11" y="8" width="1" height="1" fill="#4A4A4A"/>
  <rect x="12" y="8" width="1" height="1" fill="#3A3A3A"/>
  <rect x="13" y="8" width="1" height="1" fill="#1A1A1A"/>
  <rect x="14" y="8" width="1" height="1" fill="#1A1A1A"/>
  <rect x="15" y="8" width="1" height="1" fill="#2A2A2A"/>
  <rect x="16" y="8" width="1" height="1" fill="#2A2A2A"/>
  <rect x="17" y="8" width="1" height="1" fill="#1A1A1A"/>
  <rect x="18" y="8" width="1" height="1" fill="#1A1A1A"/>
  <rect x="19" y="8" width="1" height="1" fill="#3A3A3A"/>
  <rect x="20" y="8" width="1" height="1" fill="#4A4A4A"/>
  <rect x="21" y="8" width="1" height="1" fill="#4A4A4A"/>
  <rect x="22" y="8" width="1" height="1" fill="#3A3A3A"/>
  <rect x="23" y="8" width="1" height="1" fill="#1A1A1A"/>
  <rect x="24" y="8" width="1" height="1" fill="#2A2A2A"/>
  <rect x="25" y="8" width="1" height="1" fill="#1A1A1A"/>

  <rect x="5" y="9" width="1" height="1" fill="#1A1A1A"/>
  <rect x="6" y="9" width="1" height="1" fill="#2A2A2A"/>
  <rect x="7" y="9" width="1" height="1" fill="#1A1A1A"/>
  <rect x="8" y="9" width="1" height="1" fill="#FFB0C0"/>
  <rect x="9" y="9" width="1" height="1" fill="#3A3A3A"/>
  <rect x="10" y="9" width="1" height="1" fill="#4A4A4A"/>
  <rect x="11" y="9" width="1" height="1" fill="#4A4A4A"/>
  <rect x="12" y="9" width="1" height="1" fill="#3A3A3A"/>
  <rect x="13" y="9" width="1" height="1" fill="#1A1A1A"/>
  <rect x="14" y="9" width="1" height="1" fill="#E8A050"/>
  <rect x="15" y="9" width="1" height="1" fill="#E8A050"/>
  <rect x="16" y="9" width="1" height="1" fill="#E8A050"/>
  <rect x="17" y="9" width="1" height="1" fill="#E8A050"/>
  <rect x="18" y="9" width="1" height="1" fill="#1A1A1A"/>
  <rect x="19" y="9" width="1" height="1" fill="#3A3A3A"/>
  <rect x="20" y="9" width="1" height="1" fill="#4A4A4A"/>
  <rect x="21" y="9" width="1" height="1" fill="#4A4A4A"/>
  <rect x="22" y="9" width="1" height="1" fill="#3A3A3A"/>
  <rect x="23" y="9" width="1" height="1" fill="#FFB0C0"/>
  <rect x="24" y="9" width="1" height="1" fill="#1A1A1A"/>
  <rect x="25" y="9" width="1" height="1" fill="#2A2A2A"/>
  <rect x="26" y="9" width="1" height="1" fill="#1A1A1A"/>

  <rect x="7" y="10" width="1" height="1" fill="#D08040"/>
  <rect x="8" y="10" width="1" height="1" fill="#E8A050"/>
  <rect x="9" y="10" width="1" height="1" fill="#1A1A1A"/>
  <rect x="10" y="10" width="1" height="1" fill="#2A2A2A"/>
  <rect x="11" y="10" width="1" height="1" fill="#2A2A2A"/>
  <rect x="12" y="10" width="1" height="1" fill="#1A1A1A"/>
  <rect x="13" y="10" width="1" height="1" fill="#FFFFFF"/>
  <rect x="14" y="10" width="1" height="1" fill="#FFFFFF"/>
  <rect x="15" y="10" width="1" height="1" fill="#5A4A3A"/>
  <rect x="16" y="10" width="1" height="1" fill="#5A4A3A"/>
  <rect x="17" y="10" width="1" height="1" fill="#FFFFFF"/>
  <rect x="18" y="10" width="1" height="1" fill="#FFFFFF"/>
  <rect x="19" y="10" width="1" height="1" fill="#1A1A1A"/>
  <rect x="20" y="10" width="1" height="1" fill="#2A2A2A"/>
  <rect x="21" y="10" width="1" height="1" fill="#2A2A2A"/>
  <rect x="22" y="10" width="1" height="1" fill="#1A1A1A"/>
  <rect x="23" y="10" width="1" height="1" fill="#E8A050"/>
  <rect x="24" y="10" width="1" height="1" fill="#D08040"/>

  <!-- row11 嘴+胡须 -->
  <rect x="4" y="11" width="1" height="1" fill="#C8D0E0"/>
  <rect x="5" y="11" width="1" height="1" fill="#C8D0E0"/>
  <rect x="6" y="11" width="1" height="1" fill="#C8D0E0"/>
  <rect x="7" y="11" width="1" height="1" fill="#D08040"/>
  <rect x="8" y="11" width="1" height="1" fill="#E8A050"/>
  <rect x="9" y="11" width="1" height="1" fill="#E8A050"/>
  <rect x="10" y="11" width="1" height="1" fill="#FFFFFF"/>
  <rect x="11" y="11" width="1" height="1" fill="#FFFFFF"/>
  <rect x="12" y="11" width="1" height="1" fill="#FFFFFF"/>
  <rect x="13" y="11" width="1" height="1" fill="#FFFFFF"/>
  <rect x="14" y="11" width="1" height="1" fill="#5A4A3A"/>
  <rect x="15" y="11" width="1" height="1" fill="#FFFFFF"/>
  <rect x="16" y="11" width="1" height="1" fill="#FFFFFF"/>
  <rect x="17" y="11" width="1" height="1" fill="#5A4A3A"/>
  <rect x="18" y="11" width="1" height="1" fill="#FFFFFF"/>
  <rect x="19" y="11" width="1" height="1" fill="#FFFFFF"/>
  <rect x="20" y="11" width="1" height="1" fill="#FFFFFF"/>
  <rect x="21" y="11" width="1" height="1" fill="#FFFFFF"/>
  <rect x="22" y="11" width="1" height="1" fill="#E8A050"/>
  <rect x="23" y="11" width="1" height="1" fill="#E8A050"/>
  <rect x="24" y="11" width="1" height="1" fill="#D08040"/>
  <rect x="25" y="11" width="1" height="1" fill="#C8D0E0"/>
  <rect x="26" y="11" width="1" height="1" fill="#C8D0E0"/>
  <rect x="27" y="11" width="1" height="1" fill="#C8D0E0"/>

  <!-- row12 下巴 -->
  <rect x="8" y="12" width="1" height="1" fill="#D08040"/>
  <rect x="9" y="12" width="1" height="1" fill="#E8A050"/>
  <rect x="10" y="12" width="1" height="1" fill="#FFFFFF"/>
  <rect x="21" y="12" width="1" height="1" fill="#FFFFFF"/>
  <rect x="22" y="12" width="1" height="1" fill="#E8A050"/>
  <rect x="23" y="12" width="1" height="1" fill="#D08040"/>

  <!-- row13 项圈 -->
  <rect x="9" y="13" width="1" height="1" fill="#D08040"/>
  <rect x="10" y="13" width="1" height="1" fill="#FFD700"/>
  <rect x="15" y="13" width="1" height="1" fill="#FF4040"/>
  <rect x="16" y="13" width="1" height="1" fill="#FF4040"/>
  <rect x="21" y="13" width="1" height="1" fill="#FFD700"/>
  <rect x="22" y="13" width="1" height="1" fill="#D08040"/>

  <!-- 身体 row14-18 -->
  <rect x="10" y="14" width="1" height="1" fill="#D08040"/>
  <rect x="11" y="14" width="1" height="1" fill="#E8A050"/>
  <rect x="20" y="14" width="1" height="1" fill="#E8A050"/>
  <rect x="21" y="14" width="1" height="1" fill="#D08040"/>
  
  <rect x="10" y="15" width="1" height="1" fill="#D08040"/>
  <rect x="11" y="15" width="1" height="1" fill="#E8A050"/>
  <rect x="20" y="15" width="1" height="1" fill="#E8A050"/>
  <rect x="21" y="15" width="1" height="1" fill="#D08040"/>

  <rect x="10" y="16" width="1" height="1" fill="#D08040"/>
  <rect x="11" y="16" width="1" height="1" fill="#E8A050"/>
  <rect x="20" y="16" width="1" height="1" fill="#E8A050"/>
  <rect x="21" y="16" width="1" height="1" fill="#D08040"/>
  <rect x="22" y="16" width="1" height="1" fill="#E8A050"/>
  <rect x="23" y="16" width="1" height="1" fill="#D08040"/>

  <rect x="10" y="17" width="1" height="1" fill="#D08040"/>
  <rect x="11" y="17" width="1" height="1" fill="#E8A050"/>
  <rect x="20" y="17" width="1" height="1" fill="#E8A050"/>
  <rect x="21" y="17" width="1" height="1" fill="#D08040"/>
  <rect x="23" y="17" width="1" height="1" fill="#E8A050"/>
  <rect x="24" y="17" width="1" height="1" fill="#D08040"/>

  <rect x="11" y="18" width="1" height="1" fill="#D08040"/>
  <rect x="12" y="18" width="1" height="1" fill="#E8A050"/>
  <rect x="13" y="18" width="1" height="1" fill="#E8A050"/>
  <rect x="14" y="18" width="1" height="1" fill="#D08040"/>
  <rect x="17" y="18" width="1" height="1" fill="#D08040"/>
  <rect x="18" y="18" width="1" height="1" fill="#E8A050"/>
  <rect x="19" y="18" width="1" height="1" fill="#E8A050"/>
  <rect x="20" y="18" width="1" height="1" fill="#D08040"/>
  <rect x="24" y="18" width="1" height="1" fill="#E8A050"/>
  <rect x="25" y="18" width="1" height="1" fill="#D08040"/>
  <rect x="26" y="18" width="1" height="1" fill="#E8A050"/>

  <!-- 红鞋 row19-21 -->
  <rect x="10" y="19" width="1" height="1" fill="#AA2020"/>
  <rect x="11" y="19" width="1" height="1" fill="#CC3030"/>
  <rect x="12" y="19" width="1" height="1" fill="#CC3030"/>
  <rect x="13" y="19" width="1" height="1" fill="#CC3030"/>
  <rect x="14" y="19" width="1" height="1" fill="#AA2020"/>
  <rect x="17" y="19" width="1" height="1" fill="#AA2020"/>
  <rect x="18" y="19" width="1" height="1" fill="#CC3030"/>
  <rect x="19" y="19" width="1" height="1" fill="#CC3030"/>
  <rect x="20" y="19" width="1" height="1" fill="#CC3030"/>
  <rect x="21" y="19" width="1" height="1" fill="#AA2020"/>
  <rect x="25" y="19" width="1" height="1" fill="#E8A050"/>
  <rect x="26" y="19" width="1" height="1" fill="#D08040"/>
  <rect x="27" y="17" width="1" height="1" fill="#D08040"/>
  <rect x="27" y="18" width="1" height="1" fill="#D08040"/>

  <rect x="9" y="20" width="1" height="1" fill="#AA2020"/>
  <rect x="10" y="20" width="1" height="1" fill="#CC3030"/>
  <rect x="11" y="20" width="1" height="1" fill="#DD4040"/>
  <rect x="12" y="20" width="1" height="1" fill="#DD4040"/>
  <rect x="13" y="20" width="1" height="1" fill="#CC3030"/>
  <rect x="14" y="20" width="1" height="1" fill="#AA2020"/>
  <rect x="17" y="20" width="1" height="1" fill="#AA2020"/>
  <rect x="18" y="20" width="1" height="1" fill="#CC3030"/>
  <rect x="19" y="20" width="1" height="1" fill="#DD4040"/>
  <rect x="20" y="20" width="1" height="1" fill="#DD4040"/>
  <rect x="21" y="20" width="1" height="1" fill="#CC3030"/>
  <rect x="22" y="20" width="1" height="1" fill="#AA2020"/>

  <rect x="9" y="21" width="1" height="1" fill="#3A2A2A"/>
  <rect x="10" y="21" width="1" height="1" fill="#4A3A3A"/>
  <rect x="11" y="21" width="1" height="1" fill="#4A3A3A"/>
  <rect x="12" y="21" width="1" height="1" fill="#4A3A3A"/>
  <rect x="13" y="21" width="1" height="1" fill="#4A3A3A"/>
  <rect x="14" y="21" width="1" height="1" fill="#3A2A2A"/>
  <rect x="17" y="21" width="1" height="1" fill="#3A2A2A"/>
  <rect x="18" y="21" width="1" height="1" fill="#4A3A3A"/>
  <rect x="19" y="21" width="1" height="1" fill="#4A3A3A"/>
  <rect x="20" y="21" width="1" height="1" fill="#4A3A3A"/>
  <rect x="21" y="21" width="1" height="1" fill="#4A3A3A"/>
  <rect x="22" y="21" width="1" height="1" fill="#3A2A2A"/>
</svg>
