<svg xmlns="http://www.w3.org/2000/svg" viewBox="0 0 960 640" width="960" height="640" style="image-rendering: pixelated;">
  <!-- Market Scene Background 960x640px (扩大版) -->
  
  <!-- 地面 - 石板路 -->
  <rect x="0" y="400" width="960" height="240" fill="#808080"/>
  <!-- 石板纹理 -->
  <rect x="0" y="400" width="120" height="120" fill="#909090"/>
  <rect x="124" y="400" width="116" height="116" fill="#787878"/>
  <rect x="244" y="400" width="116" height="120" fill="#909090"/>
  <rect x="364" y="400" width="116" height="116" fill="#787878"/>
  <rect x="484" y="400" width="116" height="120" fill="#909090"/>
  <rect x="604" y="400" width="116" height="116" fill="#787878"/>
  <rect x="724" y="400" width="116" height="120" fill="#909090"/>
  <rect x="844" y="400" width="116" height="116" fill="#787878"/>
  
  <rect x="0" y="524" width="116" height="116" fill="#787878"/>
  <rect x="120" y="520" width="120" height="120" fill="#909090"/>
  <rect x="244" y="524" width="116" height="116" fill="#787878"/>
  <rect x="364" y="520" width="120" height="120" fill="#909090"/>
  <rect x="488" y="524" width="116" height="116" fill="#787878"/>
  <rect x="608" y="520" width="116" height="120" fill="#909090"/>
  <rect x="728" y="524" width="116" height="116" fill="#787878"/>
  <rect x="848" y="520" width="112" height="120" fill="#909090"/>
  
  <!-- 天空背景 -->
  <rect x="0" y="0" width="960" height="400" fill="#87CEEB"/>
  <rect x="0" y="0" width="960" height="120" fill="#ADD8E6"/>
  
  <!-- 云朵 -->
  <rect x="80" y="40" width="80" height="32" fill="#FFFFFF"/>
  <rect x="64" y="56" width="112" height="24" fill="#FFFFFF"/>
  
  <rect x="400" y="80" width="96" height="24" fill="#FFFFFF"/>
  <rect x="384" y="88" width="128" height="32" fill="#FFFFFF"/>
  
  <rect x="760" y="48" width="72" height="24" fill="#FFFFFF"/>
  <rect x="744" y="64" width="104" height="24" fill="#FFFFFF"/>
  
  <!-- 遮阳棚顶部 -->
  <rect x="0" y="160" width="960" height="80" fill="#E74C3C"/>
  <rect x="0" y="160" width="120" height="80" fill="#FFFFFF"/>
  <rect x="240" y="160" width="120" height="80" fill="#FFFFFF"/>
  <rect x="480" y="160" width="120" height="80" fill="#FFFFFF"/>
  <rect x="720" y="160" width="120" height="80" fill="#FFFFFF"/>
  
  <!-- 遮阳棚波浪边缘 -->
  <rect x="40" y="240" width="40" height="16" fill="#E74C3C"/>
  <rect x="160" y="240" width="40" height="16" fill="#E74C3C"/>
  <rect x="280" y="240" width="40" height="16" fill="#E74C3C"/>
  <rect x="400" y="240" width="40" height="16" fill="#E74C3C"/>
  <rect x="520" y="240" width="40" height="16" fill="#E74C3C"/>
  <rect x="640" y="240" width="40" height="16" fill="#E74C3C"/>
  <rect x="760" y="240" width="40" height="16" fill="#E74C3C"/>
  <rect x="880" y="240" width="40" height="16" fill="#E74C3C"/>
</svg>
