<svg xmlns="http://www.w3.org/2000/svg" viewBox="0 0 96 80" width="192" height="160" style="image-rendering: pixelated;">
  <!-- Market Fruit Stall - 水果摊 96x80px -->
  
  <!-- 摊位阴影 -->
  <rect x="8" y="72" width="80" height="8" fill="#4A3020"/>
  
  <!-- 摊位柜台 -->
  <rect x="4" y="48" width="88" height="28" fill="#DEB887"/>
  <rect x="8" y="52" width="80" height="20" fill="#F5DEB3"/>
  
  <!-- 柜台顶板 -->
  <rect x="0" y="44" width="96" height="8" fill="#CD853F"/>
  
  <!-- 水果篮子 -->
  <!-- 苹果篮 -->
  <rect x="8" y="32" width="24" height="16" fill="#CD853F"/>
  <rect x="10" y="28" width="8" height="6" fill="#FF0000"/>
  <rect x="18" y="26" width="8" height="8" fill="#FF4040"/>
  <rect x="12" y="34" width="6" height="6" fill="#FF0000"/>
  <rect x="22" y="32" width="6" height="6" fill="#FF4040"/>
  
  <!-- 橙子篮 -->
  <rect x="36" y="32" width="24" height="16" fill="#CD853F"/>
  <rect x="38" y="28" width="8" height="6" fill="#FFA500"/>
  <rect x="46" y="26" width="8" height="8" fill="#FF8C00"/>
  <rect x="40" y="34" width="6" height="6" fill="#FFA500"/>
  <rect x="50" y="32" width="6" height="6" fill="#FF8C00"/>
  
  <!-- 香蕉篮 -->
  <rect x="64" y="32" width="24" height="16" fill="#CD853F"/>
  <rect x="66" y="28" width="10" height="4" fill="#FFD700"/>
  <rect x="72" y="26" width="10" height="4" fill="#FFFF00"/>
  <rect x="68" y="32" width="8" height="6" fill="#FFD700"/>
  <rect x="78" y="34" width="6" height="4" fill="#FFFF00"/>
  
  <!-- 价格牌 -->
  <rect x="16" y="20" width="12" height="8" fill="#FFFFFF"/>
  <rect x="18" y="22" width="8" height="4" fill="#FF0000"/>
  
  <rect x="42" y="20" width="12" height="8" fill="#FFFFFF"/>
  <rect x="44" y="22" width="8" height="4" fill="#FF0000"/>
  
  <rect x="70" y="20" width="12" height="8" fill="#FFFFFF"/>
  <rect x="72" y="22" width="8" height="4" fill="#FF0000"/>
  
  <!-- 遮阳棚 -->
  <rect x="0" y="0" width="96" height="20" fill="#E74C3C"/>
  <rect x="0" y="0" width="24" height="20" fill="#FFFFFF"/>
  <rect x="48" y="0" width="24" height="20" fill="#FFFFFF"/>
</svg>
