<svg xmlns="http://www.w3.org/2000/svg" viewBox="0 0 32 32" width="32" height="32" style="image-rendering: pixelated;">
  <!-- Genesis Motes Favicon - 32x32 -->
  
  <!-- 背景 -->
  <rect x="0" y="0" width="32" height="32" fill="#2A2A5A"/>
  
  <!-- 圆角 -->
  <rect x="0" y="0" width="4" height="4" fill="#000000"/>
  <rect x="28" y="0" width="4" height="4" fill="#000000"/>
  <rect x="0" y="28" width="4" height="4" fill="#000000"/>
  <rect x="28" y="28" width="4" height="4" fill="#000000"/>
  
  <!-- Mote身体简化版 -->
  <rect x="10" y="8" width="12" height="2" fill="#A0E0FF"/>
  <rect x="8" y="10" width="16" height="2" fill="#B0F0FF"/>
  <rect x="8" y="12" width="16" height="2" fill="#C0F8FF"/>
  <rect x="8" y="14" width="16" height="2" fill="#C0F8FF"/>
  <rect x="8" y="16" width="16" height="2" fill="#B0F0FF"/>
  <rect x="10" y="18" width="12" height="2" fill="#A0E0FF"/>
  <rect x="12" y="20" width="8" height="2" fill="#90D0FF"/>
  
  <!-- 高光 -->
  <rect x="10" y="10" width="4" height="2" fill="#FFFFFF"/>
  <rect x="8" y="12" width="4" height="2" fill="#FFFFFF"/>
  
  <!-- 眼睛 -->
  <rect x="12" y="13" width="2" height="3" fill="#2A2A5A"/>
  <rect x="18" y="13" width="2" height="3" fill="#2A2A5A"/>
  <rect x="12" y="13" width="1" height="1" fill="#FFFFFF"/>
  <rect x="18" y="13" width="1" height="1" fill="#FFFFFF"/>
  
  <!-- 头顶光 -->
  <rect x="15" y="6" width="2" height="2" fill="#FFE040"/>
</svg>
