<svg xmlns="http://www.w3.org/2000/svg" viewBox="0 0 1024 1024" width="1024" height="1024" style="image-rendering: pixelated;">
  <!-- Genesis Motes App Store Icon - 1024x1024 -->
  
  <!-- 背景渐变 -->
  <rect x="0" y="0" width="1024" height="1024" fill="#1A1A3A"/>
  <rect x="0" y="0" width="1024" height="512" fill="#2A2A5A"/>
  <rect x="0" y="0" width="1024" height="256" fill="#3A3A7A"/>
  
  <!-- 圆角 -->
  <rect x="0" y="0" width="128" height="128" fill="#000000"/>
  <rect x="896" y="0" width="128" height="128" fill="#000000"/>
  <rect x="0" y="896" width="128" height="128" fill="#000000"/>
  <rect x="896" y="896" width="128" height="128" fill="#000000"/>
  <rect x="0" y="0" width="64" height="192" fill="#000000"/>
  <rect x="0" y="0" width="192" height="64" fill="#000000"/>
  <rect x="960" y="0" width="64" height="192" fill="#000000"/>
  <rect x="832" y="0" width="192" height="64" fill="#000000"/>
  <rect x="0" y="832" width="64" height="192" fill="#000000"/>
  <rect x="0" y="960" width="192" height="64" fill="#000000"/>
  <rect x="960" y="832" width="64" height="192" fill="#000000"/>
  <rect x="832" y="960" width="192" height="64" fill="#000000"/>
  
  <!-- 星星背景 -->
  <rect x="128" y="128" width="16" height="16" fill="#FFFFFF"/>
  <rect x="256" y="192" width="16" height="16" fill="#E0E0FF"/>
  <rect x="768" y="160" width="16" height="16" fill="#FFFFFF"/>
  <rect x="840" y="256" width="16" height="16" fill="#E0E0FF"/>
  <rect x="160" y="800" width="16" height="16" fill="#FFFFFF"/>
  <rect x="800" y="760" width="16" height="16" fill="#E0E0FF"/>
  <rect x="640" y="840" width="16" height="16" fill="#FFFFFF"/>
  <rect x="192" y="640" width="12" height="12" fill="#FFFFFF"/>
  <rect x="820" y="600" width="12" height="12" fill="#E0E0FF"/>
  
  <!-- 中心Mote角色 -->
  <!-- 身体主体 -->
  <rect x="352" y="320" width="320" height="32" fill="#80C0FF"/>
  <rect x="320" y="352" width="384" height="32" fill="#90D0FF"/>
  <rect x="288" y="384" width="448" height="32" fill="#A0E0FF"/>
  <rect x="256" y="416" width="512" height="32" fill="#B0F0FF"/>
  <rect x="256" y="448" width="512" height="32" fill="#C0F8FF"/>
  <rect x="256" y="480" width="512" height="32" fill="#C0F8FF"/>
  <rect x="256" y="512" width="512" height="32" fill="#B0F0FF"/>
  <rect x="288" y="544" width="448" height="32" fill="#A0E0FF"/>
  <rect x="320" y="576" width="384" height="32" fill="#90D0FF"/>
  <rect x="352" y="608" width="320" height="32" fill="#80C0FF"/>
  <rect x="384" y="640" width="256" height="32" fill="#70B0FF"/>
  
  <!-- 白色高光 -->
  <rect x="352" y="352" width="96" height="32" fill="#FFFFFF"/>
  <rect x="320" y="384" width="128" height="32" fill="#FFFFFF"/>
  <rect x="320" y="416" width="96" height="32" fill="#FFFFFF"/>
  
  <!-- 眼睛 -->
  <rect x="384" y="448" width="64" height="96" fill="#2A2A5A"/>
  <rect x="576" y="448" width="64" height="96" fill="#2A2A5A"/>
  <!-- 眼睛高光 -->
  <rect x="400" y="464" width="32" height="32" fill="#FFFFFF"/>
  <rect x="592" y="464" width="32" height="32" fill="#FFFFFF"/>
  
  <!-- 腮红 -->
  <rect x="320" y="528" width="48" height="32" fill="#FFB0C0"/>
  <rect x="656" y="528" width="48" height="32" fill="#FFB0C0"/>
  
  <!-- 嘴 -->
  <rect x="480" y="560" width="64" height="16" fill="#FF90B0"/>
  
  <!-- 头顶光晕 -->
  <rect x="480" y="256" width="64" height="32" fill="#FFFFA0"/>
  <rect x="464" y="288" width="96" height="16" fill="#FFE080"/>
  <rect x="496" y="240" width="32" height="16" fill="#FFFFFF"/>
  
  <!-- 底部能量波纹 -->
  <rect x="320" y="672" width="384" height="16" fill="#6090C0"/>
  <rect x="352" y="688" width="320" height="16" fill="#5080B0"/>
  <rect x="384" y="704" width="256" height="16" fill="#4070A0"/>
  
  <!-- 周围装饰粒子 -->
  <rect x="192" y="384" width="32" height="32" fill="#FFE040"/>
  <rect x="800" y="416" width="32" height="32" fill="#FFE040"/>
  <rect x="224" y="640" width="32" height="32" fill="#FF80A0"/>
  <rect x="768" y="672" width="32" height="32" fill="#FF80A0"/>
  <rect x="256" y="288" width="24" height="24" fill="#A0E0FF"/>
  <rect x="736" y="320" width="24" height="24" fill="#A0E0FF"/>
</svg>
