<svg xmlns="http://www.w3.org/2000/svg" viewBox="0 0 192 192" width="192" height="192" style="image-rendering: pixelated;">
  <!-- Genesis Motes PWA Icon - 192x192 -->
  
  <!-- 背景 -->
  <rect x="0" y="0" width="192" height="192" fill="#1A1A3A"/>
  <rect x="0" y="0" width="192" height="96" fill="#2A2A5A"/>
  <rect x="0" y="0" width="192" height="48" fill="#3A3A7A"/>
  
  <!-- 圆角 -->
  <rect x="0" y="0" width="24" height="24" fill="#000000"/>
  <rect x="168" y="0" width="24" height="24" fill="#000000"/>
  <rect x="0" y="168" width="24" height="24" fill="#000000"/>
  <rect x="168" y="168" width="24" height="24" fill="#000000"/>
  <rect x="0" y="0" width="12" height="36" fill="#000000"/>
  <rect x="0" y="0" width="36" height="12" fill="#000000"/>
  <rect x="180" y="0" width="12" height="36" fill="#000000"/>
  <rect x="156" y="0" width="36" height="12" fill="#000000"/>
  <rect x="0" y="156" width="12" height="36" fill="#000000"/>
  <rect x="0" y="180" width="36" height="12" fill="#000000"/>
  <rect x="180" y="156" width="12" height="36" fill="#000000"/>
  <rect x="156" y="180" width="36" height="12" fill="#000000"/>
  
  <!-- 星星 -->
  <rect x="24" y="24" width="4" height="4" fill="#FFFFFF"/>
  <rect x="156" y="36" width="4" height="4" fill="#E0E0FF"/>
  <rect x="36" y="150" width="4" height="4" fill="#FFFFFF"/>
  
  <!-- Mote身体 -->
  <rect x="66" y="54" width="60" height="6" fill="#80C0FF"/>
  <rect x="54" y="60" width="84" height="6" fill="#A0E0FF"/>
  <rect x="48" y="66" width="96" height="6" fill="#B0F0FF"/>
  <rect x="48" y="72" width="96" height="6" fill="#C0F8FF"/>
  <rect x="48" y="78" width="96" height="6" fill="#C0F8FF"/>
  <rect x="48" y="84" width="96" height="6" fill="#B0F0FF"/>
  <rect x="54" y="90" width="84" height="6" fill="#A0E0FF"/>
  <rect x="60" y="96" width="72" height="6" fill="#90D0FF"/>
  <rect x="66" y="102" width="60" height="6" fill="#80C0FF"/>
  <rect x="72" y="108" width="48" height="6" fill="#70B0FF"/>
  
  <!-- 高光 -->
  <rect x="60" y="60" width="24" height="6" fill="#FFFFFF"/>
  <rect x="54" y="66" width="30" height="6" fill="#FFFFFF"/>
  
  <!-- 眼睛 -->
  <rect x="72" y="78" width="12" height="18" fill="#2A2A5A"/>
  <rect x="108" y="78" width="12" height="18" fill="#2A2A5A"/>
  <rect x="75" y="81" width="6" height="6" fill="#FFFFFF"/>
  <rect x="111" y="81" width="6" height="6" fill="#FFFFFF"/>
  
  <!-- 腮红 -->
  <rect x="57" y="90" width="9" height="6" fill="#FFB0C0"/>
  <rect x="126" y="90" width="9" height="6" fill="#FFB0C0"/>
  
  <!-- 嘴 -->
  <rect x="90" y="96" width="12" height="3" fill="#FF90B0"/>
  
  <!-- 头顶光晕 -->
  <rect x="90" y="42" width="12" height="6" fill="#FFFFA0"/>
  <rect x="87" y="48" width="18" height="3" fill="#FFE080"/>
  
  <!-- 粒子 -->
  <rect x="36" y="66" width="6" height="6" fill="#FFE040"/>
  <rect x="150" y="72" width="6" height="6" fill="#FFE040"/>
</svg>
