<svg xmlns="http://www.w3.org/2000/svg" viewBox="0 0 512 512" width="512" height="512" style="image-rendering: pixelated;">
  <!-- Genesis Motes App Icon - 512x512 -->
  
  <!-- 背景渐变（深蓝到紫） -->
  <rect x="0" y="0" width="512" height="512" fill="#1A1A3A"/>
  <rect x="0" y="0" width="512" height="256" fill="#2A2A5A"/>
  <rect x="0" y="0" width="512" height="128" fill="#3A3A7A"/>
  
  <!-- 圆角遮罩效果（像素化） -->
  <rect x="0" y="0" width="64" height="64" fill="#000000"/>
  <rect x="448" y="0" width="64" height="64" fill="#000000"/>
  <rect x="0" y="448" width="64" height="64" fill="#000000"/>
  <rect x="448" y="448" width="64" height="64" fill="#000000"/>
  <rect x="0" y="0" width="32" height="96" fill="#000000"/>
  <rect x="0" y="0" width="96" height="32" fill="#000000"/>
  <rect x="480" y="0" width="32" height="96" fill="#000000"/>
  <rect x="416" y="0" width="96" height="32" fill="#000000"/>
  <rect x="0" y="416" width="32" height="96" fill="#000000"/>
  <rect x="0" y="480" width="96" height="32" fill="#000000"/>
  <rect x="480" y="416" width="32" height="96" fill="#000000"/>
  <rect x="416" y="480" width="96" height="32" fill="#000000"/>
  
  <!-- 星星背景 -->
  <rect x="64" y="64" width="8" height="8" fill="#FFFFFF"/>
  <rect x="128" y="96" width="8" height="8" fill="#E0E0FF"/>
  <rect x="384" y="80" width="8" height="8" fill="#FFFFFF"/>
  <rect x="420" y="128" width="8" height="8" fill="#E0E0FF"/>
  <rect x="80" y="400" width="8" height="8" fill="#FFFFFF"/>
  <rect x="400" y="380" width="8" height="8" fill="#E0E0FF"/>
  <rect x="320" y="420" width="8" height="8" fill="#FFFFFF"/>
  
  <!-- 中心Mote角色（可爱像素风） -->
  <!-- 身体主体（浅蓝色发光体） -->
  <rect x="176" y="160" width="160" height="16" fill="#80C0FF"/>
  <rect x="160" y="176" width="192" height="16" fill="#90D0FF"/>
  <rect x="144" y="192" width="224" height="16" fill="#A0E0FF"/>
  <rect x="128" y="208" width="256" height="16" fill="#B0F0FF"/>
  <rect x="128" y="224" width="256" height="16" fill="#C0F8FF"/>
  <rect x="128" y="240" width="256" height="16" fill="#C0F8FF"/>
  <rect x="128" y="256" width="256" height="16" fill="#B0F0FF"/>
  <rect x="144" y="272" width="224" height="16" fill="#A0E0FF"/>
  <rect x="160" y="288" width="192" height="16" fill="#90D0FF"/>
  <rect x="176" y="304" width="160" height="16" fill="#80C0FF"/>
  <rect x="192" y="320" width="128" height="16" fill="#70B0FF"/>
  
  <!-- 白色高光 -->
  <rect x="176" y="176" width="48" height="16" fill="#FFFFFF"/>
  <rect x="160" y="192" width="64" height="16" fill="#FFFFFF"/>
  <rect x="160" y="208" width="48" height="16" fill="#FFFFFF"/>
  
  <!-- 眼睛（可爱的大眼睛） -->
  <rect x="192" y="224" width="32" height="48" fill="#2A2A5A"/>
  <rect x="288" y="224" width="32" height="48" fill="#2A2A5A"/>
  <!-- 眼睛高光 -->
  <rect x="200" y="232" width="16" height="16" fill="#FFFFFF"/>
  <rect x="296" y="232" width="16" height="16" fill="#FFFFFF"/>
  
  <!-- 腮红 -->
  <rect x="160" y="264" width="24" height="16" fill="#FFB0C0"/>
  <rect x="328" y="264" width="24" height="16" fill="#FFB0C0"/>
  
  <!-- 嘴（微笑） -->
  <rect x="240" y="280" width="32" height="8" fill="#FF90B0"/>
  
  <!-- 头顶光晕 -->
  <rect x="240" y="128" width="32" height="16" fill="#FFFFA0"/>
  <rect x="232" y="144" width="48" height="8" fill="#FFE080"/>
  <rect x="248" y="120" width="16" height="8" fill="#FFFFFF"/>
  
  <!-- 底部能量波纹 -->
  <rect x="160" y="336" width="192" height="8" fill="#6090C0"/>
  <rect x="176" y="344" width="160" height="8" fill="#5080B0"/>
  <rect x="192" y="352" width="128" height="8" fill="#4070A0"/>
  
  <!-- 周围小星星/粒子 -->
  <rect x="96" y="192" width="16" height="16" fill="#FFE040"/>
  <rect x="400" y="208" width="16" height="16" fill="#FFE040"/>
  <rect x="112" y="320" width="16" height="16" fill="#FF80A0"/>
  <rect x="384" y="336" width="16" height="16" fill="#FF80A0"/>
  <rect x="128" y="144" width="12" height="12" fill="#A0E0FF"/>
  <rect x="368" y="160" width="12" height="12" fill="#A0E0FF"/>
</svg>
