<svg xmlns="http://www.w3.org/2000/svg" viewBox="0 0 32 32" width="128" height="128" style="image-rendering: pixelated;">
  <!-- 配件：墨镜 -->
  <!-- 位置：眼睛区域，适配猫型v4 -->
  <!-- 透明背景，只画墨镜 -->
  
  <!-- 左镜片 -->
  <rect x="8" y="7" width="1" height="1" fill="#1A1A1A"/>
  <rect x="9" y="7" width="1" height="1" fill="#2A2A2A"/>
  <rect x="10" y="7" width="1" height="1" fill="#2A2A2A"/>
  <rect x="11" y="7" width="1" height="1" fill="#2A2A2A"/>
  <rect x="12" y="7" width="1" height="1" fill="#2A2A2A"/>
  <rect x="13" y="7" width="1" height="1" fill="#1A1A1A"/>
  
  <rect x="8" y="8" width="1" height="1" fill="#1A1A1A"/>
  <rect x="9" y="8" width="1" height="1" fill="#3A3A3A"/>
  <rect x="10" y="8" width="1" height="1" fill="#4A4A4A"/>
  <rect x="11" y="8" width="1" height="1" fill="#4A4A4A"/>
  <rect x="12" y="8" width="1" height="1" fill="#3A3A3A"/>
  <rect x="13" y="8" width="1" height="1" fill="#1A1A1A"/>
  
  <rect x="8" y="9" width="1" height="1" fill="#1A1A1A"/>
  <rect x="9" y="9" width="1" height="1" fill="#3A3A3A"/>
  <rect x="10" y="9" width="1" height="1" fill="#4A4A4A"/>
  <rect x="11" y="9" width="1" height="1" fill="#4A4A4A"/>
  <rect x="12" y="9" width="1" height="1" fill="#3A3A3A"/>
  <rect x="13" y="9" width="1" height="1" fill="#1A1A1A"/>
  
  <rect x="9" y="10" width="1" height="1" fill="#1A1A1A"/>
  <rect x="10" y="10" width="1" height="1" fill="#2A2A2A"/>
  <rect x="11" y="10" width="1" height="1" fill="#2A2A2A"/>
  <rect x="12" y="10" width="1" height="1" fill="#1A1A1A"/>
  
  <!-- 鼻梁 -->
  <rect x="14" y="8" width="1" height="1" fill="#1A1A1A"/>
  <rect x="15" y="8" width="1" height="1" fill="#2A2A2A"/>
  <rect x="16" y="8" width="1" height="1" fill="#2A2A2A"/>
  <rect x="17" y="8" width="1" height="1" fill="#1A1A1A"/>
  
  <!-- 右镜片 -->
  <rect x="18" y="7" width="1" height="1" fill="#1A1A1A"/>
  <rect x="19" y="7" width="1" height="1" fill="#2A2A2A"/>
  <rect x="20" y="7" width="1" height="1" fill="#2A2A2A"/>
  <rect x="21" y="7" width="1" height="1" fill="#2A2A2A"/>
  <rect x="22" y="7" width="1" height="1" fill="#2A2A2A"/>
  <rect x="23" y="7" width="1" height="1" fill="#1A1A1A"/>
  
  <rect x="18" y="8" width="1" height="1" fill="#1A1A1A"/>
  <rect x="19" y="8" width="1" height="1" fill="#3A3A3A"/>
  <rect x="20" y="8" width="1" height="1" fill="#4A4A4A"/>
  <rect x="21" y="8" width="1" height="1" fill="#4A4A4A"/>
  <rect x="22" y="8" width="1" height="1" fill="#3A3A3A"/>
  <rect x="23" y="8" width="1" height="1" fill="#1A1A1A"/>
  
  <rect x="18" y="9" width="1" height="1" fill="#1A1A1A"/>
  <rect x="19" y="9" width="1" height="1" fill="#3A3A3A"/>
  <rect x="20" y="9" width="1" height="1" fill="#4A4A4A"/>
  <rect x="21" y="9" width="1" height="1" fill="#4A4A4A"/>
  <rect x="22" y="9" width="1" height="1" fill="#3A3A3A"/>
  <rect x="23" y="9" width="1" height="1" fill="#1A1A1A"/>
  
  <rect x="19" y="10" width="1" height="1" fill="#1A1A1A"/>
  <rect x="20" y="10" width="1" height="1" fill="#2A2A2A"/>
  <rect x="21" y="10" width="1" height="1" fill="#2A2A2A"/>
  <rect x="22" y="10" width="1" height="1" fill="#1A1A1A"/>
  
  <!-- 左镜腿 -->
  <rect x="6" y="8" width="1" height="1" fill="#1A1A1A"/>
  <rect x="7" y="8" width="1" height="1" fill="#2A2A2A"/>
  <rect x="5" y="9" width="1" height="1" fill="#1A1A1A"/>
  <rect x="6" y="9" width="1" height="1" fill="#2A2A2A"/>
  <rect x="7" y="9" width="1" height="1" fill="#1A1A1A"/>
  
  <!-- 右镜腿 -->
  <rect x="24" y="8" width="1" height="1" fill="#2A2A2A"/>
  <rect x="25" y="8" width="1" height="1" fill="#1A1A1A"/>
  <rect x="24" y="9" width="1" height="1" fill="#1A1A1A"/>
  <rect x="25" y="9" width="1" height="1" fill="#2A2A2A"/>
  <rect x="26" y="9" width="1" height="1" fill="#1A1A1A"/>
</svg>