<svg xmlns="http://www.w3.org/2000/svg" viewBox="0 0 32 32" width="128" height="128" style="image-rendering: pixelated;">
  <!-- 配件：小红鞋 -->
  <!-- 位置：脚部区域，适配猫型v4 -->
  <!-- 透明背景，只画鞋子 -->
  
  <!-- 左鞋 -->
  <rect x="10" y="19" width="1" height="1" fill="#AA2020"/>
  <rect x="11" y="19" width="1" height="1" fill="#CC3030"/>
  <rect x="12" y="19" width="1" height="1" fill="#CC3030"/>
  <rect x="13" y="19" width="1" height="1" fill="#CC3030"/>
  <rect x="14" y="19" width="1" height="1" fill="#AA2020"/>
  
  <rect x="9" y="20" width="1" height="1" fill="#AA2020"/>
  <rect x="10" y="20" width="1" height="1" fill="#CC3030"/>
  <rect x="11" y="20" width="1" height="1" fill="#DD4040"/>
  <rect x="12" y="20" width="1" height="1" fill="#DD4040"/>
  <rect x="13" y="20" width="1" height="1" fill="#CC3030"/>
  <rect x="14" y="20" width="1" height="1" fill="#AA2020"/>
  
  <!-- 左鞋底 -->
  <rect x="9" y="21" width="1" height="1" fill="#3A2A2A"/>
  <rect x="10" y="21" width="1" height="1" fill="#4A3A3A"/>
  <rect x="11" y="21" width="1" height="1" fill="#4A3A3A"/>
  <rect x="12" y="21" width="1" height="1" fill="#4A3A3A"/>
  <rect x="13" y="21" width="1" height="1" fill="#4A3A3A"/>
  <rect x="14" y="21" width="1" height="1" fill="#3A2A2A"/>
  
  <!-- 右鞋 -->
  <rect x="17" y="19" width="1" height="1" fill="#AA2020"/>
  <rect x="18" y="19" width="1" height="1" fill="#CC3030"/>
  <rect x="19" y="19" width="1" height="1" fill="#CC3030"/>
  <rect x="20" y="19" width="1" height="1" fill="#CC3030"/>
  <rect x="21" y="19" width="1" height="1" fill="#AA2020"/>
  
  <rect x="17" y="20" width="1" height="1" fill="#AA2020"/>
  <rect x="18" y="20" width="1" height="1" fill="#CC3030"/>
  <rect x="19" y="20" width="1" height="1" fill="#DD4040"/>
  <rect x="20" y="20" width="1" height="1" fill="#DD4040"/>
  <rect x="21" y="20" width="1" height="1" fill="#CC3030"/>
  <rect x="22" y="20" width="1" height="1" fill="#AA2020"/>
  
  <!-- 右鞋底 -->
  <rect x="17" y="21" width="1" height="1" fill="#3A2A2A"/>
  <rect x="18" y="21" width="1" height="1" fill="#4A3A3A"/>
  <rect x="19" y="21" width="1" height="1" fill="#4A3A3A"/>
  <rect x="20" y="21" width="1" height="1" fill="#4A3A3A"/>
  <rect x="21" y="21" width="1" height="1" fill="#4A3A3A"/>
  <rect x="22" y="21" width="1" height="1" fill="#3A2A2A"/>
</svg>